G04 EAGLE Gerber RS-274X export*
G75*
%MOMM*%
%FSLAX34Y34*%
%LPD*%
%INSilkscreen Top*%
%IPPOS*%
%AMOC8*
5,1,8,0,0,1.08239X$1,22.5*%
G01*
%ADD10C,0.076200*%
%ADD11C,0.101600*%
%ADD12C,0.050800*%
%ADD13C,0.254000*%
%ADD14C,0.152400*%
%ADD15C,0.127000*%
%ADD16C,0.406400*%
%ADD17R,0.508000X2.032000*%
%ADD18R,0.635000X0.508000*%


D10*
X10231Y142016D02*
X12319Y139405D01*
X2921Y139405D01*
X2921Y142016D02*
X2921Y136794D01*
X9970Y127650D02*
X10065Y127652D01*
X10159Y127658D01*
X10253Y127667D01*
X10347Y127680D01*
X10440Y127697D01*
X10532Y127718D01*
X10624Y127743D01*
X10714Y127771D01*
X10803Y127803D01*
X10891Y127838D01*
X10977Y127877D01*
X11062Y127919D01*
X11145Y127965D01*
X11226Y128014D01*
X11305Y128066D01*
X11382Y128121D01*
X11456Y128180D01*
X11528Y128241D01*
X11598Y128305D01*
X11665Y128372D01*
X11729Y128442D01*
X11790Y128514D01*
X11849Y128588D01*
X11904Y128665D01*
X11956Y128744D01*
X12005Y128825D01*
X12051Y128908D01*
X12093Y128993D01*
X12132Y129079D01*
X12167Y129167D01*
X12199Y129256D01*
X12227Y129346D01*
X12252Y129438D01*
X12273Y129530D01*
X12290Y129623D01*
X12303Y129717D01*
X12312Y129811D01*
X12318Y129905D01*
X12320Y130000D01*
X12319Y130000D02*
X12317Y130108D01*
X12311Y130217D01*
X12301Y130325D01*
X12288Y130432D01*
X12270Y130539D01*
X12249Y130646D01*
X12224Y130751D01*
X12195Y130856D01*
X12163Y130959D01*
X12126Y131061D01*
X12086Y131162D01*
X12043Y131261D01*
X11996Y131359D01*
X11945Y131455D01*
X11891Y131549D01*
X11834Y131641D01*
X11773Y131731D01*
X11709Y131819D01*
X11643Y131904D01*
X11573Y131987D01*
X11500Y132067D01*
X11424Y132145D01*
X11346Y132220D01*
X11265Y132292D01*
X11181Y132361D01*
X11095Y132427D01*
X11007Y132490D01*
X10916Y132549D01*
X10824Y132606D01*
X10729Y132659D01*
X10632Y132708D01*
X10534Y132754D01*
X10435Y132797D01*
X10333Y132836D01*
X10231Y132871D01*
X8142Y128433D02*
X8211Y128364D01*
X8282Y128298D01*
X8355Y128234D01*
X8431Y128173D01*
X8510Y128115D01*
X8590Y128061D01*
X8673Y128009D01*
X8757Y127961D01*
X8843Y127915D01*
X8931Y127874D01*
X9021Y127835D01*
X9112Y127800D01*
X9204Y127769D01*
X9297Y127741D01*
X9391Y127717D01*
X9486Y127697D01*
X9582Y127680D01*
X9679Y127667D01*
X9776Y127658D01*
X9873Y127652D01*
X9970Y127650D01*
X8142Y128434D02*
X2921Y132872D01*
X2921Y127651D01*
X2921Y121117D02*
X12319Y124250D01*
X12319Y117984D02*
X2921Y121117D01*
X-2921Y134593D02*
X-12319Y134593D01*
X-12319Y135637D02*
X-12319Y133549D01*
X-2921Y133549D02*
X-2921Y135637D01*
X-2921Y129584D02*
X-12319Y129584D01*
X-12319Y124363D02*
X-2921Y129584D01*
X-2921Y124363D02*
X-12319Y124363D01*
X10231Y92016D02*
X12319Y89405D01*
X2921Y89405D01*
X2921Y92016D02*
X2921Y86794D01*
X9970Y77650D02*
X10065Y77652D01*
X10159Y77658D01*
X10253Y77667D01*
X10347Y77680D01*
X10440Y77697D01*
X10532Y77718D01*
X10624Y77743D01*
X10714Y77771D01*
X10803Y77803D01*
X10891Y77838D01*
X10977Y77877D01*
X11062Y77919D01*
X11145Y77965D01*
X11226Y78014D01*
X11305Y78066D01*
X11382Y78121D01*
X11456Y78180D01*
X11528Y78241D01*
X11598Y78305D01*
X11665Y78372D01*
X11729Y78442D01*
X11790Y78514D01*
X11849Y78588D01*
X11904Y78665D01*
X11956Y78744D01*
X12005Y78825D01*
X12051Y78908D01*
X12093Y78993D01*
X12132Y79079D01*
X12167Y79167D01*
X12199Y79256D01*
X12227Y79346D01*
X12252Y79438D01*
X12273Y79530D01*
X12290Y79623D01*
X12303Y79717D01*
X12312Y79811D01*
X12318Y79905D01*
X12320Y80000D01*
X12319Y80000D02*
X12317Y80108D01*
X12311Y80217D01*
X12301Y80325D01*
X12288Y80432D01*
X12270Y80539D01*
X12249Y80646D01*
X12224Y80751D01*
X12195Y80856D01*
X12163Y80959D01*
X12126Y81061D01*
X12086Y81162D01*
X12043Y81261D01*
X11996Y81359D01*
X11945Y81455D01*
X11891Y81549D01*
X11834Y81641D01*
X11773Y81731D01*
X11709Y81819D01*
X11643Y81904D01*
X11573Y81987D01*
X11500Y82067D01*
X11424Y82145D01*
X11346Y82220D01*
X11265Y82292D01*
X11181Y82361D01*
X11095Y82427D01*
X11007Y82490D01*
X10916Y82549D01*
X10824Y82606D01*
X10729Y82659D01*
X10632Y82708D01*
X10534Y82754D01*
X10435Y82797D01*
X10333Y82836D01*
X10231Y82871D01*
X8142Y78433D02*
X8211Y78364D01*
X8282Y78298D01*
X8355Y78234D01*
X8431Y78173D01*
X8510Y78115D01*
X8590Y78061D01*
X8673Y78009D01*
X8757Y77961D01*
X8843Y77915D01*
X8931Y77874D01*
X9021Y77835D01*
X9112Y77800D01*
X9204Y77769D01*
X9297Y77741D01*
X9391Y77717D01*
X9486Y77697D01*
X9582Y77680D01*
X9679Y77667D01*
X9776Y77658D01*
X9873Y77652D01*
X9970Y77650D01*
X8142Y78434D02*
X2921Y82872D01*
X2921Y77651D01*
X2921Y71117D02*
X12319Y74250D01*
X12319Y67984D02*
X2921Y71117D01*
X-5532Y91755D02*
X-9708Y91755D01*
X-5532Y91755D02*
X-5431Y91753D01*
X-5330Y91747D01*
X-5229Y91737D01*
X-5129Y91724D01*
X-5029Y91706D01*
X-4930Y91685D01*
X-4832Y91659D01*
X-4735Y91630D01*
X-4639Y91598D01*
X-4545Y91561D01*
X-4452Y91521D01*
X-4360Y91477D01*
X-4271Y91430D01*
X-4183Y91379D01*
X-4097Y91325D01*
X-4014Y91268D01*
X-3932Y91208D01*
X-3854Y91144D01*
X-3777Y91078D01*
X-3704Y91008D01*
X-3633Y90936D01*
X-3565Y90861D01*
X-3500Y90783D01*
X-3438Y90703D01*
X-3379Y90621D01*
X-3323Y90536D01*
X-3271Y90449D01*
X-3222Y90361D01*
X-3176Y90270D01*
X-3135Y90178D01*
X-3096Y90084D01*
X-3062Y89989D01*
X-3031Y89893D01*
X-3004Y89795D01*
X-2980Y89697D01*
X-2961Y89597D01*
X-2945Y89497D01*
X-2933Y89397D01*
X-2925Y89296D01*
X-2921Y89195D01*
X-2921Y89093D01*
X-2925Y88992D01*
X-2933Y88891D01*
X-2945Y88791D01*
X-2961Y88691D01*
X-2980Y88591D01*
X-3004Y88493D01*
X-3031Y88395D01*
X-3062Y88299D01*
X-3096Y88204D01*
X-3135Y88110D01*
X-3176Y88018D01*
X-3222Y87927D01*
X-3271Y87838D01*
X-3323Y87752D01*
X-3379Y87667D01*
X-3438Y87585D01*
X-3500Y87505D01*
X-3565Y87427D01*
X-3633Y87352D01*
X-3704Y87280D01*
X-3777Y87210D01*
X-3854Y87144D01*
X-3932Y87080D01*
X-4014Y87020D01*
X-4097Y86963D01*
X-4183Y86909D01*
X-4271Y86858D01*
X-4360Y86811D01*
X-4452Y86767D01*
X-4545Y86727D01*
X-4639Y86690D01*
X-4735Y86658D01*
X-4832Y86629D01*
X-4930Y86603D01*
X-5029Y86582D01*
X-5129Y86564D01*
X-5229Y86551D01*
X-5330Y86541D01*
X-5431Y86535D01*
X-5532Y86533D01*
X-9708Y86533D01*
X-9809Y86535D01*
X-9910Y86541D01*
X-10011Y86551D01*
X-10111Y86564D01*
X-10211Y86582D01*
X-10310Y86603D01*
X-10408Y86629D01*
X-10505Y86658D01*
X-10601Y86690D01*
X-10695Y86727D01*
X-10788Y86767D01*
X-10880Y86811D01*
X-10969Y86858D01*
X-11057Y86909D01*
X-11143Y86963D01*
X-11226Y87020D01*
X-11308Y87080D01*
X-11386Y87144D01*
X-11463Y87210D01*
X-11536Y87280D01*
X-11607Y87352D01*
X-11675Y87427D01*
X-11740Y87505D01*
X-11802Y87585D01*
X-11861Y87667D01*
X-11917Y87752D01*
X-11969Y87839D01*
X-12018Y87927D01*
X-12064Y88018D01*
X-12105Y88110D01*
X-12144Y88204D01*
X-12178Y88299D01*
X-12209Y88395D01*
X-12236Y88493D01*
X-12260Y88591D01*
X-12279Y88691D01*
X-12295Y88791D01*
X-12307Y88891D01*
X-12315Y88992D01*
X-12319Y89093D01*
X-12319Y89195D01*
X-12315Y89296D01*
X-12307Y89397D01*
X-12295Y89497D01*
X-12279Y89597D01*
X-12260Y89697D01*
X-12236Y89795D01*
X-12209Y89893D01*
X-12178Y89989D01*
X-12144Y90084D01*
X-12105Y90178D01*
X-12064Y90270D01*
X-12018Y90361D01*
X-11969Y90450D01*
X-11917Y90536D01*
X-11861Y90621D01*
X-11802Y90703D01*
X-11740Y90783D01*
X-11675Y90861D01*
X-11607Y90936D01*
X-11536Y91008D01*
X-11463Y91078D01*
X-11386Y91144D01*
X-11308Y91208D01*
X-11226Y91268D01*
X-11143Y91325D01*
X-11057Y91379D01*
X-10969Y91430D01*
X-10880Y91477D01*
X-10788Y91521D01*
X-10695Y91561D01*
X-10601Y91598D01*
X-10505Y91630D01*
X-10408Y91659D01*
X-10310Y91685D01*
X-10211Y91706D01*
X-10111Y91724D01*
X-10011Y91737D01*
X-9910Y91747D01*
X-9809Y91753D01*
X-9708Y91755D01*
X-9708Y82306D02*
X-2921Y82306D01*
X-9708Y82306D02*
X-9809Y82304D01*
X-9910Y82298D01*
X-10011Y82288D01*
X-10111Y82275D01*
X-10211Y82257D01*
X-10310Y82236D01*
X-10408Y82210D01*
X-10505Y82181D01*
X-10601Y82149D01*
X-10695Y82112D01*
X-10788Y82072D01*
X-10880Y82028D01*
X-10969Y81981D01*
X-11057Y81930D01*
X-11143Y81876D01*
X-11226Y81819D01*
X-11308Y81759D01*
X-11386Y81695D01*
X-11463Y81629D01*
X-11536Y81559D01*
X-11607Y81487D01*
X-11675Y81412D01*
X-11740Y81334D01*
X-11802Y81254D01*
X-11861Y81172D01*
X-11917Y81087D01*
X-11969Y81001D01*
X-12018Y80912D01*
X-12064Y80821D01*
X-12105Y80729D01*
X-12144Y80635D01*
X-12178Y80540D01*
X-12209Y80444D01*
X-12236Y80346D01*
X-12260Y80248D01*
X-12279Y80148D01*
X-12295Y80048D01*
X-12307Y79948D01*
X-12315Y79847D01*
X-12319Y79746D01*
X-12319Y79644D01*
X-12315Y79543D01*
X-12307Y79442D01*
X-12295Y79342D01*
X-12279Y79242D01*
X-12260Y79142D01*
X-12236Y79044D01*
X-12209Y78946D01*
X-12178Y78850D01*
X-12144Y78755D01*
X-12105Y78661D01*
X-12064Y78569D01*
X-12018Y78478D01*
X-11969Y78390D01*
X-11917Y78303D01*
X-11861Y78218D01*
X-11802Y78136D01*
X-11740Y78056D01*
X-11675Y77978D01*
X-11607Y77903D01*
X-11536Y77831D01*
X-11463Y77761D01*
X-11386Y77695D01*
X-11308Y77631D01*
X-11226Y77571D01*
X-11143Y77514D01*
X-11057Y77460D01*
X-10969Y77409D01*
X-10880Y77362D01*
X-10788Y77318D01*
X-10695Y77278D01*
X-10601Y77241D01*
X-10505Y77209D01*
X-10408Y77180D01*
X-10310Y77154D01*
X-10211Y77133D01*
X-10111Y77115D01*
X-10011Y77102D01*
X-9910Y77092D01*
X-9809Y77086D01*
X-9708Y77084D01*
X-9708Y77085D02*
X-2921Y77085D01*
X-2921Y70856D02*
X-12319Y70856D01*
X-2921Y73467D02*
X-2921Y68245D01*
X2921Y184311D02*
X2921Y187444D01*
X2921Y184311D02*
X2923Y184222D01*
X2929Y184134D01*
X2938Y184046D01*
X2951Y183958D01*
X2968Y183871D01*
X2988Y183785D01*
X3013Y183700D01*
X3040Y183615D01*
X3072Y183532D01*
X3106Y183451D01*
X3145Y183371D01*
X3186Y183293D01*
X3231Y183216D01*
X3279Y183142D01*
X3330Y183069D01*
X3384Y182999D01*
X3442Y182932D01*
X3502Y182866D01*
X3564Y182804D01*
X3630Y182744D01*
X3697Y182686D01*
X3767Y182632D01*
X3840Y182581D01*
X3914Y182533D01*
X3991Y182488D01*
X4069Y182447D01*
X4149Y182408D01*
X4230Y182374D01*
X4313Y182342D01*
X4398Y182315D01*
X4483Y182290D01*
X4569Y182270D01*
X4656Y182253D01*
X4744Y182240D01*
X4832Y182231D01*
X4920Y182225D01*
X5009Y182223D01*
X5009Y182222D02*
X6054Y182222D01*
X6054Y182223D02*
X6143Y182225D01*
X6231Y182231D01*
X6319Y182240D01*
X6407Y182253D01*
X6494Y182270D01*
X6580Y182290D01*
X6665Y182315D01*
X6750Y182342D01*
X6833Y182374D01*
X6914Y182408D01*
X6994Y182447D01*
X7072Y182488D01*
X7149Y182533D01*
X7223Y182581D01*
X7296Y182632D01*
X7366Y182686D01*
X7433Y182744D01*
X7499Y182804D01*
X7561Y182866D01*
X7621Y182932D01*
X7679Y182999D01*
X7733Y183069D01*
X7784Y183142D01*
X7832Y183216D01*
X7877Y183293D01*
X7918Y183371D01*
X7957Y183451D01*
X7991Y183532D01*
X8023Y183615D01*
X8050Y183700D01*
X8075Y183785D01*
X8095Y183871D01*
X8112Y183958D01*
X8125Y184046D01*
X8134Y184134D01*
X8140Y184222D01*
X8142Y184311D01*
X8142Y187444D01*
X12319Y187444D01*
X12319Y182222D01*
X12319Y178822D02*
X2921Y175689D01*
X12319Y172556D01*
X-2921Y184593D02*
X-12319Y184593D01*
X-12319Y185637D02*
X-12319Y183549D01*
X-2921Y183549D02*
X-2921Y185637D01*
X-2921Y179584D02*
X-12319Y179584D01*
X-12319Y174363D02*
X-2921Y179584D01*
X-2921Y174363D02*
X-12319Y174363D01*
X522Y38709D02*
X522Y37143D01*
X-4699Y37143D01*
X-4699Y40276D01*
X-4697Y40365D01*
X-4691Y40453D01*
X-4682Y40541D01*
X-4669Y40629D01*
X-4652Y40716D01*
X-4632Y40802D01*
X-4607Y40887D01*
X-4580Y40972D01*
X-4548Y41055D01*
X-4514Y41136D01*
X-4475Y41216D01*
X-4434Y41294D01*
X-4389Y41371D01*
X-4341Y41445D01*
X-4290Y41518D01*
X-4236Y41588D01*
X-4178Y41655D01*
X-4118Y41721D01*
X-4056Y41783D01*
X-3990Y41843D01*
X-3923Y41901D01*
X-3853Y41955D01*
X-3780Y42006D01*
X-3706Y42054D01*
X-3629Y42099D01*
X-3551Y42140D01*
X-3471Y42179D01*
X-3390Y42213D01*
X-3307Y42245D01*
X-3222Y42272D01*
X-3137Y42297D01*
X-3051Y42317D01*
X-2964Y42334D01*
X-2876Y42347D01*
X-2788Y42356D01*
X-2700Y42362D01*
X-2611Y42364D01*
X2611Y42364D01*
X2702Y42362D01*
X2793Y42356D01*
X2884Y42346D01*
X2974Y42332D01*
X3063Y42315D01*
X3151Y42293D01*
X3239Y42267D01*
X3325Y42238D01*
X3410Y42205D01*
X3493Y42168D01*
X3575Y42128D01*
X3655Y42084D01*
X3733Y42037D01*
X3809Y41986D01*
X3882Y41933D01*
X3953Y41876D01*
X4022Y41815D01*
X4087Y41752D01*
X4150Y41687D01*
X4210Y41618D01*
X4268Y41547D01*
X4321Y41474D01*
X4372Y41398D01*
X4419Y41320D01*
X4463Y41240D01*
X4503Y41158D01*
X4540Y41075D01*
X4573Y40990D01*
X4602Y40904D01*
X4628Y40816D01*
X4650Y40728D01*
X4667Y40639D01*
X4681Y40549D01*
X4691Y40458D01*
X4697Y40367D01*
X4699Y40276D01*
X4699Y37143D01*
X4699Y32611D02*
X-4699Y32611D01*
X-4699Y27389D02*
X4699Y32611D01*
X4699Y27389D02*
X-4699Y27389D01*
X-4699Y22857D02*
X4699Y22857D01*
X4699Y20246D01*
X4697Y20146D01*
X4691Y20046D01*
X4682Y19947D01*
X4668Y19847D01*
X4651Y19749D01*
X4630Y19651D01*
X4606Y19554D01*
X4577Y19458D01*
X4545Y19363D01*
X4510Y19270D01*
X4471Y19178D01*
X4428Y19087D01*
X4382Y18999D01*
X4332Y18912D01*
X4280Y18827D01*
X4224Y18744D01*
X4165Y18663D01*
X4102Y18585D01*
X4037Y18509D01*
X3969Y18435D01*
X3899Y18365D01*
X3825Y18297D01*
X3749Y18232D01*
X3671Y18169D01*
X3590Y18110D01*
X3507Y18054D01*
X3422Y18002D01*
X3335Y17952D01*
X3247Y17906D01*
X3156Y17863D01*
X3064Y17824D01*
X2971Y17789D01*
X2876Y17757D01*
X2780Y17728D01*
X2683Y17704D01*
X2585Y17683D01*
X2487Y17666D01*
X2387Y17652D01*
X2288Y17643D01*
X2188Y17637D01*
X2088Y17635D01*
X2088Y17636D02*
X-2088Y17636D01*
X-2088Y17635D02*
X-2188Y17637D01*
X-2288Y17643D01*
X-2387Y17652D01*
X-2487Y17666D01*
X-2585Y17683D01*
X-2683Y17704D01*
X-2780Y17728D01*
X-2876Y17757D01*
X-2971Y17789D01*
X-3064Y17824D01*
X-3156Y17863D01*
X-3247Y17906D01*
X-3335Y17952D01*
X-3422Y18002D01*
X-3507Y18054D01*
X-3590Y18110D01*
X-3671Y18169D01*
X-3749Y18232D01*
X-3825Y18297D01*
X-3899Y18365D01*
X-3969Y18435D01*
X-4037Y18509D01*
X-4102Y18585D01*
X-4165Y18663D01*
X-4224Y18744D01*
X-4280Y18827D01*
X-4332Y18912D01*
X-4382Y18999D01*
X-4428Y19087D01*
X-4471Y19178D01*
X-4510Y19270D01*
X-4545Y19363D01*
X-4577Y19458D01*
X-4606Y19554D01*
X-4630Y19651D01*
X-4651Y19749D01*
X-4668Y19847D01*
X-4682Y19947D01*
X-4691Y20046D01*
X-4697Y20146D01*
X-4699Y20246D01*
X-4699Y22857D01*
D11*
X89588Y-65842D02*
X89687Y-65840D01*
X89787Y-65834D01*
X89886Y-65825D01*
X89984Y-65812D01*
X90082Y-65795D01*
X90180Y-65774D01*
X90276Y-65749D01*
X90371Y-65721D01*
X90465Y-65689D01*
X90558Y-65654D01*
X90650Y-65615D01*
X90740Y-65572D01*
X90828Y-65527D01*
X90915Y-65477D01*
X90999Y-65425D01*
X91082Y-65369D01*
X91162Y-65311D01*
X91240Y-65249D01*
X91315Y-65184D01*
X91388Y-65116D01*
X91458Y-65046D01*
X91526Y-64973D01*
X91591Y-64898D01*
X91653Y-64820D01*
X91711Y-64740D01*
X91767Y-64657D01*
X91819Y-64573D01*
X91869Y-64486D01*
X91914Y-64398D01*
X91957Y-64308D01*
X91996Y-64216D01*
X92031Y-64123D01*
X92063Y-64029D01*
X92091Y-63934D01*
X92116Y-63838D01*
X92137Y-63740D01*
X92154Y-63642D01*
X92167Y-63544D01*
X92176Y-63445D01*
X92182Y-63345D01*
X92184Y-63246D01*
X89588Y-65842D02*
X89444Y-65840D01*
X89299Y-65834D01*
X89155Y-65825D01*
X89012Y-65812D01*
X88868Y-65795D01*
X88725Y-65774D01*
X88583Y-65749D01*
X88442Y-65721D01*
X88301Y-65689D01*
X88161Y-65653D01*
X88022Y-65614D01*
X87884Y-65571D01*
X87748Y-65524D01*
X87612Y-65474D01*
X87478Y-65420D01*
X87346Y-65363D01*
X87215Y-65302D01*
X87086Y-65238D01*
X86958Y-65170D01*
X86832Y-65100D01*
X86708Y-65025D01*
X86587Y-64948D01*
X86467Y-64867D01*
X86349Y-64784D01*
X86234Y-64697D01*
X86121Y-64607D01*
X86010Y-64514D01*
X85902Y-64419D01*
X85796Y-64320D01*
X85693Y-64219D01*
X86018Y-56754D02*
X86020Y-56655D01*
X86026Y-56555D01*
X86035Y-56456D01*
X86048Y-56358D01*
X86065Y-56260D01*
X86086Y-56162D01*
X86111Y-56066D01*
X86139Y-55971D01*
X86171Y-55877D01*
X86206Y-55784D01*
X86245Y-55692D01*
X86288Y-55602D01*
X86333Y-55514D01*
X86383Y-55427D01*
X86435Y-55343D01*
X86491Y-55260D01*
X86549Y-55180D01*
X86611Y-55102D01*
X86676Y-55027D01*
X86744Y-54954D01*
X86814Y-54884D01*
X86887Y-54816D01*
X86962Y-54751D01*
X87040Y-54689D01*
X87120Y-54631D01*
X87203Y-54575D01*
X87287Y-54523D01*
X87374Y-54473D01*
X87462Y-54428D01*
X87552Y-54385D01*
X87644Y-54346D01*
X87737Y-54311D01*
X87831Y-54279D01*
X87926Y-54251D01*
X88022Y-54226D01*
X88120Y-54205D01*
X88218Y-54188D01*
X88316Y-54175D01*
X88415Y-54166D01*
X88515Y-54160D01*
X88614Y-54158D01*
X88750Y-54160D01*
X88886Y-54166D01*
X89022Y-54175D01*
X89158Y-54188D01*
X89293Y-54206D01*
X89427Y-54226D01*
X89561Y-54251D01*
X89695Y-54279D01*
X89827Y-54312D01*
X89958Y-54347D01*
X90089Y-54387D01*
X90218Y-54430D01*
X90346Y-54476D01*
X90472Y-54527D01*
X90598Y-54580D01*
X90721Y-54638D01*
X90843Y-54698D01*
X90963Y-54762D01*
X91082Y-54830D01*
X91198Y-54900D01*
X91312Y-54974D01*
X91425Y-55051D01*
X91535Y-55132D01*
X87316Y-59026D02*
X87230Y-58973D01*
X87146Y-58916D01*
X87064Y-58857D01*
X86984Y-58794D01*
X86907Y-58728D01*
X86832Y-58660D01*
X86760Y-58588D01*
X86691Y-58514D01*
X86625Y-58437D01*
X86562Y-58358D01*
X86502Y-58276D01*
X86445Y-58192D01*
X86391Y-58106D01*
X86341Y-58018D01*
X86294Y-57928D01*
X86250Y-57837D01*
X86211Y-57743D01*
X86174Y-57649D01*
X86142Y-57553D01*
X86113Y-57455D01*
X86088Y-57357D01*
X86067Y-57258D01*
X86049Y-57158D01*
X86036Y-57058D01*
X86026Y-56957D01*
X86020Y-56855D01*
X86018Y-56754D01*
X90886Y-60974D02*
X90972Y-61027D01*
X91056Y-61084D01*
X91138Y-61143D01*
X91218Y-61206D01*
X91295Y-61272D01*
X91370Y-61340D01*
X91442Y-61412D01*
X91511Y-61486D01*
X91577Y-61563D01*
X91640Y-61642D01*
X91700Y-61724D01*
X91757Y-61808D01*
X91811Y-61894D01*
X91861Y-61982D01*
X91908Y-62072D01*
X91952Y-62163D01*
X91991Y-62257D01*
X92028Y-62351D01*
X92060Y-62447D01*
X92089Y-62545D01*
X92114Y-62643D01*
X92135Y-62742D01*
X92153Y-62842D01*
X92166Y-62942D01*
X92176Y-63043D01*
X92182Y-63145D01*
X92184Y-63246D01*
X90886Y-60974D02*
X87316Y-59026D01*
X97236Y-58053D02*
X97236Y-65842D01*
X97236Y-58053D02*
X103078Y-58053D01*
X103165Y-58055D01*
X103253Y-58061D01*
X103339Y-58071D01*
X103426Y-58084D01*
X103511Y-58102D01*
X103596Y-58123D01*
X103680Y-58148D01*
X103762Y-58177D01*
X103843Y-58210D01*
X103923Y-58246D01*
X104001Y-58285D01*
X104077Y-58329D01*
X104151Y-58375D01*
X104222Y-58425D01*
X104292Y-58478D01*
X104359Y-58534D01*
X104423Y-58593D01*
X104485Y-58655D01*
X104544Y-58719D01*
X104600Y-58786D01*
X104653Y-58856D01*
X104703Y-58927D01*
X104749Y-59001D01*
X104793Y-59077D01*
X104832Y-59155D01*
X104868Y-59235D01*
X104901Y-59316D01*
X104930Y-59398D01*
X104955Y-59482D01*
X104976Y-59567D01*
X104994Y-59652D01*
X105007Y-59739D01*
X105017Y-59825D01*
X105023Y-59913D01*
X105025Y-60000D01*
X105025Y-65842D01*
X101131Y-65842D02*
X101131Y-58053D01*
X112558Y-61298D02*
X115479Y-61298D01*
X112558Y-61298D02*
X112464Y-61300D01*
X112370Y-61306D01*
X112277Y-61315D01*
X112184Y-61329D01*
X112092Y-61346D01*
X112000Y-61368D01*
X111910Y-61392D01*
X111820Y-61421D01*
X111732Y-61453D01*
X111645Y-61489D01*
X111560Y-61529D01*
X111477Y-61572D01*
X111395Y-61618D01*
X111315Y-61668D01*
X111238Y-61721D01*
X111163Y-61777D01*
X111090Y-61836D01*
X111019Y-61898D01*
X110951Y-61963D01*
X110886Y-62031D01*
X110824Y-62102D01*
X110765Y-62175D01*
X110709Y-62250D01*
X110656Y-62327D01*
X110606Y-62407D01*
X110560Y-62489D01*
X110517Y-62572D01*
X110477Y-62657D01*
X110441Y-62744D01*
X110409Y-62832D01*
X110380Y-62922D01*
X110356Y-63012D01*
X110334Y-63104D01*
X110317Y-63196D01*
X110303Y-63289D01*
X110294Y-63382D01*
X110288Y-63476D01*
X110286Y-63570D01*
X110288Y-63664D01*
X110294Y-63758D01*
X110303Y-63851D01*
X110317Y-63944D01*
X110334Y-64036D01*
X110356Y-64128D01*
X110380Y-64218D01*
X110409Y-64308D01*
X110441Y-64396D01*
X110477Y-64483D01*
X110517Y-64568D01*
X110560Y-64651D01*
X110606Y-64733D01*
X110656Y-64813D01*
X110709Y-64890D01*
X110765Y-64965D01*
X110824Y-65038D01*
X110886Y-65109D01*
X110951Y-65177D01*
X111019Y-65242D01*
X111090Y-65304D01*
X111163Y-65363D01*
X111238Y-65419D01*
X111315Y-65472D01*
X111395Y-65522D01*
X111477Y-65568D01*
X111560Y-65611D01*
X111645Y-65651D01*
X111732Y-65687D01*
X111820Y-65719D01*
X111910Y-65748D01*
X112000Y-65772D01*
X112092Y-65794D01*
X112184Y-65811D01*
X112277Y-65825D01*
X112370Y-65834D01*
X112464Y-65840D01*
X112558Y-65842D01*
X115479Y-65842D01*
X115479Y-60000D01*
X115477Y-59913D01*
X115471Y-59825D01*
X115461Y-59739D01*
X115448Y-59652D01*
X115430Y-59567D01*
X115409Y-59482D01*
X115384Y-59398D01*
X115355Y-59316D01*
X115322Y-59235D01*
X115286Y-59155D01*
X115247Y-59077D01*
X115203Y-59001D01*
X115157Y-58927D01*
X115107Y-58856D01*
X115054Y-58786D01*
X114998Y-58719D01*
X114939Y-58655D01*
X114877Y-58593D01*
X114813Y-58534D01*
X114746Y-58478D01*
X114676Y-58425D01*
X114605Y-58375D01*
X114531Y-58329D01*
X114455Y-58285D01*
X114377Y-58246D01*
X114297Y-58210D01*
X114216Y-58177D01*
X114134Y-58148D01*
X114050Y-58123D01*
X113965Y-58102D01*
X113880Y-58084D01*
X113793Y-58071D01*
X113707Y-58061D01*
X113619Y-58055D01*
X113532Y-58053D01*
X110935Y-58053D01*
X121080Y-58053D02*
X121080Y-65842D01*
X121080Y-58053D02*
X124974Y-58053D01*
X124974Y-59351D01*
X127666Y-58053D02*
X131561Y-58053D01*
X128964Y-54158D02*
X128964Y-63895D01*
X128966Y-63982D01*
X128972Y-64070D01*
X128982Y-64156D01*
X128995Y-64243D01*
X129013Y-64328D01*
X129034Y-64413D01*
X129059Y-64497D01*
X129088Y-64579D01*
X129121Y-64660D01*
X129157Y-64740D01*
X129196Y-64818D01*
X129240Y-64894D01*
X129286Y-64968D01*
X129336Y-65039D01*
X129389Y-65109D01*
X129445Y-65176D01*
X129504Y-65240D01*
X129566Y-65302D01*
X129630Y-65361D01*
X129697Y-65417D01*
X129767Y-65470D01*
X129838Y-65520D01*
X129912Y-65566D01*
X129988Y-65610D01*
X130066Y-65649D01*
X130146Y-65685D01*
X130227Y-65718D01*
X130309Y-65747D01*
X130393Y-65772D01*
X130478Y-65793D01*
X130563Y-65811D01*
X130650Y-65824D01*
X130736Y-65834D01*
X130824Y-65840D01*
X130911Y-65842D01*
X131561Y-65842D01*
X142575Y-65842D02*
X142575Y-54158D01*
X146470Y-60649D01*
X150364Y-54158D01*
X150364Y-65842D01*
X155614Y-65842D02*
X155614Y-58053D01*
X155289Y-54807D02*
X155289Y-54158D01*
X155938Y-54158D01*
X155938Y-54807D01*
X155289Y-54807D01*
X160704Y-58053D02*
X160704Y-65842D01*
X160704Y-58053D02*
X164598Y-58053D01*
X164598Y-59351D01*
X168705Y-58053D02*
X168705Y-65842D01*
X168705Y-58053D02*
X172599Y-58053D01*
X172599Y-59351D01*
X176258Y-60649D02*
X176258Y-63246D01*
X176259Y-60649D02*
X176261Y-60548D01*
X176267Y-60448D01*
X176277Y-60348D01*
X176290Y-60248D01*
X176308Y-60149D01*
X176329Y-60050D01*
X176354Y-59953D01*
X176383Y-59856D01*
X176416Y-59761D01*
X176452Y-59667D01*
X176492Y-59575D01*
X176535Y-59484D01*
X176582Y-59395D01*
X176632Y-59308D01*
X176686Y-59222D01*
X176743Y-59139D01*
X176803Y-59059D01*
X176866Y-58980D01*
X176933Y-58904D01*
X177002Y-58831D01*
X177074Y-58761D01*
X177148Y-58693D01*
X177225Y-58628D01*
X177305Y-58567D01*
X177387Y-58508D01*
X177471Y-58453D01*
X177557Y-58401D01*
X177645Y-58352D01*
X177735Y-58307D01*
X177827Y-58265D01*
X177920Y-58227D01*
X178015Y-58193D01*
X178110Y-58162D01*
X178207Y-58135D01*
X178305Y-58112D01*
X178404Y-58092D01*
X178504Y-58077D01*
X178604Y-58065D01*
X178704Y-58057D01*
X178805Y-58053D01*
X178905Y-58053D01*
X179006Y-58057D01*
X179106Y-58065D01*
X179206Y-58077D01*
X179306Y-58092D01*
X179405Y-58112D01*
X179503Y-58135D01*
X179600Y-58162D01*
X179695Y-58193D01*
X179790Y-58227D01*
X179883Y-58265D01*
X179975Y-58307D01*
X180065Y-58352D01*
X180153Y-58401D01*
X180239Y-58453D01*
X180323Y-58508D01*
X180405Y-58567D01*
X180485Y-58628D01*
X180562Y-58693D01*
X180636Y-58761D01*
X180708Y-58831D01*
X180777Y-58904D01*
X180844Y-58980D01*
X180907Y-59059D01*
X180967Y-59139D01*
X181024Y-59222D01*
X181078Y-59308D01*
X181128Y-59395D01*
X181175Y-59484D01*
X181218Y-59575D01*
X181258Y-59667D01*
X181294Y-59761D01*
X181327Y-59856D01*
X181356Y-59953D01*
X181381Y-60050D01*
X181402Y-60149D01*
X181420Y-60248D01*
X181433Y-60348D01*
X181443Y-60448D01*
X181449Y-60548D01*
X181451Y-60649D01*
X181451Y-63246D01*
X181449Y-63347D01*
X181443Y-63447D01*
X181433Y-63547D01*
X181420Y-63647D01*
X181402Y-63746D01*
X181381Y-63845D01*
X181356Y-63942D01*
X181327Y-64039D01*
X181294Y-64134D01*
X181258Y-64228D01*
X181218Y-64320D01*
X181175Y-64411D01*
X181128Y-64500D01*
X181078Y-64587D01*
X181024Y-64673D01*
X180967Y-64756D01*
X180907Y-64836D01*
X180844Y-64915D01*
X180777Y-64991D01*
X180708Y-65064D01*
X180636Y-65134D01*
X180562Y-65202D01*
X180485Y-65267D01*
X180405Y-65328D01*
X180323Y-65387D01*
X180239Y-65442D01*
X180153Y-65494D01*
X180065Y-65543D01*
X179975Y-65588D01*
X179883Y-65630D01*
X179790Y-65668D01*
X179695Y-65702D01*
X179600Y-65733D01*
X179503Y-65760D01*
X179405Y-65783D01*
X179306Y-65803D01*
X179206Y-65818D01*
X179106Y-65830D01*
X179006Y-65838D01*
X178905Y-65842D01*
X178805Y-65842D01*
X178704Y-65838D01*
X178604Y-65830D01*
X178504Y-65818D01*
X178404Y-65803D01*
X178305Y-65783D01*
X178207Y-65760D01*
X178110Y-65733D01*
X178015Y-65702D01*
X177920Y-65668D01*
X177827Y-65630D01*
X177735Y-65588D01*
X177645Y-65543D01*
X177557Y-65494D01*
X177471Y-65442D01*
X177387Y-65387D01*
X177305Y-65328D01*
X177225Y-65267D01*
X177148Y-65202D01*
X177074Y-65134D01*
X177002Y-65064D01*
X176933Y-64991D01*
X176866Y-64915D01*
X176803Y-64836D01*
X176743Y-64756D01*
X176686Y-64673D01*
X176632Y-64587D01*
X176582Y-64500D01*
X176535Y-64411D01*
X176492Y-64320D01*
X176452Y-64228D01*
X176416Y-64134D01*
X176383Y-64039D01*
X176354Y-63942D01*
X176329Y-63845D01*
X176308Y-63746D01*
X176290Y-63647D01*
X176277Y-63547D01*
X176267Y-63447D01*
X176261Y-63347D01*
X176259Y-63246D01*
X186612Y-65842D02*
X186612Y-58053D01*
X190506Y-58053D01*
X190506Y-59351D01*
X200868Y-54158D02*
X200868Y-65842D01*
X204763Y-60649D02*
X200868Y-54158D01*
X204763Y-60649D02*
X208657Y-54158D01*
X208657Y-65842D01*
X216653Y-65842D02*
X219250Y-65842D01*
X216653Y-65842D02*
X216554Y-65840D01*
X216454Y-65834D01*
X216355Y-65825D01*
X216257Y-65812D01*
X216159Y-65795D01*
X216061Y-65774D01*
X215965Y-65749D01*
X215870Y-65721D01*
X215776Y-65689D01*
X215683Y-65654D01*
X215591Y-65615D01*
X215501Y-65572D01*
X215413Y-65527D01*
X215326Y-65477D01*
X215242Y-65425D01*
X215159Y-65369D01*
X215079Y-65311D01*
X215001Y-65249D01*
X214926Y-65184D01*
X214853Y-65116D01*
X214783Y-65046D01*
X214715Y-64973D01*
X214650Y-64898D01*
X214588Y-64820D01*
X214530Y-64740D01*
X214474Y-64657D01*
X214422Y-64573D01*
X214372Y-64486D01*
X214327Y-64398D01*
X214284Y-64308D01*
X214245Y-64216D01*
X214210Y-64123D01*
X214178Y-64029D01*
X214150Y-63934D01*
X214125Y-63838D01*
X214104Y-63740D01*
X214087Y-63642D01*
X214074Y-63544D01*
X214065Y-63445D01*
X214059Y-63345D01*
X214057Y-63246D01*
X214057Y-56754D01*
X214056Y-56754D02*
X214058Y-56655D01*
X214064Y-56555D01*
X214073Y-56456D01*
X214086Y-56358D01*
X214104Y-56260D01*
X214124Y-56162D01*
X214149Y-56066D01*
X214177Y-55970D01*
X214209Y-55876D01*
X214244Y-55783D01*
X214283Y-55692D01*
X214326Y-55602D01*
X214371Y-55513D01*
X214421Y-55427D01*
X214473Y-55342D01*
X214529Y-55260D01*
X214588Y-55180D01*
X214649Y-55102D01*
X214714Y-55026D01*
X214782Y-54953D01*
X214852Y-54883D01*
X214925Y-54815D01*
X215001Y-54750D01*
X215079Y-54689D01*
X215159Y-54630D01*
X215241Y-54574D01*
X215326Y-54522D01*
X215412Y-54473D01*
X215501Y-54427D01*
X215591Y-54384D01*
X215682Y-54345D01*
X215775Y-54310D01*
X215869Y-54278D01*
X215965Y-54250D01*
X216061Y-54225D01*
X216159Y-54205D01*
X216257Y-54187D01*
X216355Y-54174D01*
X216454Y-54165D01*
X216553Y-54159D01*
X216653Y-54157D01*
X216653Y-54158D02*
X219250Y-54158D01*
X223996Y-54158D02*
X223996Y-62596D01*
X223998Y-62709D01*
X224004Y-62822D01*
X224014Y-62935D01*
X224028Y-63048D01*
X224045Y-63160D01*
X224067Y-63271D01*
X224092Y-63381D01*
X224122Y-63491D01*
X224155Y-63599D01*
X224192Y-63706D01*
X224232Y-63812D01*
X224277Y-63916D01*
X224325Y-64019D01*
X224376Y-64120D01*
X224431Y-64219D01*
X224489Y-64316D01*
X224551Y-64411D01*
X224616Y-64504D01*
X224684Y-64594D01*
X224755Y-64682D01*
X224830Y-64768D01*
X224907Y-64851D01*
X224987Y-64931D01*
X225070Y-65008D01*
X225156Y-65083D01*
X225244Y-65154D01*
X225334Y-65222D01*
X225427Y-65287D01*
X225522Y-65349D01*
X225619Y-65407D01*
X225718Y-65462D01*
X225819Y-65513D01*
X225922Y-65561D01*
X226026Y-65606D01*
X226132Y-65646D01*
X226239Y-65683D01*
X226347Y-65716D01*
X226457Y-65746D01*
X226567Y-65771D01*
X226678Y-65793D01*
X226790Y-65810D01*
X226903Y-65824D01*
X227016Y-65834D01*
X227129Y-65840D01*
X227242Y-65842D01*
X227355Y-65840D01*
X227468Y-65834D01*
X227581Y-65824D01*
X227694Y-65810D01*
X227806Y-65793D01*
X227917Y-65771D01*
X228027Y-65746D01*
X228137Y-65716D01*
X228245Y-65683D01*
X228352Y-65646D01*
X228458Y-65606D01*
X228562Y-65561D01*
X228665Y-65513D01*
X228766Y-65462D01*
X228865Y-65407D01*
X228962Y-65349D01*
X229057Y-65287D01*
X229150Y-65222D01*
X229240Y-65154D01*
X229328Y-65083D01*
X229414Y-65008D01*
X229497Y-64931D01*
X229577Y-64851D01*
X229654Y-64768D01*
X229729Y-64682D01*
X229800Y-64594D01*
X229868Y-64504D01*
X229933Y-64411D01*
X229995Y-64316D01*
X230053Y-64219D01*
X230108Y-64120D01*
X230159Y-64019D01*
X230207Y-63916D01*
X230252Y-63812D01*
X230292Y-63706D01*
X230329Y-63599D01*
X230362Y-63491D01*
X230392Y-63381D01*
X230417Y-63271D01*
X230439Y-63160D01*
X230456Y-63048D01*
X230470Y-62935D01*
X230480Y-62822D01*
X230486Y-62709D01*
X230488Y-62596D01*
X230487Y-62596D02*
X230487Y-54158D01*
X242453Y-54158D02*
X242453Y-65842D01*
X242453Y-54158D02*
X245699Y-54158D01*
X245812Y-54160D01*
X245925Y-54166D01*
X246038Y-54176D01*
X246151Y-54190D01*
X246263Y-54207D01*
X246374Y-54229D01*
X246484Y-54254D01*
X246594Y-54284D01*
X246702Y-54317D01*
X246809Y-54354D01*
X246915Y-54394D01*
X247019Y-54439D01*
X247122Y-54487D01*
X247223Y-54538D01*
X247322Y-54593D01*
X247419Y-54651D01*
X247514Y-54713D01*
X247607Y-54778D01*
X247697Y-54846D01*
X247785Y-54917D01*
X247871Y-54992D01*
X247954Y-55069D01*
X248034Y-55149D01*
X248111Y-55232D01*
X248186Y-55318D01*
X248257Y-55406D01*
X248325Y-55496D01*
X248390Y-55589D01*
X248452Y-55684D01*
X248510Y-55781D01*
X248565Y-55880D01*
X248616Y-55981D01*
X248664Y-56084D01*
X248709Y-56188D01*
X248749Y-56294D01*
X248786Y-56401D01*
X248819Y-56509D01*
X248849Y-56619D01*
X248874Y-56729D01*
X248896Y-56840D01*
X248913Y-56952D01*
X248927Y-57065D01*
X248937Y-57178D01*
X248943Y-57291D01*
X248945Y-57404D01*
X248943Y-57517D01*
X248937Y-57630D01*
X248927Y-57743D01*
X248913Y-57856D01*
X248896Y-57968D01*
X248874Y-58079D01*
X248849Y-58189D01*
X248819Y-58299D01*
X248786Y-58407D01*
X248749Y-58514D01*
X248709Y-58620D01*
X248664Y-58724D01*
X248616Y-58827D01*
X248565Y-58928D01*
X248510Y-59027D01*
X248452Y-59124D01*
X248390Y-59219D01*
X248325Y-59312D01*
X248257Y-59402D01*
X248186Y-59490D01*
X248111Y-59576D01*
X248034Y-59659D01*
X247954Y-59739D01*
X247871Y-59816D01*
X247785Y-59891D01*
X247697Y-59962D01*
X247607Y-60030D01*
X247514Y-60095D01*
X247419Y-60157D01*
X247322Y-60215D01*
X247223Y-60270D01*
X247122Y-60321D01*
X247019Y-60369D01*
X246915Y-60414D01*
X246809Y-60454D01*
X246702Y-60491D01*
X246594Y-60524D01*
X246484Y-60554D01*
X246374Y-60579D01*
X246263Y-60601D01*
X246151Y-60618D01*
X246038Y-60632D01*
X245925Y-60642D01*
X245812Y-60648D01*
X245699Y-60650D01*
X245699Y-60649D02*
X242453Y-60649D01*
X255896Y-65842D02*
X258493Y-65842D01*
X255896Y-65842D02*
X255797Y-65840D01*
X255697Y-65834D01*
X255598Y-65825D01*
X255500Y-65812D01*
X255402Y-65795D01*
X255304Y-65774D01*
X255208Y-65749D01*
X255113Y-65721D01*
X255019Y-65689D01*
X254926Y-65654D01*
X254834Y-65615D01*
X254744Y-65572D01*
X254656Y-65527D01*
X254569Y-65477D01*
X254485Y-65425D01*
X254402Y-65369D01*
X254322Y-65311D01*
X254244Y-65249D01*
X254169Y-65184D01*
X254096Y-65116D01*
X254026Y-65046D01*
X253958Y-64973D01*
X253893Y-64898D01*
X253831Y-64820D01*
X253773Y-64740D01*
X253717Y-64657D01*
X253665Y-64573D01*
X253615Y-64486D01*
X253570Y-64398D01*
X253527Y-64308D01*
X253488Y-64216D01*
X253453Y-64123D01*
X253421Y-64029D01*
X253393Y-63934D01*
X253368Y-63838D01*
X253347Y-63740D01*
X253330Y-63642D01*
X253317Y-63544D01*
X253308Y-63445D01*
X253302Y-63345D01*
X253300Y-63246D01*
X253300Y-56754D01*
X253299Y-56754D02*
X253301Y-56655D01*
X253307Y-56555D01*
X253316Y-56456D01*
X253329Y-56358D01*
X253347Y-56260D01*
X253367Y-56162D01*
X253392Y-56066D01*
X253420Y-55970D01*
X253452Y-55876D01*
X253487Y-55783D01*
X253526Y-55692D01*
X253569Y-55602D01*
X253614Y-55513D01*
X253664Y-55427D01*
X253716Y-55342D01*
X253772Y-55260D01*
X253831Y-55180D01*
X253892Y-55102D01*
X253957Y-55026D01*
X254025Y-54953D01*
X254095Y-54883D01*
X254168Y-54815D01*
X254244Y-54750D01*
X254322Y-54689D01*
X254402Y-54630D01*
X254484Y-54574D01*
X254569Y-54522D01*
X254655Y-54473D01*
X254744Y-54427D01*
X254834Y-54384D01*
X254925Y-54345D01*
X255018Y-54310D01*
X255112Y-54278D01*
X255208Y-54250D01*
X255304Y-54225D01*
X255402Y-54205D01*
X255500Y-54187D01*
X255598Y-54174D01*
X255697Y-54165D01*
X255796Y-54159D01*
X255896Y-54157D01*
X255896Y-54158D02*
X258493Y-54158D01*
X263408Y-59351D02*
X266654Y-59351D01*
X266654Y-59350D02*
X266767Y-59352D01*
X266880Y-59358D01*
X266993Y-59368D01*
X267106Y-59382D01*
X267218Y-59399D01*
X267329Y-59421D01*
X267439Y-59446D01*
X267549Y-59476D01*
X267657Y-59509D01*
X267764Y-59546D01*
X267870Y-59586D01*
X267974Y-59631D01*
X268077Y-59679D01*
X268178Y-59730D01*
X268277Y-59785D01*
X268374Y-59843D01*
X268469Y-59905D01*
X268562Y-59970D01*
X268652Y-60038D01*
X268740Y-60109D01*
X268826Y-60184D01*
X268909Y-60261D01*
X268989Y-60341D01*
X269066Y-60424D01*
X269141Y-60510D01*
X269212Y-60598D01*
X269280Y-60688D01*
X269345Y-60781D01*
X269407Y-60876D01*
X269465Y-60973D01*
X269520Y-61072D01*
X269571Y-61173D01*
X269619Y-61276D01*
X269664Y-61380D01*
X269704Y-61486D01*
X269741Y-61593D01*
X269774Y-61701D01*
X269804Y-61811D01*
X269829Y-61921D01*
X269851Y-62032D01*
X269868Y-62144D01*
X269882Y-62257D01*
X269892Y-62370D01*
X269898Y-62483D01*
X269900Y-62596D01*
X269898Y-62709D01*
X269892Y-62822D01*
X269882Y-62935D01*
X269868Y-63048D01*
X269851Y-63160D01*
X269829Y-63271D01*
X269804Y-63381D01*
X269774Y-63491D01*
X269741Y-63599D01*
X269704Y-63706D01*
X269664Y-63812D01*
X269619Y-63916D01*
X269571Y-64019D01*
X269520Y-64120D01*
X269465Y-64219D01*
X269407Y-64316D01*
X269345Y-64411D01*
X269280Y-64504D01*
X269212Y-64594D01*
X269141Y-64682D01*
X269066Y-64768D01*
X268989Y-64851D01*
X268909Y-64931D01*
X268826Y-65008D01*
X268740Y-65083D01*
X268652Y-65154D01*
X268562Y-65222D01*
X268469Y-65287D01*
X268374Y-65349D01*
X268277Y-65407D01*
X268178Y-65462D01*
X268077Y-65513D01*
X267974Y-65561D01*
X267870Y-65606D01*
X267764Y-65646D01*
X267657Y-65683D01*
X267549Y-65716D01*
X267439Y-65746D01*
X267329Y-65771D01*
X267218Y-65793D01*
X267106Y-65810D01*
X266993Y-65824D01*
X266880Y-65834D01*
X266767Y-65840D01*
X266654Y-65842D01*
X263408Y-65842D01*
X263408Y-54158D01*
X266654Y-54158D01*
X266755Y-54160D01*
X266855Y-54166D01*
X266955Y-54176D01*
X267055Y-54189D01*
X267154Y-54207D01*
X267253Y-54228D01*
X267350Y-54253D01*
X267447Y-54282D01*
X267542Y-54315D01*
X267636Y-54351D01*
X267728Y-54391D01*
X267819Y-54434D01*
X267908Y-54481D01*
X267995Y-54531D01*
X268081Y-54585D01*
X268164Y-54642D01*
X268244Y-54702D01*
X268323Y-54765D01*
X268399Y-54832D01*
X268472Y-54901D01*
X268542Y-54973D01*
X268610Y-55047D01*
X268675Y-55124D01*
X268736Y-55204D01*
X268795Y-55286D01*
X268850Y-55370D01*
X268902Y-55456D01*
X268951Y-55544D01*
X268996Y-55634D01*
X269038Y-55726D01*
X269076Y-55819D01*
X269110Y-55914D01*
X269141Y-56009D01*
X269168Y-56106D01*
X269191Y-56204D01*
X269211Y-56303D01*
X269226Y-56403D01*
X269238Y-56503D01*
X269246Y-56603D01*
X269250Y-56704D01*
X269250Y-56804D01*
X269246Y-56905D01*
X269238Y-57005D01*
X269226Y-57105D01*
X269211Y-57205D01*
X269191Y-57304D01*
X269168Y-57402D01*
X269141Y-57499D01*
X269110Y-57594D01*
X269076Y-57689D01*
X269038Y-57782D01*
X268996Y-57874D01*
X268951Y-57964D01*
X268902Y-58052D01*
X268850Y-58138D01*
X268795Y-58222D01*
X268736Y-58304D01*
X268675Y-58384D01*
X268610Y-58461D01*
X268542Y-58535D01*
X268472Y-58607D01*
X268399Y-58676D01*
X268323Y-58743D01*
X268244Y-58806D01*
X268164Y-58866D01*
X268081Y-58923D01*
X267995Y-58977D01*
X267908Y-59027D01*
X267819Y-59074D01*
X267728Y-59117D01*
X267636Y-59157D01*
X267542Y-59193D01*
X267447Y-59226D01*
X267350Y-59255D01*
X267253Y-59280D01*
X267154Y-59301D01*
X267055Y-59319D01*
X266955Y-59332D01*
X266855Y-59342D01*
X266755Y-59348D01*
X266654Y-59350D01*
X279735Y-54158D02*
X283629Y-65842D01*
X287524Y-54158D01*
X291814Y-56754D02*
X295059Y-54158D01*
X295059Y-65842D01*
X291814Y-65842D02*
X298305Y-65842D01*
X302736Y-65842D02*
X302736Y-65193D01*
X303385Y-65193D01*
X303385Y-65842D01*
X302736Y-65842D01*
X307815Y-60000D02*
X307818Y-59770D01*
X307826Y-59540D01*
X307840Y-59311D01*
X307859Y-59082D01*
X307884Y-58853D01*
X307914Y-58625D01*
X307949Y-58398D01*
X307990Y-58172D01*
X308036Y-57947D01*
X308088Y-57723D01*
X308145Y-57500D01*
X308207Y-57279D01*
X308275Y-57059D01*
X308348Y-56841D01*
X308426Y-56625D01*
X308509Y-56411D01*
X308597Y-56199D01*
X308690Y-55988D01*
X308789Y-55781D01*
X308822Y-55691D01*
X308858Y-55602D01*
X308898Y-55514D01*
X308942Y-55429D01*
X308989Y-55345D01*
X309039Y-55263D01*
X309093Y-55183D01*
X309149Y-55106D01*
X309209Y-55030D01*
X309272Y-54957D01*
X309337Y-54887D01*
X309406Y-54819D01*
X309477Y-54755D01*
X309550Y-54693D01*
X309626Y-54634D01*
X309704Y-54578D01*
X309785Y-54525D01*
X309867Y-54476D01*
X309951Y-54430D01*
X310038Y-54387D01*
X310125Y-54348D01*
X310215Y-54312D01*
X310305Y-54280D01*
X310397Y-54252D01*
X310490Y-54227D01*
X310584Y-54206D01*
X310678Y-54189D01*
X310773Y-54175D01*
X310869Y-54166D01*
X310965Y-54160D01*
X311061Y-54158D01*
X311157Y-54160D01*
X311253Y-54166D01*
X311349Y-54175D01*
X311444Y-54189D01*
X311538Y-54206D01*
X311632Y-54227D01*
X311725Y-54252D01*
X311817Y-54280D01*
X311907Y-54312D01*
X311997Y-54348D01*
X312085Y-54387D01*
X312171Y-54430D01*
X312255Y-54476D01*
X312337Y-54525D01*
X312418Y-54578D01*
X312496Y-54634D01*
X312572Y-54693D01*
X312645Y-54755D01*
X312716Y-54819D01*
X312785Y-54887D01*
X312850Y-54957D01*
X312913Y-55030D01*
X312973Y-55106D01*
X313029Y-55183D01*
X313083Y-55263D01*
X313133Y-55345D01*
X313180Y-55429D01*
X313224Y-55514D01*
X313264Y-55602D01*
X313300Y-55691D01*
X313333Y-55781D01*
X313432Y-55988D01*
X313525Y-56199D01*
X313613Y-56411D01*
X313696Y-56625D01*
X313774Y-56841D01*
X313847Y-57059D01*
X313915Y-57279D01*
X313977Y-57500D01*
X314034Y-57723D01*
X314086Y-57947D01*
X314132Y-58172D01*
X314173Y-58398D01*
X314208Y-58625D01*
X314238Y-58853D01*
X314263Y-59082D01*
X314282Y-59311D01*
X314296Y-59540D01*
X314304Y-59770D01*
X314307Y-60000D01*
X307816Y-60000D02*
X307819Y-60230D01*
X307827Y-60460D01*
X307841Y-60689D01*
X307860Y-60918D01*
X307885Y-61147D01*
X307915Y-61375D01*
X307950Y-61602D01*
X307991Y-61828D01*
X308037Y-62053D01*
X308089Y-62277D01*
X308146Y-62500D01*
X308208Y-62721D01*
X308276Y-62941D01*
X308349Y-63159D01*
X308427Y-63375D01*
X308510Y-63589D01*
X308598Y-63801D01*
X308691Y-64012D01*
X308790Y-64219D01*
X308789Y-64219D02*
X308822Y-64309D01*
X308858Y-64398D01*
X308899Y-64486D01*
X308942Y-64571D01*
X308989Y-64655D01*
X309039Y-64737D01*
X309093Y-64817D01*
X309149Y-64894D01*
X309209Y-64970D01*
X309272Y-65043D01*
X309337Y-65113D01*
X309406Y-65181D01*
X309477Y-65245D01*
X309550Y-65307D01*
X309626Y-65366D01*
X309704Y-65422D01*
X309785Y-65475D01*
X309867Y-65524D01*
X309951Y-65570D01*
X310038Y-65613D01*
X310125Y-65652D01*
X310215Y-65688D01*
X310305Y-65720D01*
X310397Y-65748D01*
X310490Y-65773D01*
X310584Y-65794D01*
X310678Y-65811D01*
X310773Y-65825D01*
X310869Y-65834D01*
X310965Y-65840D01*
X311061Y-65842D01*
X313333Y-64219D02*
X313432Y-64012D01*
X313525Y-63801D01*
X313613Y-63589D01*
X313696Y-63375D01*
X313774Y-63159D01*
X313847Y-62941D01*
X313915Y-62721D01*
X313977Y-62500D01*
X314034Y-62277D01*
X314086Y-62053D01*
X314132Y-61828D01*
X314173Y-61602D01*
X314208Y-61375D01*
X314238Y-61147D01*
X314263Y-60918D01*
X314282Y-60689D01*
X314296Y-60460D01*
X314304Y-60230D01*
X314307Y-60000D01*
X313333Y-64219D02*
X313300Y-64309D01*
X313264Y-64398D01*
X313224Y-64486D01*
X313180Y-64571D01*
X313133Y-64655D01*
X313083Y-64737D01*
X313029Y-64817D01*
X312973Y-64894D01*
X312913Y-64970D01*
X312850Y-65043D01*
X312785Y-65113D01*
X312716Y-65181D01*
X312645Y-65245D01*
X312572Y-65307D01*
X312496Y-65366D01*
X312418Y-65422D01*
X312337Y-65475D01*
X312255Y-65524D01*
X312171Y-65570D01*
X312084Y-65613D01*
X311997Y-65652D01*
X311907Y-65688D01*
X311817Y-65720D01*
X311725Y-65748D01*
X311632Y-65773D01*
X311538Y-65794D01*
X311444Y-65811D01*
X311349Y-65825D01*
X311253Y-65834D01*
X311157Y-65840D01*
X311061Y-65842D01*
X308465Y-63246D02*
X313658Y-56754D01*
D12*
X72647Y367206D02*
X72647Y372794D01*
X74199Y372794D01*
X74276Y372792D01*
X74354Y372786D01*
X74430Y372777D01*
X74507Y372763D01*
X74582Y372746D01*
X74656Y372725D01*
X74730Y372700D01*
X74802Y372672D01*
X74872Y372640D01*
X74941Y372605D01*
X75008Y372566D01*
X75073Y372524D01*
X75136Y372479D01*
X75197Y372431D01*
X75255Y372380D01*
X75310Y372326D01*
X75363Y372269D01*
X75412Y372210D01*
X75459Y372148D01*
X75503Y372084D01*
X75543Y372018D01*
X75580Y371950D01*
X75614Y371880D01*
X75644Y371809D01*
X75670Y371736D01*
X75693Y371662D01*
X75712Y371587D01*
X75727Y371512D01*
X75739Y371435D01*
X75747Y371358D01*
X75751Y371281D01*
X75751Y371203D01*
X75747Y371126D01*
X75739Y371049D01*
X75727Y370972D01*
X75712Y370897D01*
X75693Y370822D01*
X75670Y370748D01*
X75644Y370675D01*
X75614Y370604D01*
X75580Y370534D01*
X75543Y370466D01*
X75503Y370400D01*
X75459Y370336D01*
X75412Y370274D01*
X75363Y370215D01*
X75310Y370158D01*
X75255Y370104D01*
X75197Y370053D01*
X75136Y370005D01*
X75073Y369960D01*
X75008Y369918D01*
X74941Y369879D01*
X74872Y369844D01*
X74802Y369812D01*
X74730Y369784D01*
X74656Y369759D01*
X74582Y369738D01*
X74507Y369721D01*
X74430Y369707D01*
X74354Y369698D01*
X74276Y369692D01*
X74199Y369690D01*
X72647Y369690D01*
X74509Y369690D02*
X75751Y367206D01*
X77787Y367206D02*
X81512Y372794D01*
X77787Y372794D02*
X81512Y367206D01*
X83766Y367206D02*
X83766Y372794D01*
X85319Y372794D01*
X85395Y372792D01*
X85471Y372787D01*
X85547Y372777D01*
X85622Y372764D01*
X85696Y372747D01*
X85770Y372727D01*
X85842Y372703D01*
X85913Y372676D01*
X85983Y372645D01*
X86051Y372611D01*
X86117Y372573D01*
X86181Y372532D01*
X86244Y372489D01*
X86304Y372442D01*
X86361Y372392D01*
X86416Y372339D01*
X86469Y372284D01*
X86519Y372227D01*
X86566Y372167D01*
X86609Y372104D01*
X86650Y372040D01*
X86688Y371974D01*
X86722Y371906D01*
X86753Y371836D01*
X86780Y371765D01*
X86804Y371692D01*
X86824Y371619D01*
X86841Y371545D01*
X86854Y371470D01*
X86864Y371394D01*
X86869Y371318D01*
X86871Y371242D01*
X86871Y368758D01*
X86869Y368679D01*
X86863Y368601D01*
X86853Y368523D01*
X86839Y368446D01*
X86821Y368369D01*
X86800Y368293D01*
X86774Y368219D01*
X86745Y368146D01*
X86712Y368075D01*
X86676Y368005D01*
X86636Y367937D01*
X86593Y367871D01*
X86546Y367808D01*
X86497Y367747D01*
X86444Y367689D01*
X86388Y367633D01*
X86330Y367580D01*
X86269Y367531D01*
X86206Y367484D01*
X86140Y367441D01*
X86072Y367401D01*
X86003Y367365D01*
X85931Y367332D01*
X85858Y367303D01*
X85784Y367277D01*
X85708Y367256D01*
X85631Y367238D01*
X85554Y367224D01*
X85476Y367214D01*
X85398Y367208D01*
X85319Y367206D01*
X83766Y367206D01*
X89197Y366585D02*
X91681Y373415D01*
X95011Y372794D02*
X95011Y367206D01*
X93459Y372794D02*
X96563Y372794D01*
X101994Y372794D02*
X98269Y367206D01*
X101994Y367206D02*
X98269Y372794D01*
X104249Y372794D02*
X104249Y367206D01*
X104249Y372794D02*
X105801Y372794D01*
X105877Y372792D01*
X105953Y372787D01*
X106029Y372777D01*
X106104Y372764D01*
X106178Y372747D01*
X106252Y372727D01*
X106324Y372703D01*
X106395Y372676D01*
X106465Y372645D01*
X106533Y372611D01*
X106599Y372573D01*
X106663Y372532D01*
X106726Y372489D01*
X106786Y372442D01*
X106843Y372392D01*
X106898Y372339D01*
X106951Y372284D01*
X107001Y372227D01*
X107048Y372167D01*
X107091Y372104D01*
X107132Y372040D01*
X107170Y371974D01*
X107204Y371906D01*
X107235Y371836D01*
X107262Y371765D01*
X107286Y371692D01*
X107306Y371619D01*
X107323Y371545D01*
X107336Y371470D01*
X107346Y371394D01*
X107351Y371318D01*
X107353Y371242D01*
X107353Y368758D01*
X107351Y368679D01*
X107345Y368601D01*
X107335Y368523D01*
X107321Y368446D01*
X107303Y368369D01*
X107282Y368293D01*
X107256Y368219D01*
X107227Y368146D01*
X107194Y368075D01*
X107158Y368005D01*
X107118Y367937D01*
X107075Y367871D01*
X107028Y367808D01*
X106979Y367747D01*
X106926Y367689D01*
X106870Y367633D01*
X106812Y367580D01*
X106751Y367531D01*
X106688Y367484D01*
X106622Y367441D01*
X106554Y367401D01*
X106485Y367365D01*
X106413Y367332D01*
X106340Y367303D01*
X106266Y367277D01*
X106190Y367256D01*
X106113Y367238D01*
X106036Y367224D01*
X105958Y367214D01*
X105880Y367208D01*
X105801Y367206D01*
X104249Y367206D01*
X127018Y367206D02*
X127018Y372794D01*
X128570Y372794D01*
X128646Y372792D01*
X128722Y372787D01*
X128798Y372777D01*
X128873Y372764D01*
X128947Y372747D01*
X129021Y372727D01*
X129093Y372703D01*
X129164Y372676D01*
X129234Y372645D01*
X129302Y372611D01*
X129368Y372573D01*
X129432Y372532D01*
X129495Y372489D01*
X129555Y372442D01*
X129612Y372392D01*
X129667Y372339D01*
X129720Y372284D01*
X129770Y372227D01*
X129817Y372167D01*
X129860Y372104D01*
X129901Y372040D01*
X129939Y371974D01*
X129973Y371906D01*
X130004Y371836D01*
X130031Y371765D01*
X130055Y371692D01*
X130075Y371619D01*
X130092Y371545D01*
X130105Y371470D01*
X130115Y371394D01*
X130120Y371318D01*
X130122Y371242D01*
X130122Y368758D01*
X130120Y368679D01*
X130114Y368601D01*
X130104Y368523D01*
X130090Y368446D01*
X130072Y368369D01*
X130051Y368293D01*
X130025Y368219D01*
X129996Y368146D01*
X129963Y368075D01*
X129927Y368005D01*
X129887Y367937D01*
X129844Y367871D01*
X129797Y367808D01*
X129748Y367747D01*
X129695Y367689D01*
X129639Y367633D01*
X129581Y367580D01*
X129520Y367531D01*
X129457Y367484D01*
X129391Y367441D01*
X129323Y367401D01*
X129254Y367365D01*
X129182Y367332D01*
X129109Y367303D01*
X129035Y367277D01*
X128959Y367256D01*
X128882Y367238D01*
X128805Y367224D01*
X128727Y367214D01*
X128649Y367208D01*
X128570Y367206D01*
X127018Y367206D01*
X132953Y367206D02*
X132953Y372794D01*
X134505Y372794D01*
X134582Y372792D01*
X134660Y372786D01*
X134736Y372777D01*
X134813Y372763D01*
X134888Y372746D01*
X134962Y372725D01*
X135036Y372700D01*
X135108Y372672D01*
X135178Y372640D01*
X135247Y372605D01*
X135314Y372566D01*
X135379Y372524D01*
X135442Y372479D01*
X135503Y372431D01*
X135561Y372380D01*
X135616Y372326D01*
X135669Y372269D01*
X135718Y372210D01*
X135765Y372148D01*
X135809Y372084D01*
X135849Y372018D01*
X135886Y371950D01*
X135920Y371880D01*
X135950Y371809D01*
X135976Y371736D01*
X135999Y371662D01*
X136018Y371587D01*
X136033Y371512D01*
X136045Y371435D01*
X136053Y371358D01*
X136057Y371281D01*
X136057Y371203D01*
X136053Y371126D01*
X136045Y371049D01*
X136033Y370972D01*
X136018Y370897D01*
X135999Y370822D01*
X135976Y370748D01*
X135950Y370675D01*
X135920Y370604D01*
X135886Y370534D01*
X135849Y370466D01*
X135809Y370400D01*
X135765Y370336D01*
X135718Y370274D01*
X135669Y370215D01*
X135616Y370158D01*
X135561Y370104D01*
X135503Y370053D01*
X135442Y370005D01*
X135379Y369960D01*
X135314Y369918D01*
X135247Y369879D01*
X135178Y369844D01*
X135108Y369812D01*
X135036Y369784D01*
X134962Y369759D01*
X134888Y369738D01*
X134813Y369721D01*
X134736Y369707D01*
X134660Y369698D01*
X134582Y369692D01*
X134505Y369690D01*
X132953Y369690D01*
X138628Y367206D02*
X138628Y372794D01*
X138008Y367206D02*
X139249Y367206D01*
X139249Y372794D02*
X138008Y372794D01*
X141465Y371242D02*
X141465Y368758D01*
X141466Y371242D02*
X141468Y371319D01*
X141474Y371397D01*
X141483Y371473D01*
X141497Y371550D01*
X141514Y371625D01*
X141535Y371699D01*
X141560Y371773D01*
X141588Y371845D01*
X141620Y371915D01*
X141655Y371984D01*
X141694Y372051D01*
X141736Y372116D01*
X141781Y372179D01*
X141829Y372240D01*
X141880Y372298D01*
X141934Y372353D01*
X141991Y372406D01*
X142050Y372455D01*
X142112Y372502D01*
X142176Y372546D01*
X142242Y372586D01*
X142310Y372623D01*
X142380Y372657D01*
X142451Y372687D01*
X142524Y372713D01*
X142598Y372736D01*
X142673Y372755D01*
X142748Y372770D01*
X142825Y372782D01*
X142902Y372790D01*
X142979Y372794D01*
X143057Y372794D01*
X143134Y372790D01*
X143211Y372782D01*
X143288Y372770D01*
X143363Y372755D01*
X143438Y372736D01*
X143512Y372713D01*
X143585Y372687D01*
X143656Y372657D01*
X143726Y372623D01*
X143794Y372586D01*
X143860Y372546D01*
X143924Y372502D01*
X143986Y372455D01*
X144045Y372406D01*
X144102Y372353D01*
X144156Y372298D01*
X144207Y372240D01*
X144255Y372179D01*
X144300Y372116D01*
X144342Y372051D01*
X144381Y371984D01*
X144416Y371915D01*
X144448Y371845D01*
X144476Y371773D01*
X144501Y371699D01*
X144522Y371625D01*
X144539Y371550D01*
X144553Y371473D01*
X144562Y371397D01*
X144568Y371319D01*
X144570Y371242D01*
X144570Y368758D01*
X144568Y368681D01*
X144562Y368603D01*
X144553Y368527D01*
X144539Y368450D01*
X144522Y368375D01*
X144501Y368301D01*
X144476Y368227D01*
X144448Y368155D01*
X144416Y368085D01*
X144381Y368016D01*
X144342Y367949D01*
X144300Y367884D01*
X144255Y367821D01*
X144207Y367760D01*
X144156Y367702D01*
X144102Y367647D01*
X144045Y367594D01*
X143986Y367545D01*
X143924Y367498D01*
X143860Y367454D01*
X143794Y367414D01*
X143726Y367377D01*
X143656Y367343D01*
X143585Y367313D01*
X143512Y367287D01*
X143438Y367264D01*
X143363Y367245D01*
X143288Y367230D01*
X143211Y367218D01*
X143134Y367210D01*
X143057Y367206D01*
X142979Y367206D01*
X142902Y367210D01*
X142825Y367218D01*
X142748Y367230D01*
X142673Y367245D01*
X142598Y367264D01*
X142524Y367287D01*
X142451Y367313D01*
X142380Y367343D01*
X142310Y367377D01*
X142242Y367414D01*
X142176Y367454D01*
X142112Y367498D01*
X142050Y367545D01*
X141991Y367594D01*
X141934Y367647D01*
X141880Y367702D01*
X141829Y367760D01*
X141781Y367821D01*
X141736Y367884D01*
X141694Y367949D01*
X141655Y368016D01*
X141620Y368085D01*
X141588Y368155D01*
X141560Y368227D01*
X141535Y368301D01*
X141514Y368375D01*
X141497Y368450D01*
X141483Y368527D01*
X141474Y368603D01*
X141468Y368681D01*
X141466Y368758D01*
X151585Y372794D02*
X151658Y372792D01*
X151731Y372786D01*
X151804Y372777D01*
X151875Y372763D01*
X151947Y372746D01*
X152017Y372726D01*
X152086Y372701D01*
X152153Y372673D01*
X152219Y372642D01*
X152284Y372607D01*
X152346Y372569D01*
X152406Y372527D01*
X152464Y372483D01*
X152520Y372435D01*
X152573Y372385D01*
X152623Y372332D01*
X152671Y372276D01*
X152715Y372218D01*
X152757Y372158D01*
X152795Y372096D01*
X152830Y372031D01*
X152861Y371965D01*
X152889Y371898D01*
X152914Y371829D01*
X152934Y371759D01*
X152951Y371687D01*
X152965Y371616D01*
X152974Y371543D01*
X152980Y371470D01*
X152982Y371397D01*
X151585Y372794D02*
X151501Y372792D01*
X151418Y372786D01*
X151335Y372777D01*
X151253Y372763D01*
X151171Y372746D01*
X151090Y372724D01*
X151010Y372699D01*
X150932Y372671D01*
X150854Y372639D01*
X150779Y372603D01*
X150705Y372564D01*
X150633Y372521D01*
X150563Y372475D01*
X150496Y372426D01*
X150430Y372373D01*
X150368Y372318D01*
X150308Y372260D01*
X150250Y372199D01*
X150196Y372136D01*
X150144Y372070D01*
X150096Y372002D01*
X150051Y371931D01*
X150009Y371859D01*
X149971Y371784D01*
X149936Y371708D01*
X149905Y371631D01*
X149877Y371552D01*
X152516Y370311D02*
X152570Y370364D01*
X152621Y370421D01*
X152669Y370480D01*
X152714Y370541D01*
X152755Y370604D01*
X152794Y370670D01*
X152829Y370737D01*
X152861Y370806D01*
X152889Y370877D01*
X152913Y370948D01*
X152934Y371021D01*
X152951Y371095D01*
X152965Y371170D01*
X152974Y371245D01*
X152980Y371321D01*
X152982Y371397D01*
X152516Y370310D02*
X149878Y367206D01*
X152982Y367206D01*
D13*
X125700Y166400D02*
X316700Y166400D01*
X316700Y11400D01*
X125700Y11400D01*
X125700Y166400D01*
D11*
X134890Y6872D02*
X131645Y4276D01*
X134890Y6872D02*
X134890Y-4812D01*
X131645Y-4812D02*
X138136Y-4812D01*
X149566Y3951D02*
X149564Y4058D01*
X149558Y4164D01*
X149548Y4270D01*
X149535Y4376D01*
X149517Y4482D01*
X149496Y4586D01*
X149471Y4690D01*
X149442Y4793D01*
X149410Y4894D01*
X149373Y4994D01*
X149333Y5093D01*
X149290Y5191D01*
X149243Y5287D01*
X149192Y5381D01*
X149138Y5473D01*
X149081Y5563D01*
X149021Y5651D01*
X148957Y5736D01*
X148890Y5819D01*
X148820Y5900D01*
X148748Y5978D01*
X148672Y6054D01*
X148594Y6126D01*
X148513Y6196D01*
X148430Y6263D01*
X148345Y6327D01*
X148257Y6387D01*
X148167Y6444D01*
X148075Y6498D01*
X147981Y6549D01*
X147885Y6596D01*
X147787Y6639D01*
X147688Y6679D01*
X147588Y6716D01*
X147487Y6748D01*
X147384Y6777D01*
X147280Y6802D01*
X147176Y6823D01*
X147070Y6841D01*
X146964Y6854D01*
X146858Y6864D01*
X146752Y6870D01*
X146645Y6872D01*
X146524Y6870D01*
X146403Y6864D01*
X146283Y6854D01*
X146162Y6841D01*
X146043Y6823D01*
X145923Y6802D01*
X145805Y6777D01*
X145688Y6748D01*
X145571Y6715D01*
X145456Y6679D01*
X145342Y6638D01*
X145229Y6595D01*
X145117Y6547D01*
X145008Y6496D01*
X144900Y6441D01*
X144793Y6383D01*
X144689Y6322D01*
X144587Y6257D01*
X144487Y6189D01*
X144389Y6118D01*
X144293Y6044D01*
X144200Y5967D01*
X144110Y5886D01*
X144022Y5803D01*
X143937Y5717D01*
X143854Y5628D01*
X143775Y5537D01*
X143698Y5443D01*
X143625Y5347D01*
X143555Y5249D01*
X143488Y5148D01*
X143424Y5045D01*
X143364Y4940D01*
X143307Y4833D01*
X143253Y4725D01*
X143203Y4615D01*
X143157Y4503D01*
X143114Y4390D01*
X143075Y4275D01*
X148592Y1679D02*
X148671Y1756D01*
X148747Y1837D01*
X148820Y1920D01*
X148890Y2005D01*
X148957Y2093D01*
X149021Y2183D01*
X149081Y2275D01*
X149138Y2370D01*
X149192Y2466D01*
X149243Y2564D01*
X149290Y2664D01*
X149334Y2766D01*
X149374Y2869D01*
X149410Y2973D01*
X149442Y3079D01*
X149471Y3185D01*
X149496Y3293D01*
X149518Y3401D01*
X149535Y3511D01*
X149549Y3620D01*
X149558Y3730D01*
X149564Y3841D01*
X149566Y3951D01*
X148592Y1679D02*
X143075Y-4812D01*
X149566Y-4812D01*
X157750Y-4812D02*
X153855Y6872D01*
X161645Y6872D02*
X157750Y-4812D01*
X166047Y-268D02*
X173837Y-268D01*
X181452Y-4812D02*
X184048Y-4812D01*
X181452Y-4812D02*
X181353Y-4810D01*
X181253Y-4804D01*
X181154Y-4795D01*
X181056Y-4782D01*
X180958Y-4765D01*
X180860Y-4744D01*
X180764Y-4719D01*
X180669Y-4691D01*
X180575Y-4659D01*
X180482Y-4624D01*
X180390Y-4585D01*
X180300Y-4542D01*
X180212Y-4497D01*
X180125Y-4447D01*
X180041Y-4395D01*
X179958Y-4339D01*
X179878Y-4281D01*
X179800Y-4219D01*
X179725Y-4154D01*
X179652Y-4086D01*
X179582Y-4016D01*
X179514Y-3943D01*
X179449Y-3868D01*
X179387Y-3790D01*
X179329Y-3710D01*
X179273Y-3627D01*
X179221Y-3543D01*
X179171Y-3456D01*
X179126Y-3368D01*
X179083Y-3278D01*
X179044Y-3186D01*
X179009Y-3093D01*
X178977Y-2999D01*
X178949Y-2904D01*
X178924Y-2808D01*
X178903Y-2710D01*
X178886Y-2612D01*
X178873Y-2514D01*
X178864Y-2415D01*
X178858Y-2315D01*
X178856Y-2216D01*
X178855Y-2216D02*
X178855Y4276D01*
X178856Y4276D02*
X178858Y4375D01*
X178864Y4475D01*
X178873Y4574D01*
X178886Y4672D01*
X178903Y4770D01*
X178924Y4868D01*
X178949Y4964D01*
X178977Y5059D01*
X179009Y5153D01*
X179044Y5246D01*
X179083Y5338D01*
X179126Y5428D01*
X179171Y5516D01*
X179221Y5603D01*
X179273Y5687D01*
X179329Y5770D01*
X179387Y5850D01*
X179449Y5928D01*
X179514Y6003D01*
X179582Y6076D01*
X179652Y6146D01*
X179725Y6214D01*
X179800Y6279D01*
X179878Y6341D01*
X179958Y6399D01*
X180041Y6455D01*
X180125Y6507D01*
X180212Y6557D01*
X180300Y6602D01*
X180390Y6645D01*
X180482Y6684D01*
X180574Y6719D01*
X180669Y6751D01*
X180764Y6779D01*
X180860Y6804D01*
X180958Y6825D01*
X181056Y6842D01*
X181154Y6855D01*
X181253Y6864D01*
X181353Y6870D01*
X181452Y6872D01*
X184048Y6872D01*
X188413Y3626D02*
X188413Y-1566D01*
X188413Y3626D02*
X188415Y3739D01*
X188421Y3852D01*
X188431Y3965D01*
X188445Y4078D01*
X188462Y4190D01*
X188484Y4301D01*
X188509Y4411D01*
X188539Y4521D01*
X188572Y4629D01*
X188609Y4736D01*
X188649Y4842D01*
X188694Y4946D01*
X188742Y5049D01*
X188793Y5150D01*
X188848Y5249D01*
X188906Y5346D01*
X188968Y5441D01*
X189033Y5534D01*
X189101Y5624D01*
X189172Y5712D01*
X189247Y5798D01*
X189324Y5881D01*
X189404Y5961D01*
X189487Y6038D01*
X189573Y6113D01*
X189661Y6184D01*
X189751Y6252D01*
X189844Y6317D01*
X189939Y6379D01*
X190036Y6437D01*
X190135Y6492D01*
X190236Y6543D01*
X190339Y6591D01*
X190443Y6636D01*
X190549Y6676D01*
X190656Y6713D01*
X190764Y6746D01*
X190874Y6776D01*
X190984Y6801D01*
X191095Y6823D01*
X191207Y6840D01*
X191320Y6854D01*
X191433Y6864D01*
X191546Y6870D01*
X191659Y6872D01*
X191772Y6870D01*
X191885Y6864D01*
X191998Y6854D01*
X192111Y6840D01*
X192223Y6823D01*
X192334Y6801D01*
X192444Y6776D01*
X192554Y6746D01*
X192662Y6713D01*
X192769Y6676D01*
X192875Y6636D01*
X192979Y6591D01*
X193082Y6543D01*
X193183Y6492D01*
X193282Y6437D01*
X193379Y6379D01*
X193474Y6317D01*
X193567Y6252D01*
X193657Y6184D01*
X193745Y6113D01*
X193831Y6038D01*
X193914Y5961D01*
X193994Y5881D01*
X194071Y5798D01*
X194146Y5712D01*
X194217Y5624D01*
X194285Y5534D01*
X194350Y5441D01*
X194412Y5346D01*
X194470Y5249D01*
X194525Y5150D01*
X194576Y5049D01*
X194624Y4946D01*
X194669Y4842D01*
X194709Y4736D01*
X194746Y4629D01*
X194779Y4521D01*
X194809Y4411D01*
X194834Y4301D01*
X194856Y4190D01*
X194873Y4078D01*
X194887Y3965D01*
X194897Y3852D01*
X194903Y3739D01*
X194905Y3626D01*
X194905Y-1566D01*
X194903Y-1679D01*
X194897Y-1792D01*
X194887Y-1905D01*
X194873Y-2018D01*
X194856Y-2130D01*
X194834Y-2241D01*
X194809Y-2351D01*
X194779Y-2461D01*
X194746Y-2569D01*
X194709Y-2676D01*
X194669Y-2782D01*
X194624Y-2886D01*
X194576Y-2989D01*
X194525Y-3090D01*
X194470Y-3189D01*
X194412Y-3286D01*
X194350Y-3381D01*
X194285Y-3474D01*
X194217Y-3564D01*
X194146Y-3652D01*
X194071Y-3738D01*
X193994Y-3821D01*
X193914Y-3901D01*
X193831Y-3978D01*
X193745Y-4053D01*
X193657Y-4124D01*
X193567Y-4192D01*
X193474Y-4257D01*
X193379Y-4319D01*
X193282Y-4377D01*
X193183Y-4432D01*
X193082Y-4483D01*
X192979Y-4531D01*
X192875Y-4576D01*
X192769Y-4616D01*
X192662Y-4653D01*
X192554Y-4686D01*
X192444Y-4716D01*
X192334Y-4741D01*
X192223Y-4763D01*
X192111Y-4780D01*
X191998Y-4794D01*
X191885Y-4804D01*
X191772Y-4810D01*
X191659Y-4812D01*
X191546Y-4810D01*
X191433Y-4804D01*
X191320Y-4794D01*
X191207Y-4780D01*
X191095Y-4763D01*
X190984Y-4741D01*
X190874Y-4716D01*
X190764Y-4686D01*
X190656Y-4653D01*
X190549Y-4616D01*
X190443Y-4576D01*
X190339Y-4531D01*
X190236Y-4483D01*
X190135Y-4432D01*
X190036Y-4377D01*
X189939Y-4319D01*
X189844Y-4257D01*
X189751Y-4192D01*
X189661Y-4124D01*
X189573Y-4053D01*
X189487Y-3978D01*
X189404Y-3901D01*
X189324Y-3821D01*
X189247Y-3738D01*
X189172Y-3652D01*
X189101Y-3564D01*
X189033Y-3474D01*
X188968Y-3381D01*
X188906Y-3286D01*
X188848Y-3189D01*
X188793Y-3090D01*
X188742Y-2989D01*
X188694Y-2886D01*
X188649Y-2782D01*
X188609Y-2676D01*
X188572Y-2569D01*
X188539Y-2461D01*
X188509Y-2351D01*
X188484Y-2241D01*
X188462Y-2130D01*
X188445Y-2018D01*
X188431Y-1905D01*
X188421Y-1792D01*
X188415Y-1679D01*
X188413Y-1566D01*
X200224Y-4812D02*
X200224Y6872D01*
X206716Y-4812D01*
X206716Y6872D01*
X214519Y6872D02*
X214519Y-4812D01*
X211273Y6872D02*
X217765Y6872D01*
X222396Y6872D02*
X222396Y-4812D01*
X222396Y6872D02*
X225642Y6872D01*
X225755Y6870D01*
X225868Y6864D01*
X225981Y6854D01*
X226094Y6840D01*
X226206Y6823D01*
X226317Y6801D01*
X226427Y6776D01*
X226537Y6746D01*
X226645Y6713D01*
X226752Y6676D01*
X226858Y6636D01*
X226962Y6591D01*
X227065Y6543D01*
X227166Y6492D01*
X227265Y6437D01*
X227362Y6379D01*
X227457Y6317D01*
X227550Y6252D01*
X227640Y6184D01*
X227728Y6113D01*
X227814Y6038D01*
X227897Y5961D01*
X227977Y5881D01*
X228054Y5798D01*
X228129Y5712D01*
X228200Y5624D01*
X228268Y5534D01*
X228333Y5441D01*
X228395Y5346D01*
X228453Y5249D01*
X228508Y5150D01*
X228559Y5049D01*
X228607Y4946D01*
X228652Y4842D01*
X228692Y4736D01*
X228729Y4629D01*
X228762Y4521D01*
X228792Y4411D01*
X228817Y4301D01*
X228839Y4190D01*
X228856Y4078D01*
X228870Y3965D01*
X228880Y3852D01*
X228886Y3739D01*
X228888Y3626D01*
X228886Y3513D01*
X228880Y3400D01*
X228870Y3287D01*
X228856Y3174D01*
X228839Y3062D01*
X228817Y2951D01*
X228792Y2841D01*
X228762Y2731D01*
X228729Y2623D01*
X228692Y2516D01*
X228652Y2410D01*
X228607Y2306D01*
X228559Y2203D01*
X228508Y2102D01*
X228453Y2003D01*
X228395Y1906D01*
X228333Y1811D01*
X228268Y1718D01*
X228200Y1628D01*
X228129Y1540D01*
X228054Y1454D01*
X227977Y1371D01*
X227897Y1291D01*
X227814Y1214D01*
X227728Y1139D01*
X227640Y1068D01*
X227550Y1000D01*
X227457Y935D01*
X227362Y873D01*
X227265Y815D01*
X227166Y760D01*
X227065Y709D01*
X226962Y661D01*
X226858Y616D01*
X226752Y576D01*
X226645Y539D01*
X226537Y506D01*
X226427Y476D01*
X226317Y451D01*
X226206Y429D01*
X226094Y412D01*
X225981Y398D01*
X225868Y388D01*
X225755Y382D01*
X225642Y380D01*
X225642Y381D02*
X222396Y381D01*
X226291Y381D02*
X228887Y-4812D01*
X233752Y-1566D02*
X233752Y3626D01*
X233754Y3739D01*
X233760Y3852D01*
X233770Y3965D01*
X233784Y4078D01*
X233801Y4190D01*
X233823Y4301D01*
X233848Y4411D01*
X233878Y4521D01*
X233911Y4629D01*
X233948Y4736D01*
X233988Y4842D01*
X234033Y4946D01*
X234081Y5049D01*
X234132Y5150D01*
X234187Y5249D01*
X234245Y5346D01*
X234307Y5441D01*
X234372Y5534D01*
X234440Y5624D01*
X234511Y5712D01*
X234586Y5798D01*
X234663Y5881D01*
X234743Y5961D01*
X234826Y6038D01*
X234912Y6113D01*
X235000Y6184D01*
X235090Y6252D01*
X235183Y6317D01*
X235278Y6379D01*
X235375Y6437D01*
X235474Y6492D01*
X235575Y6543D01*
X235678Y6591D01*
X235782Y6636D01*
X235888Y6676D01*
X235995Y6713D01*
X236103Y6746D01*
X236213Y6776D01*
X236323Y6801D01*
X236434Y6823D01*
X236546Y6840D01*
X236659Y6854D01*
X236772Y6864D01*
X236885Y6870D01*
X236998Y6872D01*
X237111Y6870D01*
X237224Y6864D01*
X237337Y6854D01*
X237450Y6840D01*
X237562Y6823D01*
X237673Y6801D01*
X237783Y6776D01*
X237893Y6746D01*
X238001Y6713D01*
X238108Y6676D01*
X238214Y6636D01*
X238318Y6591D01*
X238421Y6543D01*
X238522Y6492D01*
X238621Y6437D01*
X238718Y6379D01*
X238813Y6317D01*
X238906Y6252D01*
X238996Y6184D01*
X239084Y6113D01*
X239170Y6038D01*
X239253Y5961D01*
X239333Y5881D01*
X239410Y5798D01*
X239485Y5712D01*
X239556Y5624D01*
X239624Y5534D01*
X239689Y5441D01*
X239751Y5346D01*
X239809Y5249D01*
X239864Y5150D01*
X239915Y5049D01*
X239963Y4946D01*
X240008Y4842D01*
X240048Y4736D01*
X240085Y4629D01*
X240118Y4521D01*
X240148Y4411D01*
X240173Y4301D01*
X240195Y4190D01*
X240212Y4078D01*
X240226Y3965D01*
X240236Y3852D01*
X240242Y3739D01*
X240244Y3626D01*
X240243Y3626D02*
X240243Y-1566D01*
X240244Y-1566D02*
X240242Y-1679D01*
X240236Y-1792D01*
X240226Y-1905D01*
X240212Y-2018D01*
X240195Y-2130D01*
X240173Y-2241D01*
X240148Y-2351D01*
X240118Y-2461D01*
X240085Y-2569D01*
X240048Y-2676D01*
X240008Y-2782D01*
X239963Y-2886D01*
X239915Y-2989D01*
X239864Y-3090D01*
X239809Y-3189D01*
X239751Y-3286D01*
X239689Y-3381D01*
X239624Y-3474D01*
X239556Y-3564D01*
X239485Y-3652D01*
X239410Y-3738D01*
X239333Y-3821D01*
X239253Y-3901D01*
X239170Y-3978D01*
X239084Y-4053D01*
X238996Y-4124D01*
X238906Y-4192D01*
X238813Y-4257D01*
X238718Y-4319D01*
X238621Y-4377D01*
X238522Y-4432D01*
X238421Y-4483D01*
X238318Y-4531D01*
X238214Y-4576D01*
X238108Y-4616D01*
X238001Y-4653D01*
X237893Y-4686D01*
X237783Y-4716D01*
X237673Y-4741D01*
X237562Y-4763D01*
X237450Y-4780D01*
X237337Y-4794D01*
X237224Y-4804D01*
X237111Y-4810D01*
X236998Y-4812D01*
X236885Y-4810D01*
X236772Y-4804D01*
X236659Y-4794D01*
X236546Y-4780D01*
X236434Y-4763D01*
X236323Y-4741D01*
X236213Y-4716D01*
X236103Y-4686D01*
X235995Y-4653D01*
X235888Y-4616D01*
X235782Y-4576D01*
X235678Y-4531D01*
X235575Y-4483D01*
X235474Y-4432D01*
X235375Y-4377D01*
X235278Y-4319D01*
X235183Y-4257D01*
X235090Y-4192D01*
X235000Y-4124D01*
X234912Y-4053D01*
X234826Y-3978D01*
X234743Y-3901D01*
X234663Y-3821D01*
X234586Y-3738D01*
X234511Y-3652D01*
X234440Y-3564D01*
X234372Y-3474D01*
X234307Y-3381D01*
X234245Y-3286D01*
X234187Y-3189D01*
X234132Y-3090D01*
X234081Y-2989D01*
X234033Y-2886D01*
X233988Y-2782D01*
X233948Y-2676D01*
X233911Y-2569D01*
X233878Y-2461D01*
X233848Y-2351D01*
X233823Y-2241D01*
X233801Y-2130D01*
X233784Y-2018D01*
X233770Y-1905D01*
X233760Y-1792D01*
X233754Y-1679D01*
X233752Y-1566D01*
X245586Y-4812D02*
X245586Y6872D01*
X245586Y-4812D02*
X250779Y-4812D01*
X255201Y-268D02*
X262991Y-268D01*
X268497Y-4812D02*
X268497Y6872D01*
X271742Y6872D01*
X271855Y6870D01*
X271968Y6864D01*
X272081Y6854D01*
X272194Y6840D01*
X272306Y6823D01*
X272417Y6801D01*
X272527Y6776D01*
X272637Y6746D01*
X272745Y6713D01*
X272852Y6676D01*
X272958Y6636D01*
X273062Y6591D01*
X273165Y6543D01*
X273266Y6492D01*
X273365Y6437D01*
X273462Y6379D01*
X273557Y6317D01*
X273650Y6252D01*
X273740Y6184D01*
X273828Y6113D01*
X273914Y6038D01*
X273997Y5961D01*
X274077Y5881D01*
X274154Y5798D01*
X274229Y5712D01*
X274300Y5624D01*
X274368Y5534D01*
X274433Y5441D01*
X274495Y5346D01*
X274553Y5249D01*
X274608Y5150D01*
X274659Y5049D01*
X274707Y4946D01*
X274752Y4842D01*
X274792Y4736D01*
X274829Y4629D01*
X274862Y4521D01*
X274892Y4411D01*
X274917Y4301D01*
X274939Y4190D01*
X274956Y4078D01*
X274970Y3965D01*
X274980Y3852D01*
X274986Y3739D01*
X274988Y3626D01*
X274986Y3513D01*
X274980Y3400D01*
X274970Y3287D01*
X274956Y3174D01*
X274939Y3062D01*
X274917Y2951D01*
X274892Y2841D01*
X274862Y2731D01*
X274829Y2623D01*
X274792Y2516D01*
X274752Y2410D01*
X274707Y2306D01*
X274659Y2203D01*
X274608Y2102D01*
X274553Y2003D01*
X274495Y1906D01*
X274433Y1811D01*
X274368Y1718D01*
X274300Y1628D01*
X274229Y1540D01*
X274154Y1454D01*
X274077Y1371D01*
X273997Y1291D01*
X273914Y1214D01*
X273828Y1139D01*
X273740Y1068D01*
X273650Y1000D01*
X273557Y935D01*
X273462Y873D01*
X273365Y815D01*
X273266Y760D01*
X273165Y709D01*
X273062Y661D01*
X272958Y616D01*
X272852Y576D01*
X272745Y539D01*
X272637Y506D01*
X272527Y476D01*
X272417Y451D01*
X272306Y429D01*
X272194Y412D01*
X272081Y398D01*
X271968Y388D01*
X271855Y382D01*
X271742Y380D01*
X271742Y381D02*
X268497Y381D01*
X272392Y381D02*
X274988Y-4812D01*
X280257Y-4812D02*
X285450Y-4812D01*
X280257Y-4812D02*
X280257Y6872D01*
X285450Y6872D01*
X284152Y1679D02*
X280257Y1679D01*
X290163Y6872D02*
X290163Y-4812D01*
X295356Y-4812D01*
X299016Y-4812D02*
X302911Y6872D01*
X306806Y-4812D01*
X305832Y-1891D02*
X299990Y-1891D01*
X310446Y6872D02*
X314341Y1355D01*
X318236Y6872D01*
X314341Y1355D02*
X314341Y-4812D01*
X330604Y76708D02*
X333201Y76708D01*
X330604Y76708D02*
X330505Y76710D01*
X330405Y76716D01*
X330306Y76725D01*
X330208Y76738D01*
X330110Y76755D01*
X330012Y76776D01*
X329916Y76801D01*
X329821Y76829D01*
X329727Y76861D01*
X329634Y76896D01*
X329542Y76935D01*
X329452Y76978D01*
X329364Y77023D01*
X329277Y77073D01*
X329193Y77125D01*
X329110Y77181D01*
X329030Y77239D01*
X328952Y77301D01*
X328877Y77366D01*
X328804Y77434D01*
X328734Y77504D01*
X328666Y77577D01*
X328601Y77652D01*
X328539Y77730D01*
X328481Y77810D01*
X328425Y77893D01*
X328373Y77977D01*
X328323Y78064D01*
X328278Y78152D01*
X328235Y78242D01*
X328196Y78334D01*
X328161Y78427D01*
X328129Y78521D01*
X328101Y78616D01*
X328076Y78712D01*
X328055Y78810D01*
X328038Y78908D01*
X328025Y79006D01*
X328016Y79105D01*
X328010Y79205D01*
X328008Y79304D01*
X328008Y85796D01*
X328010Y85895D01*
X328016Y85995D01*
X328025Y86094D01*
X328038Y86192D01*
X328055Y86290D01*
X328076Y86388D01*
X328101Y86484D01*
X328129Y86579D01*
X328161Y86673D01*
X328196Y86766D01*
X328235Y86858D01*
X328278Y86948D01*
X328323Y87036D01*
X328373Y87123D01*
X328425Y87207D01*
X328481Y87290D01*
X328539Y87370D01*
X328601Y87448D01*
X328666Y87523D01*
X328734Y87596D01*
X328804Y87666D01*
X328877Y87734D01*
X328952Y87799D01*
X329030Y87861D01*
X329110Y87919D01*
X329193Y87975D01*
X329277Y88027D01*
X329364Y88077D01*
X329452Y88122D01*
X329542Y88165D01*
X329634Y88204D01*
X329726Y88239D01*
X329821Y88271D01*
X329916Y88299D01*
X330012Y88324D01*
X330110Y88345D01*
X330208Y88362D01*
X330306Y88375D01*
X330405Y88384D01*
X330505Y88390D01*
X330604Y88392D01*
X333201Y88392D01*
X337566Y85796D02*
X340812Y88392D01*
X340812Y76708D01*
X344057Y76708D02*
X337566Y76708D01*
X356004Y76708D02*
X358601Y76708D01*
X356004Y76708D02*
X355905Y76710D01*
X355805Y76716D01*
X355706Y76725D01*
X355608Y76738D01*
X355510Y76755D01*
X355412Y76776D01*
X355316Y76801D01*
X355221Y76829D01*
X355127Y76861D01*
X355034Y76896D01*
X354942Y76935D01*
X354852Y76978D01*
X354764Y77023D01*
X354677Y77073D01*
X354593Y77125D01*
X354510Y77181D01*
X354430Y77239D01*
X354352Y77301D01*
X354277Y77366D01*
X354204Y77434D01*
X354134Y77504D01*
X354066Y77577D01*
X354001Y77652D01*
X353939Y77730D01*
X353881Y77810D01*
X353825Y77893D01*
X353773Y77977D01*
X353723Y78064D01*
X353678Y78152D01*
X353635Y78242D01*
X353596Y78334D01*
X353561Y78427D01*
X353529Y78521D01*
X353501Y78616D01*
X353476Y78712D01*
X353455Y78810D01*
X353438Y78908D01*
X353425Y79006D01*
X353416Y79105D01*
X353410Y79205D01*
X353408Y79304D01*
X353408Y85796D01*
X353410Y85895D01*
X353416Y85995D01*
X353425Y86094D01*
X353438Y86192D01*
X353455Y86290D01*
X353476Y86388D01*
X353501Y86484D01*
X353529Y86579D01*
X353561Y86673D01*
X353596Y86766D01*
X353635Y86858D01*
X353678Y86948D01*
X353723Y87036D01*
X353773Y87123D01*
X353825Y87207D01*
X353881Y87290D01*
X353939Y87370D01*
X354001Y87448D01*
X354066Y87523D01*
X354134Y87596D01*
X354204Y87666D01*
X354277Y87734D01*
X354352Y87799D01*
X354430Y87861D01*
X354510Y87919D01*
X354593Y87975D01*
X354677Y88027D01*
X354764Y88077D01*
X354852Y88122D01*
X354942Y88165D01*
X355034Y88204D01*
X355126Y88239D01*
X355221Y88271D01*
X355316Y88299D01*
X355412Y88324D01*
X355510Y88345D01*
X355608Y88362D01*
X355706Y88375D01*
X355805Y88384D01*
X355905Y88390D01*
X356004Y88392D01*
X358601Y88392D01*
X366536Y88392D02*
X366643Y88390D01*
X366749Y88384D01*
X366855Y88374D01*
X366961Y88361D01*
X367067Y88343D01*
X367171Y88322D01*
X367275Y88297D01*
X367378Y88268D01*
X367479Y88236D01*
X367579Y88199D01*
X367678Y88159D01*
X367776Y88116D01*
X367872Y88069D01*
X367966Y88018D01*
X368058Y87964D01*
X368148Y87907D01*
X368236Y87847D01*
X368321Y87783D01*
X368404Y87716D01*
X368485Y87646D01*
X368563Y87574D01*
X368639Y87498D01*
X368711Y87420D01*
X368781Y87339D01*
X368848Y87256D01*
X368912Y87171D01*
X368972Y87083D01*
X369029Y86993D01*
X369083Y86901D01*
X369134Y86807D01*
X369181Y86711D01*
X369224Y86613D01*
X369264Y86514D01*
X369301Y86414D01*
X369333Y86313D01*
X369362Y86210D01*
X369387Y86106D01*
X369408Y86002D01*
X369426Y85896D01*
X369439Y85790D01*
X369449Y85684D01*
X369455Y85578D01*
X369457Y85471D01*
X366536Y88392D02*
X366415Y88390D01*
X366294Y88384D01*
X366174Y88374D01*
X366053Y88361D01*
X365934Y88343D01*
X365814Y88322D01*
X365696Y88297D01*
X365579Y88268D01*
X365462Y88235D01*
X365347Y88199D01*
X365233Y88158D01*
X365120Y88115D01*
X365008Y88067D01*
X364899Y88016D01*
X364791Y87961D01*
X364684Y87903D01*
X364580Y87842D01*
X364478Y87777D01*
X364378Y87709D01*
X364280Y87638D01*
X364184Y87564D01*
X364091Y87487D01*
X364001Y87406D01*
X363913Y87323D01*
X363828Y87237D01*
X363745Y87148D01*
X363666Y87057D01*
X363589Y86963D01*
X363516Y86867D01*
X363446Y86769D01*
X363379Y86668D01*
X363315Y86565D01*
X363255Y86460D01*
X363198Y86353D01*
X363144Y86245D01*
X363094Y86135D01*
X363048Y86023D01*
X363005Y85910D01*
X362966Y85795D01*
X368484Y83199D02*
X368563Y83276D01*
X368639Y83357D01*
X368712Y83440D01*
X368782Y83525D01*
X368849Y83613D01*
X368913Y83703D01*
X368973Y83795D01*
X369030Y83890D01*
X369084Y83986D01*
X369135Y84084D01*
X369182Y84184D01*
X369226Y84286D01*
X369266Y84389D01*
X369302Y84493D01*
X369334Y84599D01*
X369363Y84705D01*
X369388Y84813D01*
X369410Y84921D01*
X369427Y85031D01*
X369441Y85140D01*
X369450Y85250D01*
X369456Y85361D01*
X369458Y85471D01*
X368484Y83199D02*
X362966Y76708D01*
X369457Y76708D01*
X221601Y216408D02*
X219004Y216408D01*
X218905Y216410D01*
X218805Y216416D01*
X218706Y216425D01*
X218608Y216438D01*
X218510Y216455D01*
X218412Y216476D01*
X218316Y216501D01*
X218221Y216529D01*
X218127Y216561D01*
X218034Y216596D01*
X217942Y216635D01*
X217852Y216678D01*
X217764Y216723D01*
X217677Y216773D01*
X217593Y216825D01*
X217510Y216881D01*
X217430Y216939D01*
X217352Y217001D01*
X217277Y217066D01*
X217204Y217134D01*
X217134Y217204D01*
X217066Y217277D01*
X217001Y217352D01*
X216939Y217430D01*
X216881Y217510D01*
X216825Y217593D01*
X216773Y217677D01*
X216723Y217764D01*
X216678Y217852D01*
X216635Y217942D01*
X216596Y218034D01*
X216561Y218127D01*
X216529Y218221D01*
X216501Y218316D01*
X216476Y218412D01*
X216455Y218510D01*
X216438Y218608D01*
X216425Y218706D01*
X216416Y218805D01*
X216410Y218905D01*
X216408Y219004D01*
X216408Y225496D01*
X216410Y225595D01*
X216416Y225695D01*
X216425Y225794D01*
X216438Y225892D01*
X216455Y225990D01*
X216476Y226088D01*
X216501Y226184D01*
X216529Y226279D01*
X216561Y226373D01*
X216596Y226466D01*
X216635Y226558D01*
X216678Y226648D01*
X216723Y226736D01*
X216773Y226823D01*
X216825Y226907D01*
X216881Y226990D01*
X216939Y227070D01*
X217001Y227148D01*
X217066Y227223D01*
X217134Y227296D01*
X217204Y227366D01*
X217277Y227434D01*
X217352Y227499D01*
X217430Y227561D01*
X217510Y227619D01*
X217593Y227675D01*
X217677Y227727D01*
X217764Y227777D01*
X217852Y227822D01*
X217942Y227865D01*
X218034Y227904D01*
X218126Y227939D01*
X218221Y227971D01*
X218316Y227999D01*
X218412Y228024D01*
X218510Y228045D01*
X218608Y228062D01*
X218706Y228075D01*
X218805Y228084D01*
X218905Y228090D01*
X219004Y228092D01*
X221601Y228092D01*
X225966Y216408D02*
X229212Y216408D01*
X229325Y216410D01*
X229438Y216416D01*
X229551Y216426D01*
X229664Y216440D01*
X229776Y216457D01*
X229887Y216479D01*
X229997Y216504D01*
X230107Y216534D01*
X230215Y216567D01*
X230322Y216604D01*
X230428Y216644D01*
X230532Y216689D01*
X230635Y216737D01*
X230736Y216788D01*
X230835Y216843D01*
X230932Y216901D01*
X231027Y216963D01*
X231120Y217028D01*
X231210Y217096D01*
X231298Y217167D01*
X231384Y217242D01*
X231467Y217319D01*
X231547Y217399D01*
X231624Y217482D01*
X231699Y217568D01*
X231770Y217656D01*
X231838Y217746D01*
X231903Y217839D01*
X231965Y217934D01*
X232023Y218031D01*
X232078Y218130D01*
X232129Y218231D01*
X232177Y218334D01*
X232222Y218438D01*
X232262Y218544D01*
X232299Y218651D01*
X232332Y218759D01*
X232362Y218869D01*
X232387Y218979D01*
X232409Y219090D01*
X232426Y219202D01*
X232440Y219315D01*
X232450Y219428D01*
X232456Y219541D01*
X232458Y219654D01*
X232456Y219767D01*
X232450Y219880D01*
X232440Y219993D01*
X232426Y220106D01*
X232409Y220218D01*
X232387Y220329D01*
X232362Y220439D01*
X232332Y220549D01*
X232299Y220657D01*
X232262Y220764D01*
X232222Y220870D01*
X232177Y220974D01*
X232129Y221077D01*
X232078Y221178D01*
X232023Y221277D01*
X231965Y221374D01*
X231903Y221469D01*
X231838Y221562D01*
X231770Y221652D01*
X231699Y221740D01*
X231624Y221826D01*
X231547Y221909D01*
X231467Y221989D01*
X231384Y222066D01*
X231298Y222141D01*
X231210Y222212D01*
X231120Y222280D01*
X231027Y222345D01*
X230932Y222407D01*
X230835Y222465D01*
X230736Y222520D01*
X230635Y222571D01*
X230532Y222619D01*
X230428Y222664D01*
X230322Y222704D01*
X230215Y222741D01*
X230107Y222774D01*
X229997Y222804D01*
X229887Y222829D01*
X229776Y222851D01*
X229664Y222868D01*
X229551Y222882D01*
X229438Y222892D01*
X229325Y222898D01*
X229212Y222900D01*
X229861Y228092D02*
X225966Y228092D01*
X229861Y228092D02*
X229962Y228090D01*
X230062Y228084D01*
X230162Y228074D01*
X230262Y228061D01*
X230361Y228043D01*
X230460Y228022D01*
X230557Y227997D01*
X230654Y227968D01*
X230749Y227935D01*
X230843Y227899D01*
X230935Y227859D01*
X231026Y227816D01*
X231115Y227769D01*
X231202Y227719D01*
X231288Y227665D01*
X231371Y227608D01*
X231451Y227548D01*
X231530Y227485D01*
X231606Y227418D01*
X231679Y227349D01*
X231749Y227277D01*
X231817Y227203D01*
X231882Y227126D01*
X231943Y227046D01*
X232002Y226964D01*
X232057Y226880D01*
X232109Y226794D01*
X232158Y226706D01*
X232203Y226616D01*
X232245Y226524D01*
X232283Y226431D01*
X232317Y226336D01*
X232348Y226241D01*
X232375Y226144D01*
X232398Y226046D01*
X232418Y225947D01*
X232433Y225847D01*
X232445Y225747D01*
X232453Y225647D01*
X232457Y225546D01*
X232457Y225446D01*
X232453Y225345D01*
X232445Y225245D01*
X232433Y225145D01*
X232418Y225045D01*
X232398Y224946D01*
X232375Y224848D01*
X232348Y224751D01*
X232317Y224656D01*
X232283Y224561D01*
X232245Y224468D01*
X232203Y224376D01*
X232158Y224286D01*
X232109Y224198D01*
X232057Y224112D01*
X232002Y224028D01*
X231943Y223946D01*
X231882Y223866D01*
X231817Y223789D01*
X231749Y223715D01*
X231679Y223643D01*
X231606Y223574D01*
X231530Y223507D01*
X231451Y223444D01*
X231371Y223384D01*
X231288Y223327D01*
X231202Y223273D01*
X231115Y223223D01*
X231026Y223176D01*
X230935Y223133D01*
X230843Y223093D01*
X230749Y223057D01*
X230654Y223024D01*
X230557Y222995D01*
X230460Y222970D01*
X230361Y222949D01*
X230262Y222931D01*
X230162Y222918D01*
X230062Y222908D01*
X229962Y222902D01*
X229861Y222900D01*
X229861Y222899D02*
X227264Y222899D01*
D14*
X401320Y240792D02*
X401320Y318008D01*
X391922Y318008D01*
X30480Y318008D02*
X30480Y240792D01*
X39878Y240792D01*
X61722Y240792D02*
X65278Y240792D01*
X87122Y240792D02*
X90678Y240792D01*
X112522Y240792D02*
X116078Y240792D01*
X137922Y240792D02*
X141478Y240792D01*
X163322Y240792D02*
X166878Y240792D01*
X188722Y240792D02*
X192278Y240792D01*
X214122Y240792D02*
X217678Y240792D01*
X239522Y240792D02*
X243078Y240792D01*
X264922Y240792D02*
X268478Y240792D01*
X290322Y240792D02*
X293878Y240792D01*
X315722Y240792D02*
X319278Y240792D01*
X341122Y240792D02*
X344678Y240792D01*
X366522Y240792D02*
X370078Y240792D01*
X391922Y240792D02*
X401320Y240792D01*
X370078Y318008D02*
X366522Y318008D01*
X344678Y318008D02*
X341122Y318008D01*
X319278Y318008D02*
X315722Y318008D01*
X293878Y318008D02*
X290322Y318008D01*
X268478Y318008D02*
X264922Y318008D01*
X243078Y318008D02*
X239522Y318008D01*
X217678Y318008D02*
X214122Y318008D01*
X192278Y318008D02*
X188722Y318008D01*
X166878Y318008D02*
X163322Y318008D01*
X141478Y318008D02*
X137922Y318008D01*
X116078Y318008D02*
X112522Y318008D01*
X90678Y318008D02*
X87122Y318008D01*
X65278Y318008D02*
X61722Y318008D01*
X39878Y318008D02*
X30480Y318008D01*
D10*
X32907Y239487D02*
X36886Y239487D01*
X39871Y241808D01*
X36886Y239487D02*
X39871Y237165D01*
X36886Y239487D02*
X35560Y243134D01*
X36886Y239487D02*
X35560Y235839D01*
X197231Y335115D02*
X197231Y347053D01*
X201210Y340421D01*
X205190Y347053D01*
X205190Y335115D01*
X213091Y335115D02*
X215744Y335115D01*
X213091Y335115D02*
X212989Y335117D01*
X212888Y335123D01*
X212787Y335133D01*
X212686Y335146D01*
X212586Y335164D01*
X212487Y335185D01*
X212388Y335210D01*
X212291Y335239D01*
X212194Y335271D01*
X212099Y335307D01*
X212006Y335347D01*
X211914Y335390D01*
X211824Y335437D01*
X211735Y335488D01*
X211649Y335541D01*
X211565Y335598D01*
X211483Y335658D01*
X211403Y335721D01*
X211326Y335787D01*
X211251Y335856D01*
X211179Y335928D01*
X211110Y336003D01*
X211044Y336080D01*
X210981Y336160D01*
X210921Y336242D01*
X210864Y336326D01*
X210811Y336412D01*
X210760Y336501D01*
X210713Y336591D01*
X210670Y336683D01*
X210630Y336776D01*
X210594Y336871D01*
X210562Y336968D01*
X210533Y337065D01*
X210508Y337164D01*
X210487Y337263D01*
X210469Y337363D01*
X210456Y337464D01*
X210446Y337565D01*
X210440Y337666D01*
X210438Y337768D01*
X210438Y344400D01*
X210440Y344502D01*
X210446Y344603D01*
X210456Y344704D01*
X210469Y344805D01*
X210487Y344905D01*
X210508Y345004D01*
X210533Y345103D01*
X210562Y345200D01*
X210594Y345297D01*
X210630Y345392D01*
X210670Y345485D01*
X210713Y345577D01*
X210760Y345667D01*
X210811Y345756D01*
X210864Y345842D01*
X210921Y345926D01*
X210981Y346008D01*
X211044Y346088D01*
X211110Y346165D01*
X211179Y346240D01*
X211251Y346312D01*
X211326Y346381D01*
X211403Y346447D01*
X211483Y346510D01*
X211565Y346570D01*
X211649Y346627D01*
X211735Y346680D01*
X211824Y346731D01*
X211914Y346778D01*
X212006Y346821D01*
X212099Y346861D01*
X212194Y346897D01*
X212291Y346929D01*
X212388Y346958D01*
X212486Y346983D01*
X212586Y347004D01*
X212686Y347022D01*
X212787Y347035D01*
X212888Y347045D01*
X212989Y347051D01*
X213091Y347053D01*
X215744Y347053D01*
X220373Y347053D02*
X220373Y338431D01*
X220375Y338317D01*
X220381Y338202D01*
X220391Y338088D01*
X220405Y337975D01*
X220422Y337861D01*
X220444Y337749D01*
X220469Y337637D01*
X220499Y337527D01*
X220532Y337417D01*
X220569Y337309D01*
X220609Y337202D01*
X220654Y337096D01*
X220701Y336992D01*
X220753Y336890D01*
X220808Y336790D01*
X220866Y336691D01*
X220928Y336595D01*
X220993Y336500D01*
X221061Y336409D01*
X221133Y336319D01*
X221207Y336232D01*
X221284Y336148D01*
X221365Y336066D01*
X221448Y335987D01*
X221533Y335911D01*
X221622Y335838D01*
X221712Y335769D01*
X221805Y335702D01*
X221901Y335639D01*
X221998Y335579D01*
X222098Y335522D01*
X222199Y335469D01*
X222302Y335419D01*
X222407Y335373D01*
X222513Y335330D01*
X222621Y335292D01*
X222730Y335257D01*
X222840Y335226D01*
X222951Y335198D01*
X223063Y335175D01*
X223176Y335155D01*
X223289Y335139D01*
X223403Y335127D01*
X223517Y335119D01*
X223632Y335115D01*
X223746Y335115D01*
X223861Y335119D01*
X223975Y335127D01*
X224089Y335139D01*
X224202Y335155D01*
X224315Y335175D01*
X224427Y335198D01*
X224538Y335226D01*
X224648Y335257D01*
X224757Y335292D01*
X224865Y335330D01*
X224971Y335373D01*
X225076Y335419D01*
X225179Y335469D01*
X225280Y335522D01*
X225380Y335579D01*
X225477Y335639D01*
X225573Y335702D01*
X225666Y335769D01*
X225756Y335838D01*
X225845Y335911D01*
X225930Y335987D01*
X226013Y336066D01*
X226094Y336148D01*
X226171Y336232D01*
X226245Y336319D01*
X226317Y336409D01*
X226385Y336500D01*
X226450Y336595D01*
X226512Y336691D01*
X226570Y336790D01*
X226625Y336890D01*
X226677Y336992D01*
X226724Y337096D01*
X226769Y337202D01*
X226809Y337309D01*
X226846Y337417D01*
X226879Y337527D01*
X226909Y337637D01*
X226934Y337749D01*
X226956Y337861D01*
X226973Y337975D01*
X226987Y338088D01*
X226997Y338202D01*
X227003Y338317D01*
X227005Y338431D01*
X227005Y347053D01*
D14*
X184150Y203200D02*
X177800Y196850D01*
X184150Y203200D02*
X196850Y203200D01*
X203200Y196850D01*
X203200Y184150D01*
X196850Y177800D01*
X184150Y177800D01*
X177800Y184150D01*
X146050Y203200D02*
X133350Y203200D01*
X146050Y203200D02*
X152400Y196850D01*
X152400Y184150D01*
X146050Y177800D01*
X152400Y196850D02*
X158750Y203200D01*
X171450Y203200D01*
X177800Y196850D01*
X177800Y184150D01*
X171450Y177800D01*
X158750Y177800D01*
X152400Y184150D01*
X127000Y184150D02*
X127000Y196850D01*
X133350Y203200D01*
X127000Y184150D02*
X133350Y177800D01*
X146050Y177800D01*
X209550Y203200D02*
X222250Y203200D01*
X228600Y196850D01*
X228600Y184150D01*
X222250Y177800D01*
X203200Y196850D02*
X209550Y203200D01*
X203200Y184150D02*
X209550Y177800D01*
X222250Y177800D01*
D15*
X78773Y209423D02*
X78773Y220853D01*
X81948Y220853D01*
X82059Y220851D01*
X82169Y220845D01*
X82280Y220836D01*
X82390Y220822D01*
X82499Y220805D01*
X82608Y220784D01*
X82716Y220759D01*
X82823Y220730D01*
X82929Y220698D01*
X83034Y220662D01*
X83137Y220622D01*
X83239Y220579D01*
X83340Y220532D01*
X83439Y220481D01*
X83536Y220428D01*
X83630Y220371D01*
X83723Y220310D01*
X83814Y220247D01*
X83903Y220180D01*
X83989Y220110D01*
X84072Y220037D01*
X84154Y219962D01*
X84232Y219884D01*
X84307Y219802D01*
X84380Y219719D01*
X84450Y219633D01*
X84517Y219544D01*
X84580Y219453D01*
X84641Y219360D01*
X84698Y219265D01*
X84751Y219169D01*
X84802Y219070D01*
X84849Y218969D01*
X84892Y218867D01*
X84932Y218764D01*
X84968Y218659D01*
X85000Y218553D01*
X85029Y218446D01*
X85054Y218338D01*
X85075Y218229D01*
X85092Y218120D01*
X85106Y218010D01*
X85115Y217899D01*
X85121Y217789D01*
X85123Y217678D01*
X85121Y217567D01*
X85115Y217457D01*
X85106Y217346D01*
X85092Y217236D01*
X85075Y217127D01*
X85054Y217018D01*
X85029Y216910D01*
X85000Y216803D01*
X84968Y216697D01*
X84932Y216592D01*
X84892Y216489D01*
X84849Y216387D01*
X84802Y216286D01*
X84751Y216187D01*
X84698Y216090D01*
X84641Y215996D01*
X84580Y215903D01*
X84517Y215812D01*
X84450Y215723D01*
X84380Y215637D01*
X84307Y215554D01*
X84232Y215472D01*
X84154Y215394D01*
X84072Y215319D01*
X83989Y215246D01*
X83903Y215176D01*
X83814Y215109D01*
X83723Y215046D01*
X83630Y214985D01*
X83535Y214928D01*
X83439Y214875D01*
X83340Y214824D01*
X83239Y214777D01*
X83137Y214734D01*
X83034Y214694D01*
X82929Y214658D01*
X82823Y214626D01*
X82716Y214597D01*
X82608Y214572D01*
X82499Y214551D01*
X82390Y214534D01*
X82280Y214520D01*
X82169Y214511D01*
X82059Y214505D01*
X81948Y214503D01*
X78773Y214503D01*
X90521Y209423D02*
X90521Y220853D01*
X89251Y209423D02*
X91791Y209423D01*
X91791Y220853D02*
X89251Y220853D01*
X96953Y220853D02*
X96953Y209423D01*
X96953Y220853D02*
X100128Y220853D01*
X100239Y220851D01*
X100349Y220845D01*
X100460Y220836D01*
X100570Y220822D01*
X100679Y220805D01*
X100788Y220784D01*
X100896Y220759D01*
X101003Y220730D01*
X101109Y220698D01*
X101214Y220662D01*
X101317Y220622D01*
X101419Y220579D01*
X101520Y220532D01*
X101619Y220481D01*
X101716Y220428D01*
X101810Y220371D01*
X101903Y220310D01*
X101994Y220247D01*
X102083Y220180D01*
X102169Y220110D01*
X102252Y220037D01*
X102334Y219962D01*
X102412Y219884D01*
X102487Y219802D01*
X102560Y219719D01*
X102630Y219633D01*
X102697Y219544D01*
X102760Y219453D01*
X102821Y219360D01*
X102878Y219265D01*
X102931Y219169D01*
X102982Y219070D01*
X103029Y218969D01*
X103072Y218867D01*
X103112Y218764D01*
X103148Y218659D01*
X103180Y218553D01*
X103209Y218446D01*
X103234Y218338D01*
X103255Y218229D01*
X103272Y218120D01*
X103286Y218010D01*
X103295Y217899D01*
X103301Y217789D01*
X103303Y217678D01*
X103301Y217567D01*
X103295Y217457D01*
X103286Y217346D01*
X103272Y217236D01*
X103255Y217127D01*
X103234Y217018D01*
X103209Y216910D01*
X103180Y216803D01*
X103148Y216697D01*
X103112Y216592D01*
X103072Y216489D01*
X103029Y216387D01*
X102982Y216286D01*
X102931Y216187D01*
X102878Y216090D01*
X102821Y215996D01*
X102760Y215903D01*
X102697Y215812D01*
X102630Y215723D01*
X102560Y215637D01*
X102487Y215554D01*
X102412Y215472D01*
X102334Y215394D01*
X102252Y215319D01*
X102169Y215246D01*
X102083Y215176D01*
X101994Y215109D01*
X101903Y215046D01*
X101810Y214985D01*
X101715Y214928D01*
X101619Y214875D01*
X101520Y214824D01*
X101419Y214777D01*
X101317Y214734D01*
X101214Y214694D01*
X101109Y214658D01*
X101003Y214626D01*
X100896Y214597D01*
X100788Y214572D01*
X100679Y214551D01*
X100570Y214534D01*
X100460Y214520D01*
X100349Y214511D01*
X100239Y214505D01*
X100128Y214503D01*
X96953Y214503D01*
X100763Y214503D02*
X103303Y209423D01*
X108427Y213868D02*
X116047Y213868D01*
X124683Y209423D02*
X124783Y209425D01*
X124882Y209431D01*
X124982Y209441D01*
X125080Y209454D01*
X125179Y209472D01*
X125276Y209493D01*
X125372Y209518D01*
X125468Y209547D01*
X125562Y209580D01*
X125655Y209616D01*
X125746Y209656D01*
X125836Y209700D01*
X125924Y209747D01*
X126010Y209797D01*
X126094Y209851D01*
X126176Y209908D01*
X126255Y209968D01*
X126333Y210032D01*
X126407Y210098D01*
X126479Y210167D01*
X126548Y210239D01*
X126614Y210313D01*
X126678Y210391D01*
X126738Y210470D01*
X126795Y210552D01*
X126849Y210636D01*
X126899Y210722D01*
X126946Y210810D01*
X126990Y210900D01*
X127030Y210991D01*
X127066Y211084D01*
X127099Y211178D01*
X127128Y211274D01*
X127153Y211370D01*
X127174Y211467D01*
X127192Y211566D01*
X127205Y211664D01*
X127215Y211764D01*
X127221Y211863D01*
X127223Y211963D01*
X124683Y209423D02*
X124542Y209425D01*
X124401Y209430D01*
X124260Y209440D01*
X124119Y209453D01*
X123979Y209469D01*
X123839Y209490D01*
X123700Y209514D01*
X123561Y209542D01*
X123424Y209573D01*
X123287Y209608D01*
X123151Y209646D01*
X123016Y209688D01*
X122883Y209734D01*
X122750Y209783D01*
X122619Y209836D01*
X122490Y209892D01*
X122361Y209951D01*
X122235Y210014D01*
X122110Y210080D01*
X121987Y210149D01*
X121866Y210222D01*
X121747Y210298D01*
X121629Y210377D01*
X121514Y210458D01*
X121402Y210543D01*
X121291Y210631D01*
X121183Y210722D01*
X121077Y210815D01*
X120974Y210912D01*
X120873Y211011D01*
X121191Y218313D02*
X121193Y218413D01*
X121199Y218512D01*
X121209Y218612D01*
X121222Y218710D01*
X121240Y218809D01*
X121261Y218906D01*
X121286Y219002D01*
X121315Y219098D01*
X121348Y219192D01*
X121384Y219285D01*
X121424Y219376D01*
X121468Y219466D01*
X121515Y219554D01*
X121565Y219640D01*
X121619Y219724D01*
X121676Y219806D01*
X121736Y219885D01*
X121800Y219963D01*
X121866Y220037D01*
X121935Y220109D01*
X122007Y220178D01*
X122081Y220244D01*
X122159Y220308D01*
X122238Y220368D01*
X122320Y220425D01*
X122404Y220479D01*
X122490Y220529D01*
X122578Y220576D01*
X122668Y220620D01*
X122759Y220660D01*
X122852Y220696D01*
X122946Y220729D01*
X123042Y220758D01*
X123138Y220783D01*
X123235Y220804D01*
X123334Y220822D01*
X123432Y220835D01*
X123532Y220845D01*
X123631Y220851D01*
X123731Y220853D01*
X123731Y220854D02*
X123864Y220852D01*
X123997Y220847D01*
X124130Y220837D01*
X124263Y220824D01*
X124395Y220807D01*
X124527Y220787D01*
X124658Y220763D01*
X124788Y220735D01*
X124918Y220704D01*
X125046Y220669D01*
X125174Y220630D01*
X125300Y220588D01*
X125425Y220542D01*
X125549Y220493D01*
X125672Y220441D01*
X125793Y220385D01*
X125912Y220325D01*
X126030Y220263D01*
X126145Y220197D01*
X126259Y220128D01*
X126371Y220055D01*
X126481Y219980D01*
X126589Y219901D01*
X122461Y216090D02*
X122377Y216142D01*
X122294Y216197D01*
X122214Y216256D01*
X122136Y216317D01*
X122061Y216381D01*
X121988Y216449D01*
X121917Y216519D01*
X121850Y216591D01*
X121785Y216666D01*
X121723Y216744D01*
X121664Y216824D01*
X121608Y216906D01*
X121556Y216990D01*
X121507Y217076D01*
X121461Y217164D01*
X121418Y217254D01*
X121379Y217345D01*
X121344Y217438D01*
X121312Y217532D01*
X121284Y217627D01*
X121259Y217723D01*
X121239Y217820D01*
X121221Y217918D01*
X121208Y218016D01*
X121199Y218115D01*
X121193Y218214D01*
X121191Y218313D01*
X125954Y214186D02*
X126038Y214134D01*
X126121Y214079D01*
X126201Y214020D01*
X126279Y213959D01*
X126354Y213895D01*
X126427Y213827D01*
X126498Y213757D01*
X126565Y213685D01*
X126630Y213610D01*
X126692Y213532D01*
X126751Y213452D01*
X126807Y213370D01*
X126859Y213286D01*
X126908Y213200D01*
X126954Y213112D01*
X126997Y213022D01*
X127036Y212931D01*
X127071Y212838D01*
X127103Y212744D01*
X127131Y212649D01*
X127156Y212553D01*
X127176Y212456D01*
X127194Y212358D01*
X127207Y212260D01*
X127216Y212161D01*
X127222Y212062D01*
X127224Y211963D01*
X125953Y214186D02*
X122461Y216091D01*
X132329Y209423D02*
X137409Y209423D01*
X132329Y209423D02*
X132329Y220853D01*
X137409Y220853D01*
X136139Y215773D02*
X132329Y215773D01*
X142209Y220853D02*
X142209Y209423D01*
X148559Y209423D02*
X142209Y220853D01*
X148559Y220853D02*
X148559Y209423D01*
X157449Y209423D02*
X157549Y209425D01*
X157648Y209431D01*
X157748Y209441D01*
X157846Y209454D01*
X157945Y209472D01*
X158042Y209493D01*
X158138Y209518D01*
X158234Y209547D01*
X158328Y209580D01*
X158421Y209616D01*
X158512Y209656D01*
X158602Y209700D01*
X158690Y209747D01*
X158776Y209797D01*
X158860Y209851D01*
X158942Y209908D01*
X159021Y209968D01*
X159099Y210032D01*
X159173Y210098D01*
X159245Y210167D01*
X159314Y210239D01*
X159380Y210313D01*
X159444Y210391D01*
X159504Y210470D01*
X159561Y210552D01*
X159615Y210636D01*
X159665Y210722D01*
X159712Y210810D01*
X159756Y210900D01*
X159796Y210991D01*
X159832Y211084D01*
X159865Y211178D01*
X159894Y211274D01*
X159919Y211370D01*
X159940Y211467D01*
X159958Y211566D01*
X159971Y211664D01*
X159981Y211764D01*
X159987Y211863D01*
X159989Y211963D01*
X157449Y209423D02*
X157308Y209425D01*
X157167Y209430D01*
X157026Y209440D01*
X156885Y209453D01*
X156745Y209469D01*
X156605Y209490D01*
X156466Y209514D01*
X156327Y209542D01*
X156190Y209573D01*
X156053Y209608D01*
X155917Y209646D01*
X155782Y209688D01*
X155649Y209734D01*
X155516Y209783D01*
X155385Y209836D01*
X155256Y209892D01*
X155127Y209951D01*
X155001Y210014D01*
X154876Y210080D01*
X154753Y210149D01*
X154632Y210222D01*
X154513Y210298D01*
X154395Y210377D01*
X154280Y210458D01*
X154168Y210543D01*
X154057Y210631D01*
X153949Y210722D01*
X153843Y210815D01*
X153740Y210912D01*
X153639Y211011D01*
X153957Y218313D02*
X153959Y218413D01*
X153965Y218512D01*
X153975Y218612D01*
X153988Y218710D01*
X154006Y218809D01*
X154027Y218906D01*
X154052Y219002D01*
X154081Y219098D01*
X154114Y219192D01*
X154150Y219285D01*
X154190Y219376D01*
X154234Y219466D01*
X154281Y219554D01*
X154331Y219640D01*
X154385Y219724D01*
X154442Y219806D01*
X154502Y219885D01*
X154566Y219963D01*
X154632Y220037D01*
X154701Y220109D01*
X154773Y220178D01*
X154847Y220244D01*
X154925Y220308D01*
X155004Y220368D01*
X155086Y220425D01*
X155170Y220479D01*
X155256Y220529D01*
X155344Y220576D01*
X155434Y220620D01*
X155525Y220660D01*
X155618Y220696D01*
X155712Y220729D01*
X155808Y220758D01*
X155904Y220783D01*
X156001Y220804D01*
X156100Y220822D01*
X156198Y220835D01*
X156298Y220845D01*
X156397Y220851D01*
X156497Y220853D01*
X156497Y220854D02*
X156630Y220852D01*
X156763Y220847D01*
X156896Y220837D01*
X157029Y220824D01*
X157161Y220807D01*
X157293Y220787D01*
X157424Y220763D01*
X157554Y220735D01*
X157684Y220704D01*
X157812Y220669D01*
X157940Y220630D01*
X158066Y220588D01*
X158191Y220542D01*
X158315Y220493D01*
X158438Y220441D01*
X158559Y220385D01*
X158678Y220325D01*
X158796Y220263D01*
X158911Y220197D01*
X159025Y220128D01*
X159137Y220055D01*
X159247Y219980D01*
X159355Y219901D01*
X155227Y216090D02*
X155143Y216142D01*
X155060Y216197D01*
X154980Y216256D01*
X154902Y216317D01*
X154827Y216381D01*
X154754Y216449D01*
X154683Y216519D01*
X154616Y216591D01*
X154551Y216666D01*
X154489Y216744D01*
X154430Y216824D01*
X154374Y216906D01*
X154322Y216990D01*
X154273Y217076D01*
X154227Y217164D01*
X154184Y217254D01*
X154145Y217345D01*
X154110Y217438D01*
X154078Y217532D01*
X154050Y217627D01*
X154025Y217723D01*
X154005Y217820D01*
X153987Y217918D01*
X153974Y218016D01*
X153965Y218115D01*
X153959Y218214D01*
X153957Y218313D01*
X158720Y214186D02*
X158804Y214134D01*
X158887Y214079D01*
X158967Y214020D01*
X159045Y213959D01*
X159120Y213895D01*
X159193Y213827D01*
X159264Y213757D01*
X159331Y213685D01*
X159396Y213610D01*
X159458Y213532D01*
X159517Y213452D01*
X159573Y213370D01*
X159625Y213286D01*
X159674Y213200D01*
X159720Y213112D01*
X159763Y213022D01*
X159802Y212931D01*
X159837Y212838D01*
X159869Y212744D01*
X159897Y212649D01*
X159922Y212553D01*
X159942Y212456D01*
X159960Y212358D01*
X159973Y212260D01*
X159982Y212161D01*
X159988Y212062D01*
X159990Y211963D01*
X158719Y214186D02*
X155227Y216091D01*
D16*
X261620Y224790D02*
X322580Y224790D01*
X322580Y181610D02*
X261620Y181610D01*
D14*
X261620Y219710D02*
X322580Y219710D01*
X322580Y186690D02*
X261620Y186690D01*
X289560Y195580D02*
X294640Y195580D01*
X289560Y195580D02*
X289560Y210820D01*
X294640Y210820D01*
X294640Y195580D01*
X285750Y195580D02*
X285750Y203200D01*
X285750Y210820D01*
X298450Y203200D02*
X298450Y195580D01*
X298450Y203200D02*
X298450Y210820D01*
X285750Y203200D02*
X279400Y203200D01*
X298450Y203200D02*
X304800Y203200D01*
D16*
X322580Y181610D02*
X323106Y181616D01*
X323631Y181636D01*
X324156Y181668D01*
X324680Y181712D01*
X325202Y181770D01*
X325724Y181840D01*
X326243Y181923D01*
X326760Y182018D01*
X327274Y182127D01*
X327786Y182247D01*
X328295Y182380D01*
X328800Y182525D01*
X329302Y182683D01*
X329799Y182853D01*
X330293Y183035D01*
X330781Y183228D01*
X331265Y183434D01*
X331744Y183651D01*
X332217Y183880D01*
X332685Y184121D01*
X333147Y184372D01*
X333602Y184635D01*
X334051Y184909D01*
X334493Y185194D01*
X334928Y185489D01*
X335355Y185795D01*
X335775Y186112D01*
X336187Y186438D01*
X336592Y186774D01*
X336987Y187120D01*
X337375Y187476D01*
X337753Y187841D01*
X338123Y188215D01*
X338483Y188598D01*
X338834Y188989D01*
X339175Y189389D01*
X339506Y189798D01*
X339828Y190214D01*
X340139Y190638D01*
X340440Y191069D01*
X340730Y191507D01*
X341009Y191953D01*
X341277Y192405D01*
X341535Y192864D01*
X341781Y193328D01*
X342016Y193799D01*
X342239Y194275D01*
X342450Y194756D01*
X342650Y195242D01*
X342838Y195733D01*
X343014Y196229D01*
X343177Y196729D01*
X343329Y197232D01*
X343468Y197739D01*
X343595Y198249D01*
X343709Y198763D01*
X343811Y199278D01*
X343900Y199797D01*
X343977Y200317D01*
X344040Y200839D01*
X344092Y201362D01*
X344130Y201886D01*
X344156Y202411D01*
X344168Y202937D01*
X344168Y203463D01*
X344156Y203989D01*
X344130Y204514D01*
X344092Y205038D01*
X344040Y205561D01*
X343977Y206083D01*
X343900Y206603D01*
X343811Y207122D01*
X343709Y207637D01*
X343595Y208151D01*
X343468Y208661D01*
X343329Y209168D01*
X343177Y209671D01*
X343014Y210171D01*
X342838Y210667D01*
X342650Y211158D01*
X342450Y211644D01*
X342239Y212125D01*
X342016Y212601D01*
X341781Y213072D01*
X341535Y213536D01*
X341277Y213995D01*
X341009Y214447D01*
X340730Y214893D01*
X340440Y215331D01*
X340139Y215762D01*
X339828Y216186D01*
X339506Y216602D01*
X339175Y217011D01*
X338834Y217411D01*
X338483Y217802D01*
X338123Y218185D01*
X337753Y218559D01*
X337375Y218924D01*
X336987Y219280D01*
X336592Y219626D01*
X336187Y219962D01*
X335775Y220288D01*
X335355Y220605D01*
X334928Y220911D01*
X334493Y221206D01*
X334051Y221491D01*
X333602Y221765D01*
X333147Y222028D01*
X332685Y222279D01*
X332217Y222520D01*
X331744Y222749D01*
X331265Y222966D01*
X330781Y223172D01*
X330293Y223365D01*
X329799Y223547D01*
X329302Y223717D01*
X328800Y223875D01*
X328295Y224020D01*
X327786Y224153D01*
X327274Y224273D01*
X326760Y224382D01*
X326243Y224477D01*
X325724Y224560D01*
X325202Y224630D01*
X324680Y224688D01*
X324156Y224732D01*
X323631Y224764D01*
X323106Y224784D01*
X322580Y224790D01*
X261620Y224790D02*
X261094Y224784D01*
X260569Y224764D01*
X260044Y224732D01*
X259520Y224688D01*
X258998Y224630D01*
X258476Y224560D01*
X257957Y224477D01*
X257440Y224382D01*
X256926Y224273D01*
X256414Y224153D01*
X255905Y224020D01*
X255400Y223875D01*
X254898Y223717D01*
X254401Y223547D01*
X253907Y223365D01*
X253419Y223172D01*
X252935Y222966D01*
X252456Y222749D01*
X251983Y222520D01*
X251515Y222279D01*
X251053Y222028D01*
X250598Y221765D01*
X250149Y221491D01*
X249707Y221206D01*
X249272Y220911D01*
X248845Y220605D01*
X248425Y220288D01*
X248013Y219962D01*
X247608Y219626D01*
X247213Y219280D01*
X246825Y218924D01*
X246447Y218559D01*
X246077Y218185D01*
X245717Y217802D01*
X245366Y217411D01*
X245025Y217011D01*
X244694Y216602D01*
X244372Y216186D01*
X244061Y215762D01*
X243760Y215331D01*
X243470Y214893D01*
X243191Y214447D01*
X242923Y213995D01*
X242665Y213536D01*
X242419Y213072D01*
X242184Y212601D01*
X241961Y212125D01*
X241750Y211644D01*
X241550Y211158D01*
X241362Y210667D01*
X241186Y210171D01*
X241023Y209671D01*
X240871Y209168D01*
X240732Y208661D01*
X240605Y208151D01*
X240491Y207637D01*
X240389Y207122D01*
X240300Y206603D01*
X240223Y206083D01*
X240160Y205561D01*
X240108Y205038D01*
X240070Y204514D01*
X240044Y203989D01*
X240032Y203463D01*
X240032Y202937D01*
X240044Y202411D01*
X240070Y201886D01*
X240108Y201362D01*
X240160Y200839D01*
X240223Y200317D01*
X240300Y199797D01*
X240389Y199278D01*
X240491Y198763D01*
X240605Y198249D01*
X240732Y197739D01*
X240871Y197232D01*
X241023Y196729D01*
X241186Y196229D01*
X241362Y195733D01*
X241550Y195242D01*
X241750Y194756D01*
X241961Y194275D01*
X242184Y193799D01*
X242419Y193328D01*
X242665Y192864D01*
X242923Y192405D01*
X243191Y191953D01*
X243470Y191507D01*
X243760Y191069D01*
X244061Y190638D01*
X244372Y190214D01*
X244694Y189798D01*
X245025Y189389D01*
X245366Y188989D01*
X245717Y188598D01*
X246077Y188215D01*
X246447Y187841D01*
X246825Y187476D01*
X247213Y187120D01*
X247608Y186774D01*
X248013Y186438D01*
X248425Y186112D01*
X248845Y185795D01*
X249272Y185489D01*
X249707Y185194D01*
X250149Y184909D01*
X250598Y184635D01*
X251053Y184372D01*
X251515Y184121D01*
X251983Y183880D01*
X252456Y183651D01*
X252935Y183434D01*
X253419Y183228D01*
X253907Y183035D01*
X254401Y182853D01*
X254898Y182683D01*
X255400Y182525D01*
X255905Y182380D01*
X256414Y182247D01*
X256926Y182127D01*
X257440Y182018D01*
X257957Y181923D01*
X258476Y181840D01*
X258998Y181770D01*
X259520Y181712D01*
X260044Y181668D01*
X260569Y181636D01*
X261094Y181616D01*
X261620Y181610D01*
D14*
X322580Y186690D02*
X322982Y186695D01*
X323384Y186710D01*
X323785Y186734D01*
X324186Y186768D01*
X324585Y186812D01*
X324984Y186866D01*
X325381Y186929D01*
X325776Y187002D01*
X326170Y187085D01*
X326561Y187177D01*
X326950Y187279D01*
X327337Y187390D01*
X327720Y187511D01*
X328101Y187640D01*
X328478Y187779D01*
X328852Y187928D01*
X329222Y188085D01*
X329588Y188251D01*
X329950Y188426D01*
X330307Y188610D01*
X330660Y188802D01*
X331008Y189003D01*
X331352Y189213D01*
X331690Y189431D01*
X332022Y189657D01*
X332349Y189891D01*
X332670Y190132D01*
X332986Y190382D01*
X333295Y190639D01*
X333597Y190904D01*
X333894Y191176D01*
X334183Y191455D01*
X334466Y191741D01*
X334741Y192034D01*
X335009Y192333D01*
X335270Y192639D01*
X335524Y192951D01*
X335770Y193269D01*
X336007Y193594D01*
X336237Y193923D01*
X336459Y194259D01*
X336673Y194599D01*
X336878Y194945D01*
X337075Y195296D01*
X337263Y195651D01*
X337443Y196011D01*
X337613Y196375D01*
X337775Y196743D01*
X337928Y197115D01*
X338071Y197490D01*
X338206Y197869D01*
X338331Y198251D01*
X338447Y198636D01*
X338553Y199024D01*
X338650Y199414D01*
X338738Y199807D01*
X338815Y200201D01*
X338884Y200597D01*
X338942Y200995D01*
X338991Y201394D01*
X339030Y201794D01*
X339059Y202195D01*
X339079Y202597D01*
X339089Y202999D01*
X339089Y203401D01*
X339079Y203803D01*
X339059Y204205D01*
X339030Y204606D01*
X338991Y205006D01*
X338942Y205405D01*
X338884Y205803D01*
X338815Y206199D01*
X338738Y206593D01*
X338650Y206986D01*
X338553Y207376D01*
X338447Y207764D01*
X338331Y208149D01*
X338206Y208531D01*
X338071Y208910D01*
X337928Y209285D01*
X337775Y209657D01*
X337613Y210025D01*
X337443Y210389D01*
X337263Y210749D01*
X337075Y211104D01*
X336878Y211455D01*
X336673Y211801D01*
X336459Y212141D01*
X336237Y212477D01*
X336007Y212806D01*
X335770Y213131D01*
X335524Y213449D01*
X335270Y213761D01*
X335009Y214067D01*
X334741Y214366D01*
X334466Y214659D01*
X334183Y214945D01*
X333894Y215224D01*
X333597Y215496D01*
X333295Y215761D01*
X332986Y216018D01*
X332670Y216268D01*
X332349Y216509D01*
X332022Y216743D01*
X331690Y216969D01*
X331352Y217187D01*
X331008Y217397D01*
X330660Y217598D01*
X330307Y217790D01*
X329950Y217974D01*
X329588Y218149D01*
X329222Y218315D01*
X328852Y218472D01*
X328478Y218621D01*
X328101Y218760D01*
X327720Y218889D01*
X327337Y219010D01*
X326950Y219121D01*
X326561Y219223D01*
X326170Y219315D01*
X325776Y219398D01*
X325381Y219471D01*
X324984Y219534D01*
X324585Y219588D01*
X324186Y219632D01*
X323785Y219666D01*
X323384Y219690D01*
X322982Y219705D01*
X322580Y219710D01*
X261620Y219710D02*
X261218Y219705D01*
X260816Y219690D01*
X260415Y219666D01*
X260014Y219632D01*
X259615Y219588D01*
X259216Y219534D01*
X258819Y219471D01*
X258424Y219398D01*
X258030Y219315D01*
X257639Y219223D01*
X257250Y219121D01*
X256863Y219010D01*
X256480Y218889D01*
X256099Y218760D01*
X255722Y218621D01*
X255348Y218472D01*
X254978Y218315D01*
X254612Y218149D01*
X254250Y217974D01*
X253893Y217790D01*
X253540Y217598D01*
X253192Y217397D01*
X252848Y217187D01*
X252510Y216969D01*
X252178Y216743D01*
X251851Y216509D01*
X251530Y216268D01*
X251214Y216018D01*
X250905Y215761D01*
X250603Y215496D01*
X250306Y215224D01*
X250017Y214945D01*
X249734Y214659D01*
X249459Y214366D01*
X249191Y214067D01*
X248930Y213761D01*
X248676Y213449D01*
X248430Y213131D01*
X248193Y212806D01*
X247963Y212477D01*
X247741Y212141D01*
X247527Y211801D01*
X247322Y211455D01*
X247125Y211104D01*
X246937Y210749D01*
X246757Y210389D01*
X246587Y210025D01*
X246425Y209657D01*
X246272Y209285D01*
X246129Y208910D01*
X245994Y208531D01*
X245869Y208149D01*
X245753Y207764D01*
X245647Y207376D01*
X245550Y206986D01*
X245462Y206593D01*
X245385Y206199D01*
X245316Y205803D01*
X245258Y205405D01*
X245209Y205006D01*
X245170Y204606D01*
X245141Y204205D01*
X245121Y203803D01*
X245111Y203401D01*
X245111Y202999D01*
X245121Y202597D01*
X245141Y202195D01*
X245170Y201794D01*
X245209Y201394D01*
X245258Y200995D01*
X245316Y200597D01*
X245385Y200201D01*
X245462Y199807D01*
X245550Y199414D01*
X245647Y199024D01*
X245753Y198636D01*
X245869Y198251D01*
X245994Y197869D01*
X246129Y197490D01*
X246272Y197115D01*
X246425Y196743D01*
X246587Y196375D01*
X246757Y196011D01*
X246937Y195651D01*
X247125Y195296D01*
X247322Y194945D01*
X247527Y194599D01*
X247741Y194259D01*
X247963Y193923D01*
X248193Y193594D01*
X248430Y193269D01*
X248676Y192951D01*
X248930Y192639D01*
X249191Y192333D01*
X249459Y192034D01*
X249734Y191741D01*
X250017Y191455D01*
X250306Y191176D01*
X250603Y190904D01*
X250905Y190639D01*
X251214Y190382D01*
X251530Y190132D01*
X251851Y189891D01*
X252178Y189657D01*
X252510Y189431D01*
X252848Y189213D01*
X253192Y189003D01*
X253540Y188802D01*
X253893Y188610D01*
X254250Y188426D01*
X254612Y188251D01*
X254978Y188085D01*
X255348Y187928D01*
X255722Y187779D01*
X256099Y187640D01*
X256480Y187511D01*
X256863Y187390D01*
X257250Y187279D01*
X257639Y187177D01*
X258030Y187085D01*
X258424Y187002D01*
X258819Y186929D01*
X259216Y186866D01*
X259615Y186812D01*
X260014Y186768D01*
X260415Y186734D01*
X260816Y186710D01*
X261218Y186695D01*
X261620Y186690D01*
D15*
X358935Y205740D02*
X358935Y210820D01*
X358937Y210931D01*
X358943Y211041D01*
X358952Y211152D01*
X358966Y211262D01*
X358983Y211371D01*
X359004Y211480D01*
X359029Y211588D01*
X359058Y211695D01*
X359090Y211801D01*
X359126Y211906D01*
X359166Y212009D01*
X359209Y212111D01*
X359256Y212212D01*
X359307Y212311D01*
X359360Y212408D01*
X359417Y212502D01*
X359478Y212595D01*
X359541Y212686D01*
X359608Y212775D01*
X359678Y212861D01*
X359751Y212944D01*
X359826Y213026D01*
X359904Y213104D01*
X359986Y213179D01*
X360069Y213252D01*
X360155Y213322D01*
X360244Y213389D01*
X360335Y213452D01*
X360428Y213513D01*
X360523Y213570D01*
X360619Y213623D01*
X360718Y213674D01*
X360819Y213721D01*
X360921Y213764D01*
X361024Y213804D01*
X361129Y213840D01*
X361235Y213872D01*
X361342Y213901D01*
X361450Y213926D01*
X361559Y213947D01*
X361668Y213964D01*
X361778Y213978D01*
X361889Y213987D01*
X361999Y213993D01*
X362110Y213995D01*
X362221Y213993D01*
X362331Y213987D01*
X362442Y213978D01*
X362552Y213964D01*
X362661Y213947D01*
X362770Y213926D01*
X362878Y213901D01*
X362985Y213872D01*
X363091Y213840D01*
X363196Y213804D01*
X363299Y213764D01*
X363401Y213721D01*
X363502Y213674D01*
X363601Y213623D01*
X363698Y213570D01*
X363792Y213513D01*
X363885Y213452D01*
X363976Y213389D01*
X364065Y213322D01*
X364151Y213252D01*
X364234Y213179D01*
X364316Y213104D01*
X364394Y213026D01*
X364469Y212944D01*
X364542Y212861D01*
X364612Y212775D01*
X364679Y212686D01*
X364742Y212595D01*
X364803Y212502D01*
X364860Y212408D01*
X364913Y212311D01*
X364964Y212212D01*
X365011Y212111D01*
X365054Y212009D01*
X365094Y211906D01*
X365130Y211801D01*
X365162Y211695D01*
X365191Y211588D01*
X365216Y211480D01*
X365237Y211371D01*
X365254Y211262D01*
X365268Y211152D01*
X365277Y211041D01*
X365283Y210931D01*
X365285Y210820D01*
X365285Y205740D01*
X365283Y205629D01*
X365277Y205519D01*
X365268Y205408D01*
X365254Y205298D01*
X365237Y205189D01*
X365216Y205080D01*
X365191Y204972D01*
X365162Y204865D01*
X365130Y204759D01*
X365094Y204654D01*
X365054Y204551D01*
X365011Y204449D01*
X364964Y204348D01*
X364913Y204249D01*
X364860Y204152D01*
X364803Y204058D01*
X364742Y203965D01*
X364679Y203874D01*
X364612Y203785D01*
X364542Y203699D01*
X364469Y203616D01*
X364394Y203534D01*
X364316Y203456D01*
X364234Y203381D01*
X364151Y203308D01*
X364065Y203238D01*
X363976Y203171D01*
X363885Y203108D01*
X363792Y203047D01*
X363697Y202990D01*
X363601Y202937D01*
X363502Y202886D01*
X363401Y202839D01*
X363299Y202796D01*
X363196Y202756D01*
X363091Y202720D01*
X362985Y202688D01*
X362878Y202659D01*
X362770Y202634D01*
X362661Y202613D01*
X362552Y202596D01*
X362442Y202582D01*
X362331Y202573D01*
X362221Y202567D01*
X362110Y202565D01*
X361999Y202567D01*
X361889Y202573D01*
X361778Y202582D01*
X361668Y202596D01*
X361559Y202613D01*
X361450Y202634D01*
X361342Y202659D01*
X361235Y202688D01*
X361129Y202720D01*
X361024Y202756D01*
X360921Y202796D01*
X360819Y202839D01*
X360718Y202886D01*
X360619Y202937D01*
X360523Y202990D01*
X360428Y203047D01*
X360335Y203108D01*
X360244Y203171D01*
X360155Y203238D01*
X360069Y203308D01*
X359986Y203381D01*
X359904Y203456D01*
X359826Y203534D01*
X359751Y203616D01*
X359678Y203699D01*
X359608Y203785D01*
X359541Y203874D01*
X359478Y203965D01*
X359417Y204058D01*
X359360Y204153D01*
X359307Y204249D01*
X359256Y204348D01*
X359209Y204449D01*
X359166Y204551D01*
X359126Y204654D01*
X359090Y204759D01*
X359058Y204865D01*
X359029Y204972D01*
X359004Y205080D01*
X358983Y205189D01*
X358966Y205298D01*
X358952Y205408D01*
X358943Y205519D01*
X358937Y205629D01*
X358935Y205740D01*
X364015Y205105D02*
X366555Y202565D01*
X369996Y211455D02*
X373171Y213995D01*
X373171Y202565D01*
X369996Y202565D02*
X376346Y202565D01*
D14*
X21590Y201490D02*
X21590Y1590D01*
X111510Y1590D02*
X113540Y1590D01*
X113540Y201490D01*
X45470Y201490D02*
X21590Y201490D01*
X45470Y201490D02*
X45470Y185490D01*
X45470Y167710D02*
X45470Y135450D01*
X45470Y117670D02*
X45470Y85410D01*
X45470Y67630D02*
X45470Y35380D01*
X45470Y17600D02*
X45470Y1590D01*
X45470Y201490D02*
X111510Y201490D01*
X45470Y1590D02*
X21590Y1590D01*
X111510Y1590D02*
X111510Y201490D01*
X113540Y201490D01*
X111510Y1590D02*
X45470Y1590D01*
X93218Y176600D02*
X93220Y176742D01*
X93226Y176885D01*
X93236Y177027D01*
X93250Y177169D01*
X93268Y177310D01*
X93290Y177451D01*
X93316Y177591D01*
X93345Y177730D01*
X93379Y177869D01*
X93417Y178006D01*
X93458Y178143D01*
X93503Y178278D01*
X93552Y178412D01*
X93605Y178544D01*
X93661Y178675D01*
X93721Y178804D01*
X93785Y178932D01*
X93852Y179057D01*
X93923Y179181D01*
X93997Y179303D01*
X94074Y179422D01*
X94155Y179540D01*
X94239Y179655D01*
X94326Y179767D01*
X94417Y179877D01*
X94510Y179985D01*
X94607Y180090D01*
X94706Y180192D01*
X94808Y180291D01*
X94913Y180388D01*
X95021Y180481D01*
X95131Y180572D01*
X95243Y180659D01*
X95358Y180743D01*
X95476Y180824D01*
X95595Y180901D01*
X95717Y180975D01*
X95841Y181046D01*
X95966Y181113D01*
X96094Y181177D01*
X96223Y181237D01*
X96354Y181293D01*
X96486Y181346D01*
X96620Y181395D01*
X96755Y181440D01*
X96892Y181481D01*
X97029Y181519D01*
X97168Y181553D01*
X97307Y181582D01*
X97447Y181608D01*
X97588Y181630D01*
X97729Y181648D01*
X97871Y181662D01*
X98013Y181672D01*
X98156Y181678D01*
X98298Y181680D01*
X98440Y181678D01*
X98583Y181672D01*
X98725Y181662D01*
X98867Y181648D01*
X99008Y181630D01*
X99149Y181608D01*
X99289Y181582D01*
X99428Y181553D01*
X99567Y181519D01*
X99704Y181481D01*
X99841Y181440D01*
X99976Y181395D01*
X100110Y181346D01*
X100242Y181293D01*
X100373Y181237D01*
X100502Y181177D01*
X100630Y181113D01*
X100755Y181046D01*
X100879Y180975D01*
X101001Y180901D01*
X101120Y180824D01*
X101238Y180743D01*
X101353Y180659D01*
X101465Y180572D01*
X101575Y180481D01*
X101683Y180388D01*
X101788Y180291D01*
X101890Y180192D01*
X101989Y180090D01*
X102086Y179985D01*
X102179Y179877D01*
X102270Y179767D01*
X102357Y179655D01*
X102441Y179540D01*
X102522Y179422D01*
X102599Y179303D01*
X102673Y179181D01*
X102744Y179057D01*
X102811Y178932D01*
X102875Y178804D01*
X102935Y178675D01*
X102991Y178544D01*
X103044Y178412D01*
X103093Y178278D01*
X103138Y178143D01*
X103179Y178006D01*
X103217Y177869D01*
X103251Y177730D01*
X103280Y177591D01*
X103306Y177451D01*
X103328Y177310D01*
X103346Y177169D01*
X103360Y177027D01*
X103370Y176885D01*
X103376Y176742D01*
X103378Y176600D01*
X103376Y176458D01*
X103370Y176315D01*
X103360Y176173D01*
X103346Y176031D01*
X103328Y175890D01*
X103306Y175749D01*
X103280Y175609D01*
X103251Y175470D01*
X103217Y175331D01*
X103179Y175194D01*
X103138Y175057D01*
X103093Y174922D01*
X103044Y174788D01*
X102991Y174656D01*
X102935Y174525D01*
X102875Y174396D01*
X102811Y174268D01*
X102744Y174143D01*
X102673Y174019D01*
X102599Y173897D01*
X102522Y173778D01*
X102441Y173660D01*
X102357Y173545D01*
X102270Y173433D01*
X102179Y173323D01*
X102086Y173215D01*
X101989Y173110D01*
X101890Y173008D01*
X101788Y172909D01*
X101683Y172812D01*
X101575Y172719D01*
X101465Y172628D01*
X101353Y172541D01*
X101238Y172457D01*
X101120Y172376D01*
X101001Y172299D01*
X100879Y172225D01*
X100755Y172154D01*
X100630Y172087D01*
X100502Y172023D01*
X100373Y171963D01*
X100242Y171907D01*
X100110Y171854D01*
X99976Y171805D01*
X99841Y171760D01*
X99704Y171719D01*
X99567Y171681D01*
X99428Y171647D01*
X99289Y171618D01*
X99149Y171592D01*
X99008Y171570D01*
X98867Y171552D01*
X98725Y171538D01*
X98583Y171528D01*
X98440Y171522D01*
X98298Y171520D01*
X98156Y171522D01*
X98013Y171528D01*
X97871Y171538D01*
X97729Y171552D01*
X97588Y171570D01*
X97447Y171592D01*
X97307Y171618D01*
X97168Y171647D01*
X97029Y171681D01*
X96892Y171719D01*
X96755Y171760D01*
X96620Y171805D01*
X96486Y171854D01*
X96354Y171907D01*
X96223Y171963D01*
X96094Y172023D01*
X95966Y172087D01*
X95841Y172154D01*
X95717Y172225D01*
X95595Y172299D01*
X95476Y172376D01*
X95358Y172457D01*
X95243Y172541D01*
X95131Y172628D01*
X95021Y172719D01*
X94913Y172812D01*
X94808Y172909D01*
X94706Y173008D01*
X94607Y173110D01*
X94510Y173215D01*
X94417Y173323D01*
X94326Y173433D01*
X94239Y173545D01*
X94155Y173660D01*
X94074Y173778D01*
X93997Y173897D01*
X93923Y174019D01*
X93852Y174143D01*
X93785Y174268D01*
X93721Y174396D01*
X93661Y174525D01*
X93605Y174656D01*
X93552Y174788D01*
X93503Y174922D01*
X93458Y175057D01*
X93417Y175194D01*
X93379Y175331D01*
X93345Y175470D01*
X93316Y175609D01*
X93290Y175749D01*
X93268Y175890D01*
X93250Y176031D01*
X93236Y176173D01*
X93226Y176315D01*
X93220Y176458D01*
X93218Y176600D01*
X93218Y126562D02*
X93220Y126704D01*
X93226Y126847D01*
X93236Y126989D01*
X93250Y127131D01*
X93268Y127272D01*
X93290Y127413D01*
X93316Y127553D01*
X93345Y127692D01*
X93379Y127831D01*
X93417Y127968D01*
X93458Y128105D01*
X93503Y128240D01*
X93552Y128374D01*
X93605Y128506D01*
X93661Y128637D01*
X93721Y128766D01*
X93785Y128894D01*
X93852Y129019D01*
X93923Y129143D01*
X93997Y129265D01*
X94074Y129384D01*
X94155Y129502D01*
X94239Y129617D01*
X94326Y129729D01*
X94417Y129839D01*
X94510Y129947D01*
X94607Y130052D01*
X94706Y130154D01*
X94808Y130253D01*
X94913Y130350D01*
X95021Y130443D01*
X95131Y130534D01*
X95243Y130621D01*
X95358Y130705D01*
X95476Y130786D01*
X95595Y130863D01*
X95717Y130937D01*
X95841Y131008D01*
X95966Y131075D01*
X96094Y131139D01*
X96223Y131199D01*
X96354Y131255D01*
X96486Y131308D01*
X96620Y131357D01*
X96755Y131402D01*
X96892Y131443D01*
X97029Y131481D01*
X97168Y131515D01*
X97307Y131544D01*
X97447Y131570D01*
X97588Y131592D01*
X97729Y131610D01*
X97871Y131624D01*
X98013Y131634D01*
X98156Y131640D01*
X98298Y131642D01*
X98440Y131640D01*
X98583Y131634D01*
X98725Y131624D01*
X98867Y131610D01*
X99008Y131592D01*
X99149Y131570D01*
X99289Y131544D01*
X99428Y131515D01*
X99567Y131481D01*
X99704Y131443D01*
X99841Y131402D01*
X99976Y131357D01*
X100110Y131308D01*
X100242Y131255D01*
X100373Y131199D01*
X100502Y131139D01*
X100630Y131075D01*
X100755Y131008D01*
X100879Y130937D01*
X101001Y130863D01*
X101120Y130786D01*
X101238Y130705D01*
X101353Y130621D01*
X101465Y130534D01*
X101575Y130443D01*
X101683Y130350D01*
X101788Y130253D01*
X101890Y130154D01*
X101989Y130052D01*
X102086Y129947D01*
X102179Y129839D01*
X102270Y129729D01*
X102357Y129617D01*
X102441Y129502D01*
X102522Y129384D01*
X102599Y129265D01*
X102673Y129143D01*
X102744Y129019D01*
X102811Y128894D01*
X102875Y128766D01*
X102935Y128637D01*
X102991Y128506D01*
X103044Y128374D01*
X103093Y128240D01*
X103138Y128105D01*
X103179Y127968D01*
X103217Y127831D01*
X103251Y127692D01*
X103280Y127553D01*
X103306Y127413D01*
X103328Y127272D01*
X103346Y127131D01*
X103360Y126989D01*
X103370Y126847D01*
X103376Y126704D01*
X103378Y126562D01*
X103376Y126420D01*
X103370Y126277D01*
X103360Y126135D01*
X103346Y125993D01*
X103328Y125852D01*
X103306Y125711D01*
X103280Y125571D01*
X103251Y125432D01*
X103217Y125293D01*
X103179Y125156D01*
X103138Y125019D01*
X103093Y124884D01*
X103044Y124750D01*
X102991Y124618D01*
X102935Y124487D01*
X102875Y124358D01*
X102811Y124230D01*
X102744Y124105D01*
X102673Y123981D01*
X102599Y123859D01*
X102522Y123740D01*
X102441Y123622D01*
X102357Y123507D01*
X102270Y123395D01*
X102179Y123285D01*
X102086Y123177D01*
X101989Y123072D01*
X101890Y122970D01*
X101788Y122871D01*
X101683Y122774D01*
X101575Y122681D01*
X101465Y122590D01*
X101353Y122503D01*
X101238Y122419D01*
X101120Y122338D01*
X101001Y122261D01*
X100879Y122187D01*
X100755Y122116D01*
X100630Y122049D01*
X100502Y121985D01*
X100373Y121925D01*
X100242Y121869D01*
X100110Y121816D01*
X99976Y121767D01*
X99841Y121722D01*
X99704Y121681D01*
X99567Y121643D01*
X99428Y121609D01*
X99289Y121580D01*
X99149Y121554D01*
X99008Y121532D01*
X98867Y121514D01*
X98725Y121500D01*
X98583Y121490D01*
X98440Y121484D01*
X98298Y121482D01*
X98156Y121484D01*
X98013Y121490D01*
X97871Y121500D01*
X97729Y121514D01*
X97588Y121532D01*
X97447Y121554D01*
X97307Y121580D01*
X97168Y121609D01*
X97029Y121643D01*
X96892Y121681D01*
X96755Y121722D01*
X96620Y121767D01*
X96486Y121816D01*
X96354Y121869D01*
X96223Y121925D01*
X96094Y121985D01*
X95966Y122049D01*
X95841Y122116D01*
X95717Y122187D01*
X95595Y122261D01*
X95476Y122338D01*
X95358Y122419D01*
X95243Y122503D01*
X95131Y122590D01*
X95021Y122681D01*
X94913Y122774D01*
X94808Y122871D01*
X94706Y122970D01*
X94607Y123072D01*
X94510Y123177D01*
X94417Y123285D01*
X94326Y123395D01*
X94239Y123507D01*
X94155Y123622D01*
X94074Y123740D01*
X93997Y123859D01*
X93923Y123981D01*
X93852Y124105D01*
X93785Y124230D01*
X93721Y124358D01*
X93661Y124487D01*
X93605Y124618D01*
X93552Y124750D01*
X93503Y124884D01*
X93458Y125019D01*
X93417Y125156D01*
X93379Y125293D01*
X93345Y125432D01*
X93316Y125571D01*
X93290Y125711D01*
X93268Y125852D01*
X93250Y125993D01*
X93236Y126135D01*
X93226Y126277D01*
X93220Y126420D01*
X93218Y126562D01*
X93218Y76524D02*
X93220Y76666D01*
X93226Y76809D01*
X93236Y76951D01*
X93250Y77093D01*
X93268Y77234D01*
X93290Y77375D01*
X93316Y77515D01*
X93345Y77654D01*
X93379Y77793D01*
X93417Y77930D01*
X93458Y78067D01*
X93503Y78202D01*
X93552Y78336D01*
X93605Y78468D01*
X93661Y78599D01*
X93721Y78728D01*
X93785Y78856D01*
X93852Y78981D01*
X93923Y79105D01*
X93997Y79227D01*
X94074Y79346D01*
X94155Y79464D01*
X94239Y79579D01*
X94326Y79691D01*
X94417Y79801D01*
X94510Y79909D01*
X94607Y80014D01*
X94706Y80116D01*
X94808Y80215D01*
X94913Y80312D01*
X95021Y80405D01*
X95131Y80496D01*
X95243Y80583D01*
X95358Y80667D01*
X95476Y80748D01*
X95595Y80825D01*
X95717Y80899D01*
X95841Y80970D01*
X95966Y81037D01*
X96094Y81101D01*
X96223Y81161D01*
X96354Y81217D01*
X96486Y81270D01*
X96620Y81319D01*
X96755Y81364D01*
X96892Y81405D01*
X97029Y81443D01*
X97168Y81477D01*
X97307Y81506D01*
X97447Y81532D01*
X97588Y81554D01*
X97729Y81572D01*
X97871Y81586D01*
X98013Y81596D01*
X98156Y81602D01*
X98298Y81604D01*
X98440Y81602D01*
X98583Y81596D01*
X98725Y81586D01*
X98867Y81572D01*
X99008Y81554D01*
X99149Y81532D01*
X99289Y81506D01*
X99428Y81477D01*
X99567Y81443D01*
X99704Y81405D01*
X99841Y81364D01*
X99976Y81319D01*
X100110Y81270D01*
X100242Y81217D01*
X100373Y81161D01*
X100502Y81101D01*
X100630Y81037D01*
X100755Y80970D01*
X100879Y80899D01*
X101001Y80825D01*
X101120Y80748D01*
X101238Y80667D01*
X101353Y80583D01*
X101465Y80496D01*
X101575Y80405D01*
X101683Y80312D01*
X101788Y80215D01*
X101890Y80116D01*
X101989Y80014D01*
X102086Y79909D01*
X102179Y79801D01*
X102270Y79691D01*
X102357Y79579D01*
X102441Y79464D01*
X102522Y79346D01*
X102599Y79227D01*
X102673Y79105D01*
X102744Y78981D01*
X102811Y78856D01*
X102875Y78728D01*
X102935Y78599D01*
X102991Y78468D01*
X103044Y78336D01*
X103093Y78202D01*
X103138Y78067D01*
X103179Y77930D01*
X103217Y77793D01*
X103251Y77654D01*
X103280Y77515D01*
X103306Y77375D01*
X103328Y77234D01*
X103346Y77093D01*
X103360Y76951D01*
X103370Y76809D01*
X103376Y76666D01*
X103378Y76524D01*
X103376Y76382D01*
X103370Y76239D01*
X103360Y76097D01*
X103346Y75955D01*
X103328Y75814D01*
X103306Y75673D01*
X103280Y75533D01*
X103251Y75394D01*
X103217Y75255D01*
X103179Y75118D01*
X103138Y74981D01*
X103093Y74846D01*
X103044Y74712D01*
X102991Y74580D01*
X102935Y74449D01*
X102875Y74320D01*
X102811Y74192D01*
X102744Y74067D01*
X102673Y73943D01*
X102599Y73821D01*
X102522Y73702D01*
X102441Y73584D01*
X102357Y73469D01*
X102270Y73357D01*
X102179Y73247D01*
X102086Y73139D01*
X101989Y73034D01*
X101890Y72932D01*
X101788Y72833D01*
X101683Y72736D01*
X101575Y72643D01*
X101465Y72552D01*
X101353Y72465D01*
X101238Y72381D01*
X101120Y72300D01*
X101001Y72223D01*
X100879Y72149D01*
X100755Y72078D01*
X100630Y72011D01*
X100502Y71947D01*
X100373Y71887D01*
X100242Y71831D01*
X100110Y71778D01*
X99976Y71729D01*
X99841Y71684D01*
X99704Y71643D01*
X99567Y71605D01*
X99428Y71571D01*
X99289Y71542D01*
X99149Y71516D01*
X99008Y71494D01*
X98867Y71476D01*
X98725Y71462D01*
X98583Y71452D01*
X98440Y71446D01*
X98298Y71444D01*
X98156Y71446D01*
X98013Y71452D01*
X97871Y71462D01*
X97729Y71476D01*
X97588Y71494D01*
X97447Y71516D01*
X97307Y71542D01*
X97168Y71571D01*
X97029Y71605D01*
X96892Y71643D01*
X96755Y71684D01*
X96620Y71729D01*
X96486Y71778D01*
X96354Y71831D01*
X96223Y71887D01*
X96094Y71947D01*
X95966Y72011D01*
X95841Y72078D01*
X95717Y72149D01*
X95595Y72223D01*
X95476Y72300D01*
X95358Y72381D01*
X95243Y72465D01*
X95131Y72552D01*
X95021Y72643D01*
X94913Y72736D01*
X94808Y72833D01*
X94706Y72932D01*
X94607Y73034D01*
X94510Y73139D01*
X94417Y73247D01*
X94326Y73357D01*
X94239Y73469D01*
X94155Y73584D01*
X94074Y73702D01*
X93997Y73821D01*
X93923Y73943D01*
X93852Y74067D01*
X93785Y74192D01*
X93721Y74320D01*
X93661Y74449D01*
X93605Y74580D01*
X93552Y74712D01*
X93503Y74846D01*
X93458Y74981D01*
X93417Y75118D01*
X93379Y75255D01*
X93345Y75394D01*
X93316Y75533D01*
X93290Y75673D01*
X93268Y75814D01*
X93250Y75955D01*
X93236Y76097D01*
X93226Y76239D01*
X93220Y76382D01*
X93218Y76524D01*
X93218Y26486D02*
X93220Y26628D01*
X93226Y26771D01*
X93236Y26913D01*
X93250Y27055D01*
X93268Y27196D01*
X93290Y27337D01*
X93316Y27477D01*
X93345Y27616D01*
X93379Y27755D01*
X93417Y27892D01*
X93458Y28029D01*
X93503Y28164D01*
X93552Y28298D01*
X93605Y28430D01*
X93661Y28561D01*
X93721Y28690D01*
X93785Y28818D01*
X93852Y28943D01*
X93923Y29067D01*
X93997Y29189D01*
X94074Y29308D01*
X94155Y29426D01*
X94239Y29541D01*
X94326Y29653D01*
X94417Y29763D01*
X94510Y29871D01*
X94607Y29976D01*
X94706Y30078D01*
X94808Y30177D01*
X94913Y30274D01*
X95021Y30367D01*
X95131Y30458D01*
X95243Y30545D01*
X95358Y30629D01*
X95476Y30710D01*
X95595Y30787D01*
X95717Y30861D01*
X95841Y30932D01*
X95966Y30999D01*
X96094Y31063D01*
X96223Y31123D01*
X96354Y31179D01*
X96486Y31232D01*
X96620Y31281D01*
X96755Y31326D01*
X96892Y31367D01*
X97029Y31405D01*
X97168Y31439D01*
X97307Y31468D01*
X97447Y31494D01*
X97588Y31516D01*
X97729Y31534D01*
X97871Y31548D01*
X98013Y31558D01*
X98156Y31564D01*
X98298Y31566D01*
X98440Y31564D01*
X98583Y31558D01*
X98725Y31548D01*
X98867Y31534D01*
X99008Y31516D01*
X99149Y31494D01*
X99289Y31468D01*
X99428Y31439D01*
X99567Y31405D01*
X99704Y31367D01*
X99841Y31326D01*
X99976Y31281D01*
X100110Y31232D01*
X100242Y31179D01*
X100373Y31123D01*
X100502Y31063D01*
X100630Y30999D01*
X100755Y30932D01*
X100879Y30861D01*
X101001Y30787D01*
X101120Y30710D01*
X101238Y30629D01*
X101353Y30545D01*
X101465Y30458D01*
X101575Y30367D01*
X101683Y30274D01*
X101788Y30177D01*
X101890Y30078D01*
X101989Y29976D01*
X102086Y29871D01*
X102179Y29763D01*
X102270Y29653D01*
X102357Y29541D01*
X102441Y29426D01*
X102522Y29308D01*
X102599Y29189D01*
X102673Y29067D01*
X102744Y28943D01*
X102811Y28818D01*
X102875Y28690D01*
X102935Y28561D01*
X102991Y28430D01*
X103044Y28298D01*
X103093Y28164D01*
X103138Y28029D01*
X103179Y27892D01*
X103217Y27755D01*
X103251Y27616D01*
X103280Y27477D01*
X103306Y27337D01*
X103328Y27196D01*
X103346Y27055D01*
X103360Y26913D01*
X103370Y26771D01*
X103376Y26628D01*
X103378Y26486D01*
X103376Y26344D01*
X103370Y26201D01*
X103360Y26059D01*
X103346Y25917D01*
X103328Y25776D01*
X103306Y25635D01*
X103280Y25495D01*
X103251Y25356D01*
X103217Y25217D01*
X103179Y25080D01*
X103138Y24943D01*
X103093Y24808D01*
X103044Y24674D01*
X102991Y24542D01*
X102935Y24411D01*
X102875Y24282D01*
X102811Y24154D01*
X102744Y24029D01*
X102673Y23905D01*
X102599Y23783D01*
X102522Y23664D01*
X102441Y23546D01*
X102357Y23431D01*
X102270Y23319D01*
X102179Y23209D01*
X102086Y23101D01*
X101989Y22996D01*
X101890Y22894D01*
X101788Y22795D01*
X101683Y22698D01*
X101575Y22605D01*
X101465Y22514D01*
X101353Y22427D01*
X101238Y22343D01*
X101120Y22262D01*
X101001Y22185D01*
X100879Y22111D01*
X100755Y22040D01*
X100630Y21973D01*
X100502Y21909D01*
X100373Y21849D01*
X100242Y21793D01*
X100110Y21740D01*
X99976Y21691D01*
X99841Y21646D01*
X99704Y21605D01*
X99567Y21567D01*
X99428Y21533D01*
X99289Y21504D01*
X99149Y21478D01*
X99008Y21456D01*
X98867Y21438D01*
X98725Y21424D01*
X98583Y21414D01*
X98440Y21408D01*
X98298Y21406D01*
X98156Y21408D01*
X98013Y21414D01*
X97871Y21424D01*
X97729Y21438D01*
X97588Y21456D01*
X97447Y21478D01*
X97307Y21504D01*
X97168Y21533D01*
X97029Y21567D01*
X96892Y21605D01*
X96755Y21646D01*
X96620Y21691D01*
X96486Y21740D01*
X96354Y21793D01*
X96223Y21849D01*
X96094Y21909D01*
X95966Y21973D01*
X95841Y22040D01*
X95717Y22111D01*
X95595Y22185D01*
X95476Y22262D01*
X95358Y22343D01*
X95243Y22427D01*
X95131Y22514D01*
X95021Y22605D01*
X94913Y22698D01*
X94808Y22795D01*
X94706Y22894D01*
X94607Y22996D01*
X94510Y23101D01*
X94417Y23209D01*
X94326Y23319D01*
X94239Y23431D01*
X94155Y23546D01*
X94074Y23664D01*
X93997Y23783D01*
X93923Y23905D01*
X93852Y24029D01*
X93785Y24154D01*
X93721Y24282D01*
X93661Y24411D01*
X93605Y24542D01*
X93552Y24674D01*
X93503Y24808D01*
X93458Y24943D01*
X93417Y25080D01*
X93379Y25217D01*
X93345Y25356D01*
X93316Y25495D01*
X93290Y25635D01*
X93268Y25776D01*
X93250Y25917D01*
X93236Y26059D01*
X93226Y26201D01*
X93220Y26344D01*
X93218Y26486D01*
X129050Y337300D02*
X141750Y337300D01*
X129050Y337300D02*
X122700Y343650D01*
X122700Y356350D01*
X129050Y362700D01*
X122700Y343650D02*
X116350Y337300D01*
X103650Y337300D01*
X97300Y343650D01*
X97300Y356350D01*
X103650Y362700D01*
X116350Y362700D01*
X122700Y356350D01*
X148100Y356350D02*
X148100Y343650D01*
X141750Y337300D01*
X148100Y356350D02*
X141750Y362700D01*
X129050Y362700D01*
X97300Y343650D02*
X90950Y337300D01*
X78250Y337300D01*
X71900Y343650D01*
X71900Y356350D01*
X78250Y362700D01*
X90950Y362700D01*
X97300Y356350D01*
D15*
X320630Y45080D02*
X320630Y34920D01*
D12*
X337730Y30711D02*
X337510Y31256D01*
X337304Y31806D01*
X337111Y32360D01*
X336932Y32920D01*
X336767Y33483D01*
X336615Y34051D01*
X336477Y34622D01*
X336353Y35196D01*
X336243Y35773D01*
X336147Y36352D01*
X336066Y36934D01*
X335998Y37518D01*
X335945Y38102D01*
X335906Y38689D01*
X335881Y39275D01*
X335870Y39863D01*
X335874Y40450D01*
X335892Y41037D01*
X335925Y41624D01*
X335971Y42209D01*
X336032Y42793D01*
X336107Y43376D01*
X336197Y43956D01*
X336300Y44535D01*
X336417Y45110D01*
X336549Y45683D01*
X336694Y46252D01*
X336853Y46817D01*
X337026Y47378D01*
X337212Y47935D01*
X337412Y48488D01*
X337625Y49035D01*
X337852Y49577D01*
X338091Y50113D01*
X338344Y50643D01*
X338610Y51167D01*
X338888Y51685D01*
X339178Y52195D01*
X339481Y52698D01*
X339796Y53194D01*
X340124Y53682D01*
X340462Y54162D01*
X340813Y54633D01*
X341175Y55096D01*
X341548Y55549D01*
X341932Y55994D01*
X342326Y56429D01*
X342731Y56854D01*
X343147Y57270D01*
X343572Y57675D01*
X344007Y58069D01*
X344452Y58453D01*
X344905Y58826D01*
X345368Y59188D01*
X345839Y59539D01*
X346319Y59877D01*
X346807Y60205D01*
X347303Y60520D01*
X347806Y60823D01*
X348316Y61113D01*
X348834Y61391D01*
X349358Y61657D01*
X349888Y61910D01*
X350424Y62149D01*
X350966Y62376D01*
X351513Y62589D01*
X352066Y62789D01*
X352623Y62975D01*
X353184Y63148D01*
X353749Y63307D01*
X354318Y63452D01*
X354891Y63584D01*
X355466Y63701D01*
X356045Y63804D01*
X356625Y63894D01*
X357208Y63969D01*
X357792Y64030D01*
X358377Y64076D01*
X358964Y64109D01*
X359551Y64127D01*
X360138Y64131D01*
X360726Y64120D01*
X361312Y64095D01*
X361899Y64056D01*
X362483Y64003D01*
X363067Y63935D01*
X363649Y63854D01*
X364228Y63758D01*
X364805Y63648D01*
X365379Y63524D01*
X365950Y63386D01*
X366518Y63234D01*
X367081Y63069D01*
X367641Y62890D01*
X368195Y62697D01*
X368745Y62491D01*
X369290Y62271D01*
D15*
X331235Y34920D02*
X320630Y34920D01*
D12*
X350711Y17730D02*
X351247Y17514D01*
X351788Y17310D01*
X352334Y17120D01*
X352884Y16943D01*
X353438Y16779D01*
X353996Y16629D01*
X354557Y16492D01*
X355122Y16368D01*
X355689Y16258D01*
X356259Y16162D01*
X356831Y16079D01*
X357404Y16010D01*
X357980Y15955D01*
X358556Y15913D01*
X359133Y15886D01*
X359711Y15872D01*
X360289Y15872D01*
X360867Y15886D01*
X361444Y15913D01*
X362020Y15955D01*
X362596Y16010D01*
X363169Y16079D01*
X363741Y16162D01*
X364311Y16258D01*
X364878Y16368D01*
X365443Y16492D01*
X366004Y16629D01*
X366562Y16779D01*
X367116Y16943D01*
X367666Y17120D01*
X368212Y17310D01*
X368753Y17514D01*
X369289Y17730D01*
D15*
X331235Y45080D02*
X320630Y45080D01*
D12*
X382270Y49289D02*
X382486Y48753D01*
X382690Y48212D01*
X382880Y47666D01*
X383057Y47116D01*
X383221Y46562D01*
X383371Y46004D01*
X383508Y45443D01*
X383632Y44878D01*
X383742Y44311D01*
X383838Y43741D01*
X383921Y43169D01*
X383990Y42596D01*
X384045Y42020D01*
X384087Y41444D01*
X384114Y40867D01*
X384128Y40289D01*
X384128Y39711D01*
X384114Y39133D01*
X384087Y38556D01*
X384045Y37980D01*
X383990Y37404D01*
X383921Y36831D01*
X383838Y36259D01*
X383742Y35689D01*
X383632Y35122D01*
X383508Y34557D01*
X383371Y33996D01*
X383221Y33438D01*
X383057Y32884D01*
X382880Y32334D01*
X382690Y31788D01*
X382486Y31247D01*
X382270Y30711D01*
D15*
X330790Y40000D02*
X330799Y40717D01*
X330825Y41433D01*
X330869Y42149D01*
X330931Y42863D01*
X331010Y43576D01*
X331106Y44286D01*
X331220Y44994D01*
X331351Y45699D01*
X331500Y46400D01*
X331665Y47097D01*
X331848Y47791D01*
X332048Y48479D01*
X332264Y49163D01*
X332497Y49841D01*
X332747Y50513D01*
X333013Y51178D01*
X333296Y51837D01*
X333594Y52489D01*
X333909Y53133D01*
X334239Y53769D01*
X334585Y54398D01*
X334946Y55017D01*
X335322Y55627D01*
X335713Y56228D01*
X336118Y56819D01*
X336538Y57400D01*
X336972Y57971D01*
X337420Y58531D01*
X337882Y59079D01*
X338357Y59616D01*
X338845Y60141D01*
X339345Y60655D01*
X339859Y61155D01*
X340384Y61643D01*
X340921Y62118D01*
X341469Y62580D01*
X342029Y63028D01*
X342600Y63462D01*
X343181Y63882D01*
X343772Y64287D01*
X344373Y64678D01*
X344983Y65054D01*
X345602Y65415D01*
X346231Y65761D01*
X346867Y66091D01*
X347511Y66406D01*
X348163Y66704D01*
X348822Y66987D01*
X349487Y67253D01*
X350159Y67503D01*
X350837Y67736D01*
X351521Y67952D01*
X352209Y68152D01*
X352903Y68335D01*
X353600Y68500D01*
X354301Y68649D01*
X355006Y68780D01*
X355714Y68894D01*
X356424Y68990D01*
X357137Y69069D01*
X357851Y69131D01*
X358567Y69175D01*
X359283Y69201D01*
X360000Y69210D01*
X360717Y69201D01*
X361433Y69175D01*
X362149Y69131D01*
X362863Y69069D01*
X363576Y68990D01*
X364286Y68894D01*
X364994Y68780D01*
X365699Y68649D01*
X366400Y68500D01*
X367097Y68335D01*
X367791Y68152D01*
X368479Y67952D01*
X369163Y67736D01*
X369841Y67503D01*
X370513Y67253D01*
X371178Y66987D01*
X371837Y66704D01*
X372489Y66406D01*
X373133Y66091D01*
X373769Y65761D01*
X374398Y65415D01*
X375017Y65054D01*
X375627Y64678D01*
X376228Y64287D01*
X376819Y63882D01*
X377400Y63462D01*
X377971Y63028D01*
X378531Y62580D01*
X379079Y62118D01*
X379616Y61643D01*
X380141Y61155D01*
X380655Y60655D01*
X381155Y60141D01*
X381643Y59616D01*
X382118Y59079D01*
X382580Y58531D01*
X383028Y57971D01*
X383462Y57400D01*
X383882Y56819D01*
X384287Y56228D01*
X384678Y55627D01*
X385054Y55017D01*
X385415Y54398D01*
X385761Y53769D01*
X386091Y53133D01*
X386406Y52489D01*
X386704Y51837D01*
X386987Y51178D01*
X387253Y50513D01*
X387503Y49841D01*
X387736Y49163D01*
X387952Y48479D01*
X388152Y47791D01*
X388335Y47097D01*
X388500Y46400D01*
X388649Y45699D01*
X388780Y44994D01*
X388894Y44286D01*
X388990Y43576D01*
X389069Y42863D01*
X389131Y42149D01*
X389175Y41433D01*
X389201Y40717D01*
X389210Y40000D01*
X389201Y39283D01*
X389175Y38567D01*
X389131Y37851D01*
X389069Y37137D01*
X388990Y36424D01*
X388894Y35714D01*
X388780Y35006D01*
X388649Y34301D01*
X388500Y33600D01*
X388335Y32903D01*
X388152Y32209D01*
X387952Y31521D01*
X387736Y30837D01*
X387503Y30159D01*
X387253Y29487D01*
X386987Y28822D01*
X386704Y28163D01*
X386406Y27511D01*
X386091Y26867D01*
X385761Y26231D01*
X385415Y25602D01*
X385054Y24983D01*
X384678Y24373D01*
X384287Y23772D01*
X383882Y23181D01*
X383462Y22600D01*
X383028Y22029D01*
X382580Y21469D01*
X382118Y20921D01*
X381643Y20384D01*
X381155Y19859D01*
X380655Y19345D01*
X380141Y18845D01*
X379616Y18357D01*
X379079Y17882D01*
X378531Y17420D01*
X377971Y16972D01*
X377400Y16538D01*
X376819Y16118D01*
X376228Y15713D01*
X375627Y15322D01*
X375017Y14946D01*
X374398Y14585D01*
X373769Y14239D01*
X373133Y13909D01*
X372489Y13594D01*
X371837Y13296D01*
X371178Y13013D01*
X370513Y12747D01*
X369841Y12497D01*
X369163Y12264D01*
X368479Y12048D01*
X367791Y11848D01*
X367097Y11665D01*
X366400Y11500D01*
X365699Y11351D01*
X364994Y11220D01*
X364286Y11106D01*
X363576Y11010D01*
X362863Y10931D01*
X362149Y10869D01*
X361433Y10825D01*
X360717Y10799D01*
X360000Y10790D01*
X359283Y10799D01*
X358567Y10825D01*
X357851Y10869D01*
X357137Y10931D01*
X356424Y11010D01*
X355714Y11106D01*
X355006Y11220D01*
X354301Y11351D01*
X353600Y11500D01*
X352903Y11665D01*
X352209Y11848D01*
X351521Y12048D01*
X350837Y12264D01*
X350159Y12497D01*
X349487Y12747D01*
X348822Y13013D01*
X348163Y13296D01*
X347511Y13594D01*
X346867Y13909D01*
X346231Y14239D01*
X345602Y14585D01*
X344983Y14946D01*
X344373Y15322D01*
X343772Y15713D01*
X343181Y16118D01*
X342600Y16538D01*
X342029Y16972D01*
X341469Y17420D01*
X340921Y17882D01*
X340384Y18357D01*
X339859Y18845D01*
X339345Y19345D01*
X338845Y19859D01*
X338357Y20384D01*
X337882Y20921D01*
X337420Y21469D01*
X336972Y22029D01*
X336538Y22600D01*
X336118Y23181D01*
X335713Y23772D01*
X335322Y24373D01*
X334946Y24983D01*
X334585Y25602D01*
X334239Y26231D01*
X333909Y26867D01*
X333594Y27511D01*
X333296Y28163D01*
X333013Y28822D01*
X332747Y29487D01*
X332497Y30159D01*
X332264Y30837D01*
X332048Y31521D01*
X331848Y32209D01*
X331665Y32903D01*
X331500Y33600D01*
X331351Y34301D01*
X331220Y35006D01*
X331106Y35714D01*
X331010Y36424D01*
X330931Y37137D01*
X330869Y37851D01*
X330825Y38567D01*
X330799Y39283D01*
X330790Y40000D01*
X395560Y40635D02*
X395560Y52065D01*
X392385Y52065D02*
X398735Y52065D01*
X403053Y49525D02*
X406228Y52065D01*
X406228Y40635D01*
X403053Y40635D02*
X409403Y40635D01*
D14*
X226350Y-20000D02*
X220000Y-20000D01*
X209840Y-26350D02*
X209840Y-13650D01*
X220000Y-20000D01*
X204760Y-20000D01*
X209840Y-26350D02*
X220000Y-20000D01*
X220000Y-26350D01*
X220000Y-20000D02*
X220000Y-13650D01*
X199680Y-30160D02*
X199580Y-30158D01*
X199481Y-30152D01*
X199381Y-30142D01*
X199283Y-30129D01*
X199184Y-30111D01*
X199087Y-30090D01*
X198991Y-30065D01*
X198895Y-30036D01*
X198801Y-30003D01*
X198708Y-29967D01*
X198617Y-29927D01*
X198527Y-29883D01*
X198439Y-29836D01*
X198353Y-29786D01*
X198269Y-29732D01*
X198187Y-29675D01*
X198108Y-29615D01*
X198030Y-29551D01*
X197956Y-29485D01*
X197884Y-29416D01*
X197815Y-29344D01*
X197749Y-29270D01*
X197685Y-29192D01*
X197625Y-29113D01*
X197568Y-29031D01*
X197514Y-28947D01*
X197464Y-28861D01*
X197417Y-28773D01*
X197373Y-28683D01*
X197333Y-28592D01*
X197297Y-28499D01*
X197264Y-28405D01*
X197235Y-28309D01*
X197210Y-28213D01*
X197189Y-28116D01*
X197171Y-28017D01*
X197158Y-27919D01*
X197148Y-27819D01*
X197142Y-27720D01*
X197140Y-27620D01*
X197140Y-12380D01*
X197142Y-12280D01*
X197148Y-12181D01*
X197158Y-12081D01*
X197171Y-11983D01*
X197189Y-11884D01*
X197210Y-11787D01*
X197235Y-11691D01*
X197264Y-11595D01*
X197297Y-11501D01*
X197333Y-11408D01*
X197373Y-11317D01*
X197417Y-11227D01*
X197464Y-11139D01*
X197514Y-11053D01*
X197568Y-10969D01*
X197625Y-10887D01*
X197685Y-10808D01*
X197749Y-10730D01*
X197815Y-10656D01*
X197884Y-10584D01*
X197956Y-10515D01*
X198030Y-10449D01*
X198108Y-10385D01*
X198187Y-10325D01*
X198269Y-10268D01*
X198353Y-10214D01*
X198439Y-10164D01*
X198527Y-10117D01*
X198617Y-10073D01*
X198708Y-10033D01*
X198801Y-9997D01*
X198895Y-9964D01*
X198991Y-9935D01*
X199087Y-9910D01*
X199184Y-9889D01*
X199283Y-9871D01*
X199381Y-9858D01*
X199481Y-9848D01*
X199580Y-9842D01*
X199680Y-9840D01*
X240320Y-30160D02*
X240420Y-30158D01*
X240519Y-30152D01*
X240619Y-30142D01*
X240717Y-30129D01*
X240816Y-30111D01*
X240913Y-30090D01*
X241009Y-30065D01*
X241105Y-30036D01*
X241199Y-30003D01*
X241292Y-29967D01*
X241383Y-29927D01*
X241473Y-29883D01*
X241561Y-29836D01*
X241647Y-29786D01*
X241731Y-29732D01*
X241813Y-29675D01*
X241892Y-29615D01*
X241970Y-29551D01*
X242044Y-29485D01*
X242116Y-29416D01*
X242185Y-29344D01*
X242251Y-29270D01*
X242315Y-29192D01*
X242375Y-29113D01*
X242432Y-29031D01*
X242486Y-28947D01*
X242536Y-28861D01*
X242583Y-28773D01*
X242627Y-28683D01*
X242667Y-28592D01*
X242703Y-28499D01*
X242736Y-28405D01*
X242765Y-28309D01*
X242790Y-28213D01*
X242811Y-28116D01*
X242829Y-28017D01*
X242842Y-27919D01*
X242852Y-27819D01*
X242858Y-27720D01*
X242860Y-27620D01*
X242860Y-12380D02*
X242858Y-12280D01*
X242852Y-12181D01*
X242842Y-12081D01*
X242829Y-11983D01*
X242811Y-11884D01*
X242790Y-11787D01*
X242765Y-11691D01*
X242736Y-11595D01*
X242703Y-11501D01*
X242667Y-11408D01*
X242627Y-11317D01*
X242583Y-11227D01*
X242536Y-11139D01*
X242486Y-11053D01*
X242432Y-10969D01*
X242375Y-10887D01*
X242315Y-10808D01*
X242251Y-10730D01*
X242185Y-10656D01*
X242116Y-10584D01*
X242044Y-10515D01*
X241970Y-10449D01*
X241892Y-10385D01*
X241813Y-10325D01*
X241731Y-10268D01*
X241647Y-10214D01*
X241561Y-10164D01*
X241473Y-10117D01*
X241383Y-10073D01*
X241292Y-10033D01*
X241199Y-9997D01*
X241105Y-9964D01*
X241009Y-9935D01*
X240913Y-9910D01*
X240816Y-9889D01*
X240717Y-9871D01*
X240619Y-9858D01*
X240519Y-9848D01*
X240420Y-9842D01*
X240320Y-9840D01*
X199680Y-9840D01*
X242860Y-12380D02*
X242860Y-27620D01*
X240320Y-30160D02*
X199680Y-30160D01*
D17*
X236510Y-20000D03*
D18*
X193965Y-20000D03*
X246035Y-20000D03*
D15*
X224064Y-33335D02*
X224064Y-44765D01*
X224064Y-33335D02*
X227239Y-33335D01*
X227350Y-33337D01*
X227460Y-33343D01*
X227571Y-33352D01*
X227681Y-33366D01*
X227790Y-33383D01*
X227899Y-33404D01*
X228007Y-33429D01*
X228114Y-33458D01*
X228220Y-33490D01*
X228325Y-33526D01*
X228428Y-33566D01*
X228530Y-33609D01*
X228631Y-33656D01*
X228730Y-33707D01*
X228827Y-33760D01*
X228921Y-33817D01*
X229014Y-33878D01*
X229105Y-33941D01*
X229194Y-34008D01*
X229280Y-34078D01*
X229363Y-34151D01*
X229445Y-34226D01*
X229523Y-34304D01*
X229598Y-34386D01*
X229671Y-34469D01*
X229741Y-34555D01*
X229808Y-34644D01*
X229871Y-34735D01*
X229932Y-34828D01*
X229989Y-34923D01*
X230042Y-35019D01*
X230093Y-35118D01*
X230140Y-35219D01*
X230183Y-35321D01*
X230223Y-35424D01*
X230259Y-35529D01*
X230291Y-35635D01*
X230320Y-35742D01*
X230345Y-35850D01*
X230366Y-35959D01*
X230383Y-36068D01*
X230397Y-36178D01*
X230406Y-36289D01*
X230412Y-36399D01*
X230414Y-36510D01*
X230414Y-41590D01*
X230412Y-41701D01*
X230406Y-41811D01*
X230397Y-41922D01*
X230383Y-42032D01*
X230366Y-42141D01*
X230345Y-42250D01*
X230320Y-42358D01*
X230291Y-42465D01*
X230259Y-42571D01*
X230223Y-42676D01*
X230183Y-42779D01*
X230140Y-42881D01*
X230093Y-42982D01*
X230042Y-43081D01*
X229989Y-43178D01*
X229932Y-43272D01*
X229871Y-43365D01*
X229808Y-43456D01*
X229741Y-43545D01*
X229671Y-43631D01*
X229598Y-43714D01*
X229523Y-43796D01*
X229445Y-43874D01*
X229363Y-43949D01*
X229280Y-44022D01*
X229194Y-44092D01*
X229105Y-44159D01*
X229014Y-44222D01*
X228921Y-44283D01*
X228826Y-44340D01*
X228730Y-44393D01*
X228631Y-44444D01*
X228530Y-44491D01*
X228428Y-44534D01*
X228325Y-44574D01*
X228220Y-44610D01*
X228114Y-44642D01*
X228007Y-44671D01*
X227899Y-44696D01*
X227790Y-44717D01*
X227681Y-44734D01*
X227571Y-44748D01*
X227460Y-44757D01*
X227350Y-44763D01*
X227239Y-44765D01*
X224064Y-44765D01*
X235875Y-35875D02*
X239050Y-33335D01*
X239050Y-44765D01*
X235875Y-44765D02*
X242225Y-44765D01*
D11*
X383208Y167995D02*
X394892Y167995D01*
X383208Y167995D02*
X383208Y171240D01*
X383210Y171353D01*
X383216Y171466D01*
X383226Y171579D01*
X383240Y171692D01*
X383257Y171804D01*
X383279Y171915D01*
X383304Y172025D01*
X383334Y172135D01*
X383367Y172243D01*
X383404Y172350D01*
X383444Y172456D01*
X383489Y172560D01*
X383537Y172663D01*
X383588Y172764D01*
X383643Y172863D01*
X383701Y172960D01*
X383763Y173055D01*
X383828Y173148D01*
X383896Y173238D01*
X383967Y173326D01*
X384042Y173412D01*
X384119Y173495D01*
X384199Y173575D01*
X384282Y173652D01*
X384368Y173727D01*
X384456Y173798D01*
X384546Y173866D01*
X384639Y173931D01*
X384734Y173993D01*
X384831Y174051D01*
X384930Y174106D01*
X385031Y174157D01*
X385134Y174205D01*
X385238Y174250D01*
X385344Y174290D01*
X385451Y174327D01*
X385559Y174360D01*
X385669Y174390D01*
X385779Y174415D01*
X385890Y174437D01*
X386002Y174454D01*
X386115Y174468D01*
X386228Y174478D01*
X386341Y174484D01*
X386454Y174486D01*
X386567Y174484D01*
X386680Y174478D01*
X386793Y174468D01*
X386906Y174454D01*
X387018Y174437D01*
X387129Y174415D01*
X387239Y174390D01*
X387349Y174360D01*
X387457Y174327D01*
X387564Y174290D01*
X387670Y174250D01*
X387774Y174205D01*
X387877Y174157D01*
X387978Y174106D01*
X388077Y174051D01*
X388174Y173993D01*
X388269Y173931D01*
X388362Y173866D01*
X388452Y173798D01*
X388540Y173727D01*
X388626Y173652D01*
X388709Y173575D01*
X388789Y173495D01*
X388866Y173412D01*
X388941Y173326D01*
X389012Y173238D01*
X389080Y173148D01*
X389145Y173055D01*
X389207Y172960D01*
X389265Y172863D01*
X389320Y172764D01*
X389371Y172663D01*
X389419Y172560D01*
X389464Y172456D01*
X389504Y172350D01*
X389541Y172243D01*
X389574Y172135D01*
X389604Y172025D01*
X389629Y171915D01*
X389651Y171804D01*
X389668Y171692D01*
X389682Y171579D01*
X389692Y171466D01*
X389698Y171353D01*
X389700Y171240D01*
X389699Y171240D02*
X389699Y167995D01*
X389699Y171889D02*
X394892Y174486D01*
X385804Y179351D02*
X383208Y182596D01*
X394892Y182596D01*
X394892Y179351D02*
X394892Y185842D01*
M02*
