G04 EAGLE Gerber RS-274X export*
G75*
%MOMM*%
%FSLAX34Y34*%
%LPD*%
%INTop Copper*%
%IPPOS*%
%AMOC8*
5,1,8,0,0,1.08239X$1,22.5*%
G01*
%ADD10C,2.010000*%
%ADD11C,1.308000*%
%ADD12R,1.500000X1.300000*%
%ADD13R,1.300000X1.500000*%
%ADD14R,1.524000X1.524000*%
%ADD15C,1.524000*%
%ADD16C,1.524000*%
%ADD17C,1.320800*%
%ADD18C,1.790700*%
%ADD19P,1.429621X8X22.500000*%
%ADD20C,1.320800*%
%ADD21C,0.152400*%
%ADD22C,1.006400*%

G36*
X405698Y-63336D02*
X405698Y-63336D01*
X405717Y-63338D01*
X405819Y-63316D01*
X405921Y-63300D01*
X405938Y-63290D01*
X405958Y-63286D01*
X406047Y-63233D01*
X406138Y-63184D01*
X406152Y-63170D01*
X406169Y-63160D01*
X406236Y-63081D01*
X406308Y-63006D01*
X406316Y-62988D01*
X406329Y-62973D01*
X406368Y-62877D01*
X406411Y-62783D01*
X406413Y-62763D01*
X406421Y-62745D01*
X406439Y-62578D01*
X406439Y-31368D01*
X406432Y-31321D01*
X406433Y-31273D01*
X406412Y-31200D01*
X406400Y-31126D01*
X406377Y-31083D01*
X406363Y-31037D01*
X406320Y-30975D01*
X406284Y-30908D01*
X406250Y-30875D01*
X406222Y-30836D01*
X406161Y-30791D01*
X406106Y-30739D01*
X406063Y-30719D01*
X406024Y-30690D01*
X405952Y-30667D01*
X405883Y-30635D01*
X405835Y-30630D01*
X405790Y-30615D01*
X405714Y-30616D01*
X405639Y-30608D01*
X405592Y-30618D01*
X405544Y-30619D01*
X405472Y-30644D01*
X405398Y-30660D01*
X405357Y-30685D01*
X405312Y-30701D01*
X405252Y-30748D01*
X405187Y-30786D01*
X405156Y-30823D01*
X405118Y-30852D01*
X405042Y-30956D01*
X405027Y-30973D01*
X405025Y-30980D01*
X405019Y-30988D01*
X401734Y-36677D01*
X396677Y-41734D01*
X390484Y-45310D01*
X383576Y-47161D01*
X376424Y-47161D01*
X369516Y-45310D01*
X363323Y-41734D01*
X358266Y-36677D01*
X354690Y-30484D01*
X352839Y-23576D01*
X352839Y-16424D01*
X354690Y-9516D01*
X358266Y-3323D01*
X363323Y1734D01*
X369516Y5310D01*
X376424Y7161D01*
X383576Y7161D01*
X390484Y5310D01*
X396677Y1734D01*
X401734Y-3323D01*
X405019Y-9012D01*
X405049Y-9049D01*
X405072Y-9092D01*
X405127Y-9144D01*
X405175Y-9203D01*
X405215Y-9228D01*
X405250Y-9261D01*
X405319Y-9293D01*
X405383Y-9333D01*
X405430Y-9345D01*
X405473Y-9365D01*
X405548Y-9373D01*
X405622Y-9391D01*
X405670Y-9387D01*
X405717Y-9392D01*
X405792Y-9376D01*
X405867Y-9369D01*
X405911Y-9350D01*
X405958Y-9340D01*
X406023Y-9301D01*
X406092Y-9270D01*
X406128Y-9238D01*
X406169Y-9214D01*
X406218Y-9156D01*
X406274Y-9105D01*
X406298Y-9063D01*
X406329Y-9027D01*
X406357Y-8956D01*
X406394Y-8890D01*
X406403Y-8843D01*
X406421Y-8798D01*
X406435Y-8670D01*
X406439Y-8648D01*
X406438Y-8642D01*
X406439Y-8632D01*
X406439Y348632D01*
X406432Y348679D01*
X406433Y348727D01*
X406412Y348800D01*
X406400Y348874D01*
X406377Y348917D01*
X406363Y348963D01*
X406320Y349025D01*
X406284Y349092D01*
X406250Y349125D01*
X406222Y349164D01*
X406161Y349209D01*
X406106Y349261D01*
X406063Y349281D01*
X406024Y349310D01*
X405952Y349333D01*
X405883Y349365D01*
X405835Y349370D01*
X405790Y349385D01*
X405714Y349384D01*
X405639Y349392D01*
X405592Y349382D01*
X405544Y349381D01*
X405472Y349356D01*
X405398Y349340D01*
X405357Y349315D01*
X405312Y349299D01*
X405252Y349252D01*
X405187Y349214D01*
X405156Y349177D01*
X405118Y349148D01*
X405042Y349044D01*
X405027Y349027D01*
X405025Y349020D01*
X405019Y349012D01*
X401734Y343323D01*
X396677Y338266D01*
X390484Y334690D01*
X383576Y332839D01*
X376424Y332839D01*
X369516Y334690D01*
X363323Y338266D01*
X358266Y343323D01*
X354690Y349516D01*
X352839Y356424D01*
X352839Y363576D01*
X354690Y370484D01*
X358266Y376677D01*
X359129Y377540D01*
X359171Y377598D01*
X359220Y377650D01*
X359242Y377697D01*
X359272Y377739D01*
X359293Y377808D01*
X359324Y377873D01*
X359329Y377925D01*
X359345Y377975D01*
X359343Y378046D01*
X359351Y378117D01*
X359340Y378168D01*
X359338Y378220D01*
X359314Y378288D01*
X359298Y378358D01*
X359272Y378403D01*
X359254Y378451D01*
X359209Y378507D01*
X359172Y378569D01*
X359133Y378603D01*
X359100Y378643D01*
X359040Y378682D01*
X358985Y378729D01*
X358937Y378748D01*
X358893Y378776D01*
X358824Y378794D01*
X358757Y378821D01*
X358686Y378829D01*
X358655Y378837D01*
X358631Y378835D01*
X358590Y378839D01*
X41410Y378839D01*
X41339Y378828D01*
X41267Y378826D01*
X41218Y378808D01*
X41167Y378800D01*
X41104Y378766D01*
X41036Y378741D01*
X40996Y378709D01*
X40949Y378684D01*
X40900Y378632D01*
X40844Y378588D01*
X40816Y378544D01*
X40780Y378506D01*
X40750Y378441D01*
X40711Y378381D01*
X40698Y378330D01*
X40676Y378283D01*
X40669Y378212D01*
X40651Y378142D01*
X40655Y378090D01*
X40649Y378039D01*
X40665Y377968D01*
X40670Y377897D01*
X40691Y377849D01*
X40702Y377798D01*
X40738Y377737D01*
X40767Y377671D01*
X40811Y377615D01*
X40828Y377587D01*
X40846Y377572D01*
X40871Y377540D01*
X41734Y376677D01*
X45310Y370484D01*
X47161Y363576D01*
X47161Y356424D01*
X45310Y349516D01*
X41734Y343323D01*
X36677Y338266D01*
X30484Y334690D01*
X23576Y332839D01*
X16424Y332839D01*
X9516Y334690D01*
X3323Y338266D01*
X-1734Y343323D01*
X-5310Y349516D01*
X-7161Y356424D01*
X-7161Y363576D01*
X-5310Y370484D01*
X-1734Y376677D01*
X-871Y377540D01*
X-829Y377598D01*
X-780Y377650D01*
X-758Y377697D01*
X-728Y377739D01*
X-707Y377808D01*
X-676Y377873D01*
X-671Y377925D01*
X-655Y377975D01*
X-657Y378046D01*
X-649Y378117D01*
X-660Y378168D01*
X-662Y378220D01*
X-686Y378288D01*
X-702Y378358D01*
X-728Y378403D01*
X-746Y378451D01*
X-791Y378507D01*
X-828Y378569D01*
X-867Y378603D01*
X-900Y378643D01*
X-960Y378682D01*
X-1015Y378729D01*
X-1063Y378748D01*
X-1107Y378776D01*
X-1176Y378794D01*
X-1243Y378821D01*
X-1314Y378829D01*
X-1345Y378837D01*
X-1369Y378835D01*
X-1410Y378839D01*
X-12578Y378839D01*
X-12598Y378836D01*
X-12617Y378838D01*
X-12719Y378816D01*
X-12821Y378800D01*
X-12838Y378790D01*
X-12858Y378786D01*
X-12947Y378733D01*
X-13038Y378684D01*
X-13052Y378670D01*
X-13069Y378660D01*
X-13136Y378581D01*
X-13208Y378506D01*
X-13216Y378488D01*
X-13229Y378473D01*
X-13268Y378377D01*
X-13311Y378283D01*
X-13313Y378263D01*
X-13321Y378245D01*
X-13339Y378078D01*
X-13339Y-62578D01*
X-13336Y-62598D01*
X-13338Y-62617D01*
X-13316Y-62719D01*
X-13300Y-62821D01*
X-13290Y-62838D01*
X-13286Y-62858D01*
X-13233Y-62947D01*
X-13184Y-63038D01*
X-13170Y-63052D01*
X-13160Y-63069D01*
X-13081Y-63136D01*
X-13006Y-63208D01*
X-12988Y-63216D01*
X-12973Y-63229D01*
X-12877Y-63268D01*
X-12783Y-63311D01*
X-12763Y-63313D01*
X-12745Y-63321D01*
X-12578Y-63339D01*
X405678Y-63339D01*
X405698Y-63336D01*
G37*
%LPC*%
G36*
X74078Y230631D02*
X74078Y230631D01*
X70157Y232255D01*
X67155Y235257D01*
X65531Y239178D01*
X65531Y243422D01*
X67155Y247343D01*
X70157Y250345D01*
X74078Y251969D01*
X78322Y251969D01*
X80156Y251209D01*
X80269Y251183D01*
X80383Y251154D01*
X80389Y251155D01*
X80395Y251153D01*
X80512Y251164D01*
X80628Y251173D01*
X80634Y251176D01*
X80640Y251176D01*
X80747Y251224D01*
X80854Y251270D01*
X80860Y251274D01*
X80865Y251276D01*
X80878Y251289D01*
X80985Y251374D01*
X85966Y256356D01*
X86019Y256430D01*
X86079Y256499D01*
X86091Y256529D01*
X86110Y256555D01*
X86137Y256642D01*
X86171Y256727D01*
X86175Y256768D01*
X86182Y256790D01*
X86181Y256823D01*
X86189Y256894D01*
X86189Y310564D01*
X86178Y310634D01*
X86176Y310706D01*
X86158Y310755D01*
X86150Y310806D01*
X86116Y310870D01*
X86091Y310937D01*
X86059Y310978D01*
X86034Y311024D01*
X85982Y311073D01*
X85938Y311129D01*
X85894Y311157D01*
X85856Y311193D01*
X85791Y311223D01*
X85731Y311262D01*
X85680Y311275D01*
X85633Y311297D01*
X85562Y311305D01*
X85492Y311322D01*
X85440Y311318D01*
X85389Y311324D01*
X85318Y311309D01*
X85247Y311303D01*
X85199Y311283D01*
X85148Y311272D01*
X85087Y311235D01*
X85021Y311207D01*
X84965Y311162D01*
X84937Y311145D01*
X84922Y311128D01*
X84890Y311102D01*
X82243Y308455D01*
X78322Y306831D01*
X74078Y306831D01*
X70157Y308455D01*
X67155Y311457D01*
X65531Y315378D01*
X65531Y319622D01*
X67155Y323543D01*
X70157Y326545D01*
X74078Y328169D01*
X78322Y328169D01*
X82243Y326545D01*
X84890Y323898D01*
X84948Y323856D01*
X85000Y323807D01*
X85047Y323785D01*
X85089Y323755D01*
X85158Y323734D01*
X85223Y323703D01*
X85275Y323698D01*
X85325Y323682D01*
X85396Y323684D01*
X85467Y323676D01*
X85518Y323687D01*
X85570Y323689D01*
X85638Y323713D01*
X85708Y323728D01*
X85753Y323755D01*
X85801Y323773D01*
X85857Y323818D01*
X85919Y323855D01*
X85953Y323894D01*
X85993Y323927D01*
X86032Y323987D01*
X86079Y324042D01*
X86098Y324090D01*
X86126Y324134D01*
X86144Y324203D01*
X86171Y324270D01*
X86179Y324341D01*
X86187Y324372D01*
X86185Y324395D01*
X86189Y324436D01*
X86189Y330950D01*
X86186Y330970D01*
X86188Y330989D01*
X86166Y331091D01*
X86150Y331193D01*
X86140Y331210D01*
X86136Y331230D01*
X86083Y331319D01*
X86034Y331410D01*
X86020Y331424D01*
X86010Y331441D01*
X85931Y331508D01*
X85856Y331580D01*
X85838Y331588D01*
X85823Y331601D01*
X85727Y331640D01*
X85633Y331683D01*
X85613Y331685D01*
X85595Y331693D01*
X85428Y331711D01*
X82478Y331711D01*
X78557Y333335D01*
X75555Y336337D01*
X73931Y340258D01*
X73931Y359742D01*
X75555Y363663D01*
X78557Y366665D01*
X82478Y368289D01*
X86722Y368289D01*
X90643Y366665D01*
X93645Y363663D01*
X95269Y359742D01*
X95269Y340258D01*
X93869Y336878D01*
X93854Y336814D01*
X93829Y336753D01*
X93820Y336670D01*
X93813Y336638D01*
X93814Y336619D01*
X93811Y336586D01*
X93811Y326636D01*
X93822Y326566D01*
X93824Y326494D01*
X93842Y326445D01*
X93850Y326394D01*
X93884Y326330D01*
X93909Y326263D01*
X93941Y326222D01*
X93966Y326176D01*
X94018Y326127D01*
X94062Y326071D01*
X94106Y326043D01*
X94144Y326007D01*
X94209Y325977D01*
X94269Y325938D01*
X94320Y325925D01*
X94367Y325903D01*
X94438Y325895D01*
X94508Y325878D01*
X94560Y325882D01*
X94611Y325876D01*
X94682Y325891D01*
X94753Y325897D01*
X94801Y325917D01*
X94852Y325928D01*
X94913Y325965D01*
X94979Y325993D01*
X95035Y326038D01*
X95063Y326055D01*
X95078Y326072D01*
X95110Y326098D01*
X95557Y326545D01*
X99478Y328169D01*
X103722Y328169D01*
X107643Y326545D01*
X109890Y324298D01*
X109948Y324256D01*
X110000Y324207D01*
X110047Y324185D01*
X110089Y324155D01*
X110158Y324134D01*
X110223Y324103D01*
X110275Y324098D01*
X110325Y324082D01*
X110396Y324084D01*
X110467Y324076D01*
X110518Y324087D01*
X110570Y324089D01*
X110638Y324113D01*
X110708Y324128D01*
X110753Y324155D01*
X110801Y324173D01*
X110857Y324218D01*
X110919Y324255D01*
X110953Y324294D01*
X110993Y324327D01*
X111032Y324387D01*
X111079Y324442D01*
X111098Y324490D01*
X111126Y324534D01*
X111144Y324603D01*
X111171Y324670D01*
X111179Y324741D01*
X111187Y324772D01*
X111185Y324795D01*
X111189Y324836D01*
X111189Y330950D01*
X111186Y330970D01*
X111188Y330989D01*
X111166Y331091D01*
X111150Y331193D01*
X111140Y331210D01*
X111136Y331230D01*
X111083Y331319D01*
X111034Y331410D01*
X111020Y331424D01*
X111010Y331441D01*
X110931Y331508D01*
X110856Y331580D01*
X110838Y331588D01*
X110823Y331601D01*
X110727Y331640D01*
X110633Y331683D01*
X110613Y331685D01*
X110595Y331693D01*
X110428Y331711D01*
X107878Y331711D01*
X103957Y333335D01*
X100955Y336337D01*
X99331Y340258D01*
X99331Y359742D01*
X100955Y363663D01*
X103957Y366665D01*
X107878Y368289D01*
X112122Y368289D01*
X116043Y366665D01*
X119045Y363663D01*
X120669Y359742D01*
X120669Y340258D01*
X119045Y336337D01*
X119034Y336326D01*
X118981Y336252D01*
X118921Y336182D01*
X118909Y336152D01*
X118890Y336126D01*
X118863Y336039D01*
X118829Y335954D01*
X118825Y335913D01*
X118818Y335891D01*
X118819Y335859D01*
X118811Y335788D01*
X118811Y326236D01*
X118822Y326166D01*
X118824Y326094D01*
X118842Y326045D01*
X118850Y325994D01*
X118884Y325930D01*
X118909Y325863D01*
X118941Y325822D01*
X118966Y325776D01*
X119018Y325727D01*
X119062Y325671D01*
X119106Y325643D01*
X119144Y325607D01*
X119209Y325577D01*
X119269Y325538D01*
X119320Y325525D01*
X119367Y325503D01*
X119438Y325495D01*
X119508Y325478D01*
X119560Y325482D01*
X119611Y325476D01*
X119682Y325491D01*
X119753Y325497D01*
X119801Y325517D01*
X119852Y325528D01*
X119913Y325565D01*
X119979Y325593D01*
X120035Y325638D01*
X120063Y325655D01*
X120078Y325672D01*
X120110Y325698D01*
X120957Y326545D01*
X124878Y328169D01*
X129122Y328169D01*
X133043Y326545D01*
X134890Y324698D01*
X134948Y324656D01*
X135000Y324607D01*
X135047Y324585D01*
X135089Y324555D01*
X135158Y324534D01*
X135223Y324503D01*
X135275Y324498D01*
X135325Y324482D01*
X135396Y324484D01*
X135467Y324476D01*
X135518Y324487D01*
X135570Y324489D01*
X135638Y324513D01*
X135708Y324528D01*
X135753Y324555D01*
X135801Y324573D01*
X135857Y324618D01*
X135919Y324655D01*
X135953Y324694D01*
X135993Y324727D01*
X136032Y324787D01*
X136079Y324842D01*
X136098Y324890D01*
X136126Y324934D01*
X136144Y325003D01*
X136171Y325070D01*
X136179Y325141D01*
X136187Y325172D01*
X136185Y325195D01*
X136189Y325236D01*
X136189Y330950D01*
X136186Y330970D01*
X136188Y330989D01*
X136166Y331091D01*
X136150Y331193D01*
X136140Y331210D01*
X136136Y331230D01*
X136083Y331319D01*
X136034Y331410D01*
X136020Y331424D01*
X136010Y331441D01*
X135931Y331508D01*
X135856Y331580D01*
X135838Y331588D01*
X135823Y331601D01*
X135727Y331640D01*
X135633Y331683D01*
X135613Y331685D01*
X135595Y331693D01*
X135428Y331711D01*
X133278Y331711D01*
X129357Y333335D01*
X126355Y336337D01*
X124731Y340258D01*
X124731Y359742D01*
X126355Y363663D01*
X129357Y366665D01*
X133278Y368289D01*
X137522Y368289D01*
X141443Y366665D01*
X144445Y363663D01*
X146069Y359742D01*
X146069Y340258D01*
X144445Y336337D01*
X144034Y335926D01*
X143981Y335852D01*
X143921Y335782D01*
X143909Y335752D01*
X143890Y335726D01*
X143863Y335639D01*
X143829Y335554D01*
X143825Y335513D01*
X143818Y335491D01*
X143819Y335459D01*
X143811Y335388D01*
X143811Y325836D01*
X143822Y325766D01*
X143824Y325694D01*
X143842Y325645D01*
X143850Y325594D01*
X143884Y325530D01*
X143909Y325463D01*
X143941Y325422D01*
X143966Y325376D01*
X144018Y325327D01*
X144062Y325271D01*
X144106Y325243D01*
X144144Y325207D01*
X144209Y325177D01*
X144269Y325138D01*
X144320Y325125D01*
X144367Y325103D01*
X144438Y325095D01*
X144508Y325078D01*
X144560Y325082D01*
X144611Y325076D01*
X144682Y325091D01*
X144753Y325097D01*
X144801Y325117D01*
X144852Y325128D01*
X144913Y325165D01*
X144979Y325193D01*
X145035Y325238D01*
X145063Y325255D01*
X145078Y325272D01*
X145110Y325298D01*
X146357Y326545D01*
X150278Y328169D01*
X154522Y328169D01*
X158443Y326545D01*
X161445Y323543D01*
X163069Y319622D01*
X163069Y315378D01*
X161445Y311457D01*
X158443Y308455D01*
X154522Y306831D01*
X150278Y306831D01*
X146357Y308455D01*
X145110Y309702D01*
X145052Y309744D01*
X145000Y309793D01*
X144953Y309815D01*
X144911Y309845D01*
X144842Y309866D01*
X144777Y309897D01*
X144725Y309902D01*
X144675Y309918D01*
X144604Y309916D01*
X144533Y309924D01*
X144482Y309913D01*
X144430Y309911D01*
X144362Y309887D01*
X144292Y309872D01*
X144247Y309845D01*
X144199Y309827D01*
X144143Y309782D01*
X144081Y309745D01*
X144047Y309706D01*
X144007Y309673D01*
X143968Y309613D01*
X143921Y309558D01*
X143902Y309510D01*
X143874Y309466D01*
X143856Y309397D01*
X143829Y309330D01*
X143821Y309259D01*
X143813Y309228D01*
X143815Y309205D01*
X143811Y309164D01*
X143811Y253422D01*
X141356Y250966D01*
X136899Y246509D01*
X136831Y246415D01*
X136761Y246321D01*
X136759Y246315D01*
X136755Y246310D01*
X136721Y246199D01*
X136684Y246087D01*
X136685Y246081D01*
X136683Y246075D01*
X136686Y245958D01*
X136687Y245841D01*
X136689Y245834D01*
X136689Y245829D01*
X136695Y245811D01*
X136734Y245680D01*
X137669Y243422D01*
X137669Y239178D01*
X136045Y235257D01*
X133043Y232255D01*
X129122Y230631D01*
X124878Y230631D01*
X120957Y232255D01*
X117955Y235257D01*
X116331Y239178D01*
X116331Y243422D01*
X117955Y247343D01*
X120957Y250345D01*
X124878Y251969D01*
X129122Y251969D01*
X130390Y251444D01*
X130504Y251417D01*
X130617Y251388D01*
X130623Y251389D01*
X130629Y251387D01*
X130746Y251398D01*
X130862Y251408D01*
X130868Y251410D01*
X130874Y251411D01*
X130982Y251458D01*
X131088Y251504D01*
X131094Y251508D01*
X131099Y251511D01*
X131113Y251523D01*
X131219Y251609D01*
X135966Y256356D01*
X136019Y256430D01*
X136079Y256499D01*
X136091Y256529D01*
X136110Y256555D01*
X136137Y256642D01*
X136171Y256727D01*
X136175Y256768D01*
X136182Y256790D01*
X136181Y256823D01*
X136189Y256894D01*
X136189Y309764D01*
X136178Y309834D01*
X136176Y309906D01*
X136158Y309955D01*
X136150Y310006D01*
X136116Y310070D01*
X136091Y310137D01*
X136059Y310178D01*
X136034Y310224D01*
X135982Y310273D01*
X135938Y310329D01*
X135894Y310357D01*
X135856Y310393D01*
X135791Y310423D01*
X135731Y310462D01*
X135680Y310475D01*
X135633Y310497D01*
X135562Y310505D01*
X135492Y310522D01*
X135440Y310518D01*
X135389Y310524D01*
X135318Y310509D01*
X135247Y310503D01*
X135199Y310483D01*
X135148Y310472D01*
X135087Y310435D01*
X135021Y310407D01*
X134965Y310362D01*
X134937Y310345D01*
X134922Y310328D01*
X134890Y310302D01*
X133043Y308455D01*
X129122Y306831D01*
X124878Y306831D01*
X120957Y308455D01*
X120110Y309302D01*
X120052Y309344D01*
X120000Y309393D01*
X119953Y309415D01*
X119911Y309445D01*
X119842Y309466D01*
X119777Y309497D01*
X119725Y309502D01*
X119675Y309518D01*
X119604Y309516D01*
X119533Y309524D01*
X119482Y309513D01*
X119430Y309511D01*
X119362Y309487D01*
X119292Y309472D01*
X119247Y309445D01*
X119199Y309427D01*
X119143Y309382D01*
X119081Y309345D01*
X119047Y309306D01*
X119007Y309273D01*
X118968Y309213D01*
X118921Y309158D01*
X118902Y309110D01*
X118874Y309066D01*
X118856Y308997D01*
X118829Y308930D01*
X118821Y308859D01*
X118813Y308828D01*
X118815Y308805D01*
X118811Y308764D01*
X118811Y253422D01*
X116356Y250966D01*
X111616Y246227D01*
X111568Y246160D01*
X111565Y246156D01*
X111563Y246153D01*
X111548Y246132D01*
X111478Y246038D01*
X111476Y246032D01*
X111472Y246027D01*
X111438Y245916D01*
X111402Y245804D01*
X111402Y245798D01*
X111400Y245792D01*
X111403Y245675D01*
X111404Y245558D01*
X111406Y245551D01*
X111406Y245546D01*
X111413Y245528D01*
X111451Y245397D01*
X112269Y243422D01*
X112269Y239178D01*
X110645Y235257D01*
X107643Y232255D01*
X103722Y230631D01*
X99478Y230631D01*
X95557Y232255D01*
X92555Y235257D01*
X90931Y239178D01*
X90931Y243422D01*
X92555Y247343D01*
X95557Y250345D01*
X99478Y251969D01*
X103722Y251969D01*
X105273Y251326D01*
X105386Y251300D01*
X105500Y251271D01*
X105506Y251272D01*
X105512Y251270D01*
X105629Y251281D01*
X105745Y251290D01*
X105751Y251293D01*
X105757Y251293D01*
X105865Y251341D01*
X105971Y251387D01*
X105977Y251391D01*
X105982Y251393D01*
X105996Y251406D01*
X106102Y251491D01*
X110966Y256356D01*
X111019Y256430D01*
X111079Y256499D01*
X111091Y256529D01*
X111110Y256555D01*
X111137Y256642D01*
X111171Y256727D01*
X111175Y256768D01*
X111182Y256790D01*
X111181Y256823D01*
X111189Y256894D01*
X111189Y310164D01*
X111178Y310234D01*
X111176Y310306D01*
X111158Y310355D01*
X111150Y310406D01*
X111116Y310470D01*
X111091Y310537D01*
X111059Y310578D01*
X111034Y310624D01*
X110982Y310673D01*
X110938Y310729D01*
X110894Y310757D01*
X110856Y310793D01*
X110791Y310823D01*
X110731Y310862D01*
X110680Y310875D01*
X110633Y310897D01*
X110562Y310905D01*
X110492Y310922D01*
X110440Y310918D01*
X110389Y310924D01*
X110318Y310909D01*
X110247Y310903D01*
X110199Y310883D01*
X110148Y310872D01*
X110087Y310835D01*
X110021Y310807D01*
X109965Y310762D01*
X109937Y310745D01*
X109922Y310728D01*
X109890Y310702D01*
X107643Y308455D01*
X103722Y306831D01*
X99478Y306831D01*
X95557Y308455D01*
X95110Y308902D01*
X95052Y308944D01*
X95000Y308993D01*
X94953Y309015D01*
X94911Y309045D01*
X94842Y309066D01*
X94777Y309097D01*
X94725Y309102D01*
X94675Y309118D01*
X94604Y309116D01*
X94533Y309124D01*
X94482Y309113D01*
X94430Y309111D01*
X94362Y309087D01*
X94292Y309072D01*
X94247Y309045D01*
X94199Y309027D01*
X94143Y308982D01*
X94081Y308945D01*
X94047Y308906D01*
X94007Y308873D01*
X93968Y308813D01*
X93921Y308758D01*
X93902Y308710D01*
X93874Y308666D01*
X93856Y308597D01*
X93829Y308530D01*
X93821Y308459D01*
X93813Y308428D01*
X93815Y308405D01*
X93811Y308364D01*
X93811Y253422D01*
X91356Y250966D01*
X86333Y245944D01*
X86265Y245849D01*
X86195Y245755D01*
X86193Y245749D01*
X86189Y245744D01*
X86155Y245633D01*
X86119Y245521D01*
X86119Y245515D01*
X86117Y245509D01*
X86120Y245392D01*
X86121Y245275D01*
X86123Y245268D01*
X86123Y245263D01*
X86130Y245246D01*
X86168Y245114D01*
X86869Y243422D01*
X86869Y239178D01*
X85245Y235257D01*
X82243Y232255D01*
X78322Y230631D01*
X74078Y230631D01*
G37*
%LPD*%
%LPC*%
G36*
X368702Y17647D02*
X368702Y17647D01*
X363047Y23302D01*
X363047Y31298D01*
X368702Y36953D01*
X376698Y36953D01*
X378593Y35058D01*
X378609Y35047D01*
X378621Y35031D01*
X378700Y34981D01*
X378709Y34972D01*
X378716Y34970D01*
X378792Y34915D01*
X378811Y34909D01*
X378828Y34898D01*
X378929Y34873D01*
X379027Y34842D01*
X379047Y34843D01*
X379067Y34838D01*
X379170Y34846D01*
X379273Y34849D01*
X379292Y34856D01*
X379312Y34857D01*
X379407Y34898D01*
X379504Y34933D01*
X379520Y34946D01*
X379538Y34954D01*
X379617Y35016D01*
X379618Y35017D01*
X379619Y35018D01*
X379669Y35058D01*
X380966Y36356D01*
X381019Y36429D01*
X381079Y36499D01*
X381091Y36529D01*
X381110Y36555D01*
X381137Y36642D01*
X381171Y36727D01*
X381175Y36768D01*
X381182Y36790D01*
X381181Y36823D01*
X381189Y36894D01*
X381189Y45700D01*
X381178Y45771D01*
X381176Y45843D01*
X381158Y45892D01*
X381150Y45943D01*
X381116Y46007D01*
X381091Y46074D01*
X381059Y46115D01*
X381034Y46161D01*
X380982Y46210D01*
X380938Y46266D01*
X380894Y46294D01*
X380856Y46330D01*
X380791Y46360D01*
X380731Y46399D01*
X380680Y46412D01*
X380633Y46434D01*
X380562Y46441D01*
X380492Y46459D01*
X380440Y46455D01*
X380389Y46461D01*
X380318Y46445D01*
X380247Y46440D01*
X380199Y46420D01*
X380148Y46408D01*
X380087Y46372D01*
X380021Y46344D01*
X379965Y46299D01*
X379937Y46282D01*
X379922Y46264D01*
X379890Y46239D01*
X376698Y43047D01*
X368702Y43047D01*
X363047Y48702D01*
X363047Y56698D01*
X368702Y62353D01*
X376698Y62353D01*
X379890Y59161D01*
X379948Y59119D01*
X380000Y59070D01*
X380047Y59048D01*
X380089Y59018D01*
X380158Y58997D01*
X380223Y58966D01*
X380275Y58961D01*
X380325Y58945D01*
X380396Y58947D01*
X380467Y58939D01*
X380518Y58950D01*
X380570Y58952D01*
X380638Y58976D01*
X380708Y58992D01*
X380753Y59018D01*
X380801Y59036D01*
X380857Y59081D01*
X380919Y59118D01*
X380953Y59157D01*
X380993Y59190D01*
X381032Y59250D01*
X381079Y59305D01*
X381098Y59353D01*
X381126Y59397D01*
X381144Y59466D01*
X381171Y59533D01*
X381179Y59604D01*
X381187Y59635D01*
X381185Y59659D01*
X381189Y59700D01*
X381189Y153106D01*
X381175Y153196D01*
X381167Y153287D01*
X381155Y153317D01*
X381150Y153349D01*
X381107Y153430D01*
X381071Y153514D01*
X381045Y153546D01*
X381034Y153566D01*
X381011Y153589D01*
X380966Y153644D01*
X373882Y160728D01*
X373809Y160781D01*
X373739Y160841D01*
X373709Y160853D01*
X373683Y160872D01*
X373596Y160899D01*
X373511Y160933D01*
X373470Y160937D01*
X373448Y160944D01*
X373415Y160943D01*
X373344Y160951D01*
X361237Y160951D01*
X360710Y161478D01*
X360652Y161520D01*
X360600Y161569D01*
X360553Y161591D01*
X360511Y161622D01*
X360442Y161643D01*
X360377Y161673D01*
X360325Y161679D01*
X360275Y161694D01*
X360204Y161692D01*
X360133Y161700D01*
X360082Y161689D01*
X360030Y161688D01*
X359962Y161663D01*
X359892Y161648D01*
X359847Y161621D01*
X359799Y161603D01*
X359743Y161558D01*
X359681Y161522D01*
X359647Y161482D01*
X359607Y161450D01*
X359568Y161389D01*
X359521Y161335D01*
X359502Y161286D01*
X359474Y161243D01*
X359456Y161173D01*
X359429Y161107D01*
X359421Y161035D01*
X359413Y161004D01*
X359415Y160981D01*
X359411Y160940D01*
X359411Y134110D01*
X359414Y134090D01*
X359412Y134071D01*
X359434Y133969D01*
X359450Y133867D01*
X359460Y133850D01*
X359464Y133830D01*
X359517Y133741D01*
X359566Y133650D01*
X359580Y133636D01*
X359590Y133619D01*
X359669Y133552D01*
X359744Y133480D01*
X359762Y133472D01*
X359777Y133459D01*
X359873Y133420D01*
X359967Y133377D01*
X359987Y133375D01*
X360005Y133367D01*
X360172Y133349D01*
X364363Y133349D01*
X366149Y131563D01*
X366149Y116037D01*
X364591Y114479D01*
X364579Y114463D01*
X364563Y114450D01*
X364507Y114363D01*
X364447Y114279D01*
X364441Y114260D01*
X364430Y114243D01*
X364405Y114143D01*
X364375Y114044D01*
X364375Y114024D01*
X364370Y114005D01*
X364378Y113902D01*
X364381Y113798D01*
X364388Y113780D01*
X364390Y113760D01*
X364430Y113665D01*
X364466Y113567D01*
X364478Y113552D01*
X364486Y113533D01*
X364591Y113402D01*
X365133Y112860D01*
X365468Y112281D01*
X365641Y111634D01*
X365641Y106323D01*
X356362Y106323D01*
X356342Y106320D01*
X356323Y106322D01*
X356221Y106300D01*
X356119Y106283D01*
X356102Y106274D01*
X356082Y106270D01*
X355993Y106217D01*
X355902Y106168D01*
X355888Y106154D01*
X355871Y106144D01*
X355804Y106065D01*
X355733Y105990D01*
X355724Y105972D01*
X355711Y105957D01*
X355672Y105861D01*
X355629Y105767D01*
X355627Y105747D01*
X355619Y105729D01*
X355601Y105562D01*
X355601Y104799D01*
X355599Y104799D01*
X355599Y105562D01*
X355596Y105582D01*
X355598Y105601D01*
X355576Y105703D01*
X355559Y105805D01*
X355550Y105822D01*
X355546Y105842D01*
X355493Y105931D01*
X355444Y106022D01*
X355430Y106036D01*
X355420Y106053D01*
X355341Y106120D01*
X355266Y106191D01*
X355248Y106200D01*
X355233Y106213D01*
X355137Y106252D01*
X355043Y106295D01*
X355023Y106297D01*
X355005Y106305D01*
X354838Y106323D01*
X345559Y106323D01*
X345559Y111634D01*
X345732Y112281D01*
X346067Y112860D01*
X346609Y113402D01*
X346621Y113419D01*
X346637Y113431D01*
X346693Y113518D01*
X346753Y113602D01*
X346759Y113621D01*
X346770Y113638D01*
X346795Y113738D01*
X346825Y113837D01*
X346825Y113857D01*
X346830Y113877D01*
X346822Y113980D01*
X346819Y114083D01*
X346812Y114102D01*
X346810Y114122D01*
X346770Y114217D01*
X346734Y114314D01*
X346722Y114330D01*
X346714Y114348D01*
X346609Y114479D01*
X345051Y116037D01*
X345051Y131563D01*
X346837Y133349D01*
X351028Y133349D01*
X351048Y133352D01*
X351067Y133350D01*
X351169Y133372D01*
X351271Y133388D01*
X351288Y133398D01*
X351308Y133402D01*
X351397Y133455D01*
X351488Y133504D01*
X351502Y133518D01*
X351519Y133528D01*
X351586Y133607D01*
X351658Y133682D01*
X351666Y133700D01*
X351679Y133715D01*
X351718Y133811D01*
X351761Y133905D01*
X351763Y133925D01*
X351771Y133943D01*
X351789Y134110D01*
X351789Y161936D01*
X351775Y162026D01*
X351767Y162117D01*
X351755Y162147D01*
X351750Y162179D01*
X351707Y162260D01*
X351671Y162344D01*
X351645Y162376D01*
X351634Y162396D01*
X351611Y162419D01*
X351566Y162474D01*
X320167Y193874D01*
X320072Y193942D01*
X319978Y194012D01*
X319972Y194014D01*
X319967Y194018D01*
X319856Y194052D01*
X319744Y194088D01*
X319738Y194088D01*
X319732Y194090D01*
X319615Y194087D01*
X319498Y194086D01*
X319491Y194084D01*
X319486Y194084D01*
X319469Y194077D01*
X319337Y194039D01*
X318150Y193547D01*
X314310Y193547D01*
X310762Y195017D01*
X308047Y197732D01*
X306577Y201280D01*
X306577Y205120D01*
X307069Y206307D01*
X307096Y206421D01*
X307124Y206534D01*
X307124Y206541D01*
X307125Y206547D01*
X307114Y206663D01*
X307105Y206780D01*
X307103Y206785D01*
X307102Y206792D01*
X307054Y206899D01*
X307009Y207006D01*
X307004Y207012D01*
X307002Y207016D01*
X306989Y207030D01*
X306904Y207137D01*
X283216Y230824D01*
X283122Y230892D01*
X283028Y230962D01*
X283022Y230964D01*
X283017Y230968D01*
X282906Y231002D01*
X282794Y231039D01*
X282788Y231038D01*
X282782Y231040D01*
X282665Y231037D01*
X282548Y231036D01*
X282541Y231034D01*
X282536Y231034D01*
X282518Y231028D01*
X282387Y230989D01*
X281522Y230631D01*
X277278Y230631D01*
X273357Y232255D01*
X270355Y235257D01*
X268731Y239178D01*
X268731Y243422D01*
X270355Y247343D01*
X273357Y250345D01*
X277278Y251969D01*
X281522Y251969D01*
X285443Y250345D01*
X288445Y247343D01*
X290069Y243422D01*
X290069Y239178D01*
X288967Y236517D01*
X288940Y236404D01*
X288911Y236290D01*
X288912Y236284D01*
X288910Y236278D01*
X288921Y236161D01*
X288931Y236045D01*
X288933Y236039D01*
X288934Y236033D01*
X288981Y235925D01*
X289027Y235819D01*
X289031Y235813D01*
X289034Y235808D01*
X289046Y235794D01*
X289132Y235688D01*
X312293Y212526D01*
X312388Y212458D01*
X312482Y212388D01*
X312488Y212386D01*
X312493Y212382D01*
X312604Y212348D01*
X312716Y212312D01*
X312722Y212312D01*
X312728Y212310D01*
X312845Y212313D01*
X312962Y212314D01*
X312969Y212316D01*
X312974Y212316D01*
X312991Y212323D01*
X313123Y212361D01*
X314310Y212853D01*
X318150Y212853D01*
X321698Y211383D01*
X324413Y208668D01*
X325883Y205120D01*
X325883Y201280D01*
X325391Y200093D01*
X325364Y199979D01*
X325336Y199866D01*
X325336Y199859D01*
X325335Y199853D01*
X325346Y199736D01*
X325355Y199620D01*
X325357Y199615D01*
X325358Y199608D01*
X325406Y199501D01*
X325451Y199394D01*
X325456Y199388D01*
X325458Y199384D01*
X325471Y199370D01*
X325556Y199263D01*
X356956Y167864D01*
X358152Y166667D01*
X358210Y166626D01*
X358262Y166576D01*
X358309Y166554D01*
X358351Y166524D01*
X358420Y166503D01*
X358485Y166473D01*
X358537Y166467D01*
X358587Y166452D01*
X358658Y166453D01*
X358729Y166446D01*
X358780Y166457D01*
X358832Y166458D01*
X358900Y166483D01*
X358970Y166498D01*
X359015Y166524D01*
X359063Y166542D01*
X359119Y166587D01*
X359181Y166624D01*
X359215Y166664D01*
X359255Y166696D01*
X359294Y166756D01*
X359341Y166811D01*
X359360Y166859D01*
X359388Y166903D01*
X359406Y166972D01*
X359433Y167039D01*
X359441Y167110D01*
X359449Y167141D01*
X359447Y167165D01*
X359451Y167206D01*
X359451Y178263D01*
X360650Y179462D01*
X360662Y179478D01*
X360677Y179490D01*
X360733Y179578D01*
X360794Y179661D01*
X360800Y179680D01*
X360810Y179697D01*
X360836Y179798D01*
X360866Y179897D01*
X360866Y179916D01*
X360870Y179936D01*
X360862Y180039D01*
X360860Y180142D01*
X360853Y180161D01*
X360851Y180181D01*
X360811Y180276D01*
X360775Y180373D01*
X360763Y180389D01*
X360755Y180407D01*
X360650Y180538D01*
X359451Y181737D01*
X359451Y194844D01*
X359437Y194934D01*
X359429Y195025D01*
X359417Y195055D01*
X359412Y195087D01*
X359369Y195168D01*
X359333Y195252D01*
X359307Y195284D01*
X359296Y195304D01*
X359273Y195327D01*
X359228Y195382D01*
X351189Y203422D01*
X351189Y231071D01*
X351170Y231185D01*
X351153Y231302D01*
X351151Y231307D01*
X351150Y231313D01*
X351095Y231416D01*
X351042Y231521D01*
X351037Y231525D01*
X351034Y231531D01*
X350950Y231611D01*
X350866Y231693D01*
X350860Y231697D01*
X350856Y231700D01*
X350839Y231708D01*
X350719Y231774D01*
X349557Y232255D01*
X346555Y235257D01*
X344931Y239178D01*
X344931Y243422D01*
X346555Y247343D01*
X349557Y250345D01*
X353478Y251969D01*
X357722Y251969D01*
X361643Y250345D01*
X364645Y247343D01*
X366269Y243422D01*
X366269Y239178D01*
X364645Y235257D01*
X361643Y232255D01*
X359281Y231277D01*
X359181Y231215D01*
X359081Y231155D01*
X359077Y231151D01*
X359072Y231147D01*
X358997Y231057D01*
X358921Y230968D01*
X358919Y230963D01*
X358915Y230958D01*
X358873Y230849D01*
X358829Y230740D01*
X358828Y230733D01*
X358827Y230728D01*
X358826Y230710D01*
X358811Y230574D01*
X358811Y206894D01*
X358813Y206878D01*
X358812Y206865D01*
X358826Y206801D01*
X358833Y206713D01*
X358845Y206683D01*
X358850Y206651D01*
X358864Y206626D01*
X358864Y206625D01*
X358868Y206619D01*
X358893Y206570D01*
X358929Y206486D01*
X358955Y206454D01*
X358966Y206434D01*
X358989Y206411D01*
X359034Y206356D01*
X366118Y199272D01*
X366191Y199219D01*
X366261Y199159D01*
X366291Y199147D01*
X366317Y199128D01*
X366404Y199101D01*
X366489Y199067D01*
X366530Y199063D01*
X366552Y199056D01*
X366585Y199057D01*
X366656Y199049D01*
X378763Y199049D01*
X380549Y197263D01*
X380549Y181737D01*
X379350Y180538D01*
X379338Y180522D01*
X379323Y180510D01*
X379267Y180422D01*
X379206Y180339D01*
X379200Y180320D01*
X379190Y180303D01*
X379164Y180202D01*
X379134Y180103D01*
X379134Y180084D01*
X379130Y180064D01*
X379138Y179961D01*
X379140Y179858D01*
X379147Y179839D01*
X379149Y179819D01*
X379189Y179724D01*
X379225Y179627D01*
X379237Y179611D01*
X379245Y179593D01*
X379350Y179462D01*
X380549Y178263D01*
X380549Y165156D01*
X380563Y165066D01*
X380571Y164975D01*
X380583Y164945D01*
X380588Y164913D01*
X380631Y164832D01*
X380667Y164748D01*
X380693Y164716D01*
X380704Y164696D01*
X380727Y164673D01*
X380772Y164618D01*
X388811Y156578D01*
X388811Y33422D01*
X382576Y27186D01*
X382523Y27113D01*
X382463Y27043D01*
X382451Y27013D01*
X382432Y26987D01*
X382405Y26900D01*
X382371Y26815D01*
X382367Y26774D01*
X382360Y26752D01*
X382361Y26719D01*
X382353Y26648D01*
X382353Y23302D01*
X376698Y17647D01*
X368702Y17647D01*
G37*
%LPD*%
%LPC*%
G36*
X249576Y-29653D02*
X249576Y-29653D01*
X246028Y-28183D01*
X243313Y-25468D01*
X241843Y-21920D01*
X241843Y-18080D01*
X243361Y-14415D01*
X243388Y-14302D01*
X243417Y-14188D01*
X243416Y-14182D01*
X243417Y-14176D01*
X243406Y-14059D01*
X243397Y-13943D01*
X243395Y-13937D01*
X243394Y-13931D01*
X243347Y-13823D01*
X243301Y-13716D01*
X243296Y-13711D01*
X243294Y-13706D01*
X243282Y-13692D01*
X243196Y-13585D01*
X158644Y70966D01*
X156189Y73422D01*
X156189Y139467D01*
X156171Y139581D01*
X156153Y139698D01*
X156151Y139703D01*
X156150Y139710D01*
X156095Y139812D01*
X156042Y139917D01*
X156037Y139921D01*
X156034Y139927D01*
X155950Y140007D01*
X155866Y140089D01*
X155860Y140093D01*
X155856Y140096D01*
X155839Y140104D01*
X155719Y140170D01*
X154268Y140771D01*
X151571Y143468D01*
X150111Y146993D01*
X150111Y150807D01*
X151571Y154332D01*
X154268Y157029D01*
X157793Y158489D01*
X161607Y158489D01*
X162193Y158246D01*
X162306Y158220D01*
X162420Y158191D01*
X162426Y158192D01*
X162432Y158190D01*
X162548Y158201D01*
X162665Y158210D01*
X162671Y158213D01*
X162677Y158213D01*
X162784Y158261D01*
X162891Y158307D01*
X162897Y158311D01*
X162902Y158313D01*
X162915Y158326D01*
X163022Y158411D01*
X165966Y161356D01*
X166019Y161430D01*
X166079Y161499D01*
X166091Y161529D01*
X166110Y161555D01*
X166137Y161642D01*
X166171Y161727D01*
X166175Y161768D01*
X166182Y161790D01*
X166181Y161823D01*
X166189Y161894D01*
X166189Y171450D01*
X166186Y171470D01*
X166188Y171489D01*
X166166Y171591D01*
X166150Y171693D01*
X166140Y171710D01*
X166136Y171730D01*
X166083Y171819D01*
X166034Y171910D01*
X166020Y171924D01*
X166010Y171941D01*
X165931Y172008D01*
X165856Y172080D01*
X165838Y172088D01*
X165823Y172101D01*
X165727Y172140D01*
X165633Y172183D01*
X165613Y172185D01*
X165595Y172193D01*
X165428Y172211D01*
X162978Y172211D01*
X159057Y173835D01*
X156055Y176837D01*
X154431Y180758D01*
X154431Y200242D01*
X156055Y204163D01*
X159057Y207165D01*
X162978Y208789D01*
X167222Y208789D01*
X167585Y208639D01*
X167698Y208612D01*
X167812Y208583D01*
X167818Y208584D01*
X167824Y208582D01*
X167941Y208593D01*
X168057Y208602D01*
X168063Y208605D01*
X168069Y208605D01*
X168177Y208653D01*
X168283Y208699D01*
X168289Y208703D01*
X168294Y208705D01*
X168308Y208718D01*
X168414Y208804D01*
X171228Y211618D01*
X171281Y211692D01*
X171341Y211761D01*
X171353Y211791D01*
X171372Y211817D01*
X171399Y211904D01*
X171433Y211989D01*
X171437Y212030D01*
X171444Y212052D01*
X171443Y212085D01*
X171451Y212156D01*
X171451Y224663D01*
X173237Y226449D01*
X182644Y226449D01*
X182734Y226463D01*
X182825Y226471D01*
X182855Y226483D01*
X182887Y226488D01*
X182968Y226531D01*
X183052Y226567D01*
X183084Y226593D01*
X183104Y226604D01*
X183127Y226627D01*
X183182Y226672D01*
X193096Y236586D01*
X193165Y236681D01*
X193234Y236774D01*
X193236Y236780D01*
X193240Y236785D01*
X193274Y236897D01*
X193311Y237008D01*
X193310Y237014D01*
X193312Y237020D01*
X193309Y237137D01*
X193308Y237254D01*
X193306Y237261D01*
X193306Y237266D01*
X193300Y237284D01*
X193261Y237415D01*
X192531Y239178D01*
X192531Y243422D01*
X194155Y247343D01*
X197157Y250345D01*
X201078Y251969D01*
X205322Y251969D01*
X209243Y250345D01*
X212245Y247343D01*
X213869Y243422D01*
X213869Y239178D01*
X212245Y235257D01*
X209243Y232255D01*
X205322Y230631D01*
X201078Y230631D01*
X199315Y231361D01*
X199201Y231388D01*
X199088Y231417D01*
X199082Y231416D01*
X199076Y231418D01*
X198959Y231407D01*
X198843Y231398D01*
X198837Y231395D01*
X198831Y231394D01*
X198723Y231347D01*
X198617Y231301D01*
X198611Y231297D01*
X198606Y231294D01*
X198592Y231282D01*
X198486Y231196D01*
X194529Y227240D01*
X194488Y227182D01*
X194438Y227130D01*
X194416Y227083D01*
X194386Y227041D01*
X194365Y226972D01*
X194335Y226907D01*
X194329Y226855D01*
X194314Y226805D01*
X194315Y226734D01*
X194308Y226663D01*
X194319Y226612D01*
X194320Y226560D01*
X194345Y226492D01*
X194360Y226422D01*
X194386Y226378D01*
X194404Y226329D01*
X194449Y226273D01*
X194486Y226211D01*
X194526Y226177D01*
X194558Y226137D01*
X194618Y226098D01*
X194673Y226051D01*
X194721Y226032D01*
X194765Y226004D01*
X194834Y225986D01*
X194901Y225959D01*
X194972Y225951D01*
X195004Y225943D01*
X195027Y225945D01*
X195068Y225941D01*
X198477Y225941D01*
X198477Y216662D01*
X198480Y216642D01*
X198478Y216623D01*
X198500Y216521D01*
X198517Y216419D01*
X198526Y216402D01*
X198530Y216382D01*
X198583Y216293D01*
X198632Y216202D01*
X198646Y216188D01*
X198656Y216171D01*
X198735Y216104D01*
X198810Y216033D01*
X198828Y216024D01*
X198843Y216011D01*
X198939Y215972D01*
X199033Y215929D01*
X199053Y215927D01*
X199071Y215919D01*
X199238Y215901D01*
X200001Y215901D01*
X200001Y215899D01*
X199238Y215899D01*
X199218Y215896D01*
X199199Y215898D01*
X199097Y215876D01*
X198995Y215859D01*
X198978Y215850D01*
X198958Y215846D01*
X198869Y215793D01*
X198778Y215744D01*
X198764Y215730D01*
X198747Y215720D01*
X198680Y215641D01*
X198609Y215566D01*
X198600Y215548D01*
X198587Y215533D01*
X198548Y215437D01*
X198505Y215343D01*
X198503Y215323D01*
X198495Y215305D01*
X198477Y215138D01*
X198477Y205546D01*
X198492Y205456D01*
X198499Y205365D01*
X198511Y205336D01*
X198517Y205304D01*
X198559Y205223D01*
X198595Y205139D01*
X198621Y205107D01*
X198632Y205086D01*
X198655Y205064D01*
X198700Y205008D01*
X199545Y204163D01*
X201169Y200242D01*
X201169Y180758D01*
X199545Y176837D01*
X196543Y173835D01*
X192622Y172211D01*
X188378Y172211D01*
X184457Y173835D01*
X181455Y176837D01*
X179831Y180758D01*
X179831Y200242D01*
X181512Y204299D01*
X181522Y204343D01*
X181541Y204385D01*
X181550Y204462D01*
X181568Y204538D01*
X181563Y204584D01*
X181568Y204629D01*
X181552Y204706D01*
X181545Y204783D01*
X181526Y204825D01*
X181516Y204870D01*
X181476Y204937D01*
X181445Y205008D01*
X181414Y205042D01*
X181390Y205081D01*
X181331Y205132D01*
X181278Y205189D01*
X181238Y205211D01*
X181203Y205241D01*
X181131Y205270D01*
X181063Y205307D01*
X181018Y205316D01*
X180975Y205333D01*
X180839Y205348D01*
X180821Y205351D01*
X180816Y205350D01*
X180808Y205351D01*
X176056Y205351D01*
X175966Y205337D01*
X175875Y205329D01*
X175845Y205317D01*
X175813Y205312D01*
X175733Y205269D01*
X175648Y205233D01*
X175616Y205207D01*
X175596Y205196D01*
X175574Y205173D01*
X175518Y205128D01*
X174624Y204235D01*
X174556Y204140D01*
X174486Y204046D01*
X174484Y204040D01*
X174480Y204035D01*
X174446Y203924D01*
X174410Y203812D01*
X174410Y203806D01*
X174408Y203800D01*
X174411Y203683D01*
X174412Y203566D01*
X174414Y203559D01*
X174414Y203554D01*
X174421Y203536D01*
X174459Y203405D01*
X175769Y200242D01*
X175769Y180758D01*
X174145Y176837D01*
X174034Y176726D01*
X173981Y176652D01*
X173921Y176582D01*
X173909Y176552D01*
X173890Y176526D01*
X173863Y176439D01*
X173829Y176354D01*
X173825Y176313D01*
X173818Y176291D01*
X173819Y176259D01*
X173811Y176188D01*
X173811Y158422D01*
X171356Y155966D01*
X168743Y153354D01*
X168695Y153286D01*
X168692Y153284D01*
X168691Y153281D01*
X168674Y153258D01*
X168605Y153165D01*
X168603Y153159D01*
X168599Y153154D01*
X168565Y153042D01*
X168529Y152931D01*
X168529Y152925D01*
X168527Y152919D01*
X168530Y152802D01*
X168531Y152685D01*
X168533Y152678D01*
X168533Y152673D01*
X168540Y152655D01*
X168578Y152524D01*
X169289Y150807D01*
X169289Y146993D01*
X167829Y143468D01*
X165132Y140771D01*
X164281Y140419D01*
X164181Y140357D01*
X164081Y140297D01*
X164077Y140292D01*
X164072Y140289D01*
X163997Y140199D01*
X163921Y140110D01*
X163919Y140104D01*
X163915Y140099D01*
X163873Y139991D01*
X163829Y139882D01*
X163828Y139874D01*
X163827Y139870D01*
X163826Y139852D01*
X163811Y139715D01*
X163811Y76894D01*
X163825Y76804D01*
X163833Y76713D01*
X163845Y76683D01*
X163850Y76651D01*
X163893Y76570D01*
X163929Y76486D01*
X163955Y76454D01*
X163966Y76434D01*
X163989Y76411D01*
X164034Y76356D01*
X250514Y-10124D01*
X250587Y-10177D01*
X250657Y-10237D01*
X250687Y-10249D01*
X250713Y-10268D01*
X250800Y-10295D01*
X250885Y-10329D01*
X250926Y-10333D01*
X250948Y-10340D01*
X250981Y-10339D01*
X251052Y-10347D01*
X266624Y-10347D01*
X270172Y-11817D01*
X272887Y-14532D01*
X274357Y-18080D01*
X274357Y-21920D01*
X272887Y-25468D01*
X270172Y-28183D01*
X266624Y-29653D01*
X249576Y-29653D01*
G37*
%LPD*%
%LPC*%
G36*
X16424Y-47161D02*
X16424Y-47161D01*
X9516Y-45310D01*
X3323Y-41734D01*
X-1734Y-36677D01*
X-5310Y-30484D01*
X-7161Y-23576D01*
X-7161Y-16424D01*
X-5310Y-9516D01*
X-1734Y-3323D01*
X3323Y1734D01*
X9516Y5310D01*
X16424Y7161D01*
X23576Y7161D01*
X30484Y5310D01*
X36677Y1734D01*
X41734Y-3323D01*
X45310Y-9516D01*
X47161Y-16424D01*
X47161Y-23576D01*
X45310Y-30484D01*
X41734Y-36677D01*
X36677Y-41734D01*
X30484Y-45310D01*
X23576Y-47161D01*
X16424Y-47161D01*
G37*
%LPD*%
%LPC*%
G36*
X330199Y104799D02*
X330199Y104799D01*
X330199Y105562D01*
X330196Y105582D01*
X330198Y105601D01*
X330176Y105703D01*
X330159Y105805D01*
X330150Y105822D01*
X330146Y105842D01*
X330093Y105931D01*
X330044Y106022D01*
X330030Y106036D01*
X330020Y106053D01*
X329941Y106120D01*
X329866Y106191D01*
X329848Y106200D01*
X329833Y106213D01*
X329737Y106252D01*
X329643Y106295D01*
X329623Y106297D01*
X329605Y106305D01*
X329438Y106323D01*
X320159Y106323D01*
X320159Y111634D01*
X320332Y112281D01*
X320667Y112860D01*
X321209Y113402D01*
X321221Y113419D01*
X321237Y113431D01*
X321293Y113518D01*
X321353Y113602D01*
X321359Y113621D01*
X321370Y113638D01*
X321395Y113738D01*
X321425Y113837D01*
X321425Y113857D01*
X321430Y113877D01*
X321422Y113980D01*
X321419Y114083D01*
X321412Y114102D01*
X321410Y114122D01*
X321370Y114217D01*
X321334Y114314D01*
X321322Y114330D01*
X321314Y114348D01*
X321209Y114479D01*
X319651Y116037D01*
X319651Y131563D01*
X321437Y133349D01*
X325628Y133349D01*
X325648Y133352D01*
X325667Y133350D01*
X325769Y133372D01*
X325871Y133388D01*
X325888Y133398D01*
X325908Y133402D01*
X325997Y133455D01*
X326088Y133504D01*
X326102Y133518D01*
X326119Y133528D01*
X326186Y133607D01*
X326258Y133682D01*
X326266Y133700D01*
X326279Y133715D01*
X326318Y133811D01*
X326361Y133905D01*
X326363Y133925D01*
X326371Y133943D01*
X326389Y134110D01*
X326389Y150506D01*
X326375Y150596D01*
X326367Y150687D01*
X326355Y150717D01*
X326350Y150749D01*
X326307Y150830D01*
X326271Y150914D01*
X326245Y150946D01*
X326234Y150966D01*
X326211Y150989D01*
X326166Y151044D01*
X278044Y199166D01*
X277971Y199219D01*
X277901Y199279D01*
X277871Y199291D01*
X277845Y199310D01*
X277758Y199337D01*
X277673Y199371D01*
X277632Y199375D01*
X277610Y199382D01*
X277577Y199381D01*
X277506Y199389D01*
X277348Y199389D01*
X277233Y199370D01*
X277117Y199353D01*
X277112Y199351D01*
X277105Y199350D01*
X277003Y199295D01*
X276898Y199242D01*
X276894Y199237D01*
X276888Y199234D01*
X276808Y199150D01*
X276726Y199066D01*
X276722Y199060D01*
X276719Y199056D01*
X276711Y199039D01*
X276645Y198919D01*
X276153Y197732D01*
X273438Y195017D01*
X269890Y193547D01*
X266050Y193547D01*
X262502Y195017D01*
X259787Y197732D01*
X258317Y201280D01*
X258317Y205120D01*
X259787Y208668D01*
X262502Y211383D01*
X263689Y211875D01*
X263789Y211936D01*
X263889Y211996D01*
X263893Y212001D01*
X263898Y212005D01*
X263973Y212094D01*
X264049Y212183D01*
X264051Y212189D01*
X264055Y212194D01*
X264097Y212302D01*
X264141Y212412D01*
X264142Y212419D01*
X264143Y212424D01*
X264144Y212442D01*
X264159Y212578D01*
X264159Y225436D01*
X264145Y225526D01*
X264137Y225617D01*
X264125Y225647D01*
X264120Y225679D01*
X264077Y225760D01*
X264041Y225844D01*
X264015Y225876D01*
X264004Y225896D01*
X263981Y225919D01*
X263936Y225974D01*
X258714Y231196D01*
X258619Y231265D01*
X258526Y231334D01*
X258520Y231336D01*
X258515Y231340D01*
X258403Y231374D01*
X258292Y231411D01*
X258286Y231410D01*
X258280Y231412D01*
X258163Y231409D01*
X258046Y231408D01*
X258039Y231406D01*
X258034Y231406D01*
X258016Y231400D01*
X257885Y231361D01*
X256122Y230631D01*
X251878Y230631D01*
X247957Y232255D01*
X244955Y235257D01*
X243331Y239178D01*
X243331Y243422D01*
X244955Y247343D01*
X247957Y250345D01*
X251878Y251969D01*
X256122Y251969D01*
X260043Y250345D01*
X263045Y247343D01*
X264669Y243422D01*
X264669Y239178D01*
X263939Y237415D01*
X263912Y237301D01*
X263883Y237188D01*
X263884Y237182D01*
X263882Y237176D01*
X263893Y237059D01*
X263902Y236943D01*
X263905Y236937D01*
X263906Y236931D01*
X263953Y236823D01*
X263999Y236717D01*
X264003Y236711D01*
X264006Y236706D01*
X264018Y236692D01*
X264104Y236586D01*
X271781Y228908D01*
X271781Y212578D01*
X271800Y212463D01*
X271817Y212347D01*
X271819Y212342D01*
X271820Y212335D01*
X271875Y212233D01*
X271928Y212128D01*
X271933Y212124D01*
X271936Y212118D01*
X272020Y212038D01*
X272104Y211956D01*
X272110Y211952D01*
X272114Y211949D01*
X272131Y211941D01*
X272251Y211875D01*
X273438Y211383D01*
X276153Y208668D01*
X276645Y207481D01*
X276706Y207381D01*
X276766Y207281D01*
X276771Y207277D01*
X276775Y207272D01*
X276864Y207197D01*
X276953Y207121D01*
X276959Y207119D01*
X276964Y207115D01*
X277072Y207073D01*
X277182Y207029D01*
X277189Y207028D01*
X277194Y207027D01*
X277212Y207026D01*
X277348Y207011D01*
X280978Y207011D01*
X334011Y153978D01*
X334011Y134110D01*
X334014Y134090D01*
X334012Y134071D01*
X334034Y133969D01*
X334050Y133867D01*
X334060Y133850D01*
X334064Y133830D01*
X334117Y133741D01*
X334166Y133650D01*
X334180Y133636D01*
X334190Y133619D01*
X334269Y133552D01*
X334344Y133480D01*
X334362Y133472D01*
X334377Y133459D01*
X334473Y133420D01*
X334567Y133377D01*
X334587Y133375D01*
X334605Y133367D01*
X334772Y133349D01*
X338963Y133349D01*
X340749Y131563D01*
X340749Y116037D01*
X339191Y114479D01*
X339179Y114463D01*
X339163Y114450D01*
X339107Y114363D01*
X339047Y114279D01*
X339041Y114260D01*
X339030Y114243D01*
X339005Y114143D01*
X338975Y114044D01*
X338975Y114024D01*
X338970Y114005D01*
X338978Y113902D01*
X338981Y113798D01*
X338988Y113780D01*
X338990Y113760D01*
X339030Y113665D01*
X339066Y113567D01*
X339078Y113552D01*
X339086Y113533D01*
X339191Y113402D01*
X339733Y112860D01*
X340068Y112281D01*
X340241Y111634D01*
X340241Y106323D01*
X330962Y106323D01*
X330942Y106320D01*
X330923Y106322D01*
X330821Y106300D01*
X330719Y106283D01*
X330702Y106274D01*
X330682Y106270D01*
X330593Y106217D01*
X330502Y106168D01*
X330488Y106154D01*
X330471Y106144D01*
X330404Y106065D01*
X330333Y105990D01*
X330324Y105972D01*
X330311Y105957D01*
X330272Y105861D01*
X330229Y105767D01*
X330227Y105747D01*
X330219Y105729D01*
X330201Y105562D01*
X330201Y104799D01*
X330199Y104799D01*
G37*
%LPD*%
%LPC*%
G36*
X173376Y-29653D02*
X173376Y-29653D01*
X169828Y-28183D01*
X167113Y-25468D01*
X165643Y-21920D01*
X165643Y-18080D01*
X167113Y-14532D01*
X169828Y-11817D01*
X173376Y-10347D01*
X175428Y-10347D01*
X175448Y-10344D01*
X175467Y-10346D01*
X175569Y-10324D01*
X175671Y-10308D01*
X175688Y-10298D01*
X175708Y-10294D01*
X175797Y-10241D01*
X175888Y-10192D01*
X175902Y-10178D01*
X175919Y-10168D01*
X175986Y-10089D01*
X176058Y-10014D01*
X176066Y-9996D01*
X176079Y-9981D01*
X176118Y-9885D01*
X176161Y-9791D01*
X176163Y-9771D01*
X176171Y-9753D01*
X176189Y-9586D01*
X176189Y25428D01*
X176186Y25448D01*
X176188Y25467D01*
X176166Y25569D01*
X176150Y25671D01*
X176140Y25688D01*
X176136Y25708D01*
X176083Y25797D01*
X176034Y25888D01*
X176020Y25902D01*
X176010Y25919D01*
X175931Y25986D01*
X175856Y26058D01*
X175838Y26066D01*
X175823Y26079D01*
X175727Y26118D01*
X175633Y26161D01*
X175613Y26163D01*
X175595Y26171D01*
X175428Y26189D01*
X169465Y26189D01*
X169350Y26170D01*
X169234Y26153D01*
X169228Y26151D01*
X169222Y26150D01*
X169119Y26095D01*
X169014Y26042D01*
X169010Y26037D01*
X169004Y26034D01*
X168925Y25950D01*
X168842Y25866D01*
X168839Y25860D01*
X168835Y25856D01*
X168827Y25839D01*
X168761Y25719D01*
X167829Y23468D01*
X165132Y20771D01*
X161607Y19311D01*
X157793Y19311D01*
X154268Y20771D01*
X151571Y23468D01*
X150111Y26993D01*
X150111Y30807D01*
X151571Y34332D01*
X154268Y37029D01*
X157793Y38489D01*
X161607Y38489D01*
X165132Y37029D01*
X167829Y34332D01*
X167850Y34281D01*
X167912Y34181D01*
X167972Y34081D01*
X167976Y34077D01*
X167980Y34072D01*
X168070Y33997D01*
X168158Y33921D01*
X168164Y33919D01*
X168169Y33915D01*
X168278Y33873D01*
X168387Y33829D01*
X168394Y33828D01*
X168399Y33827D01*
X168417Y33826D01*
X168553Y33811D01*
X181578Y33811D01*
X183811Y31578D01*
X183811Y-9586D01*
X183814Y-9606D01*
X183812Y-9625D01*
X183834Y-9727D01*
X183850Y-9829D01*
X183860Y-9846D01*
X183864Y-9866D01*
X183917Y-9955D01*
X183966Y-10046D01*
X183980Y-10060D01*
X183990Y-10077D01*
X184069Y-10144D01*
X184144Y-10216D01*
X184162Y-10224D01*
X184177Y-10237D01*
X184273Y-10276D01*
X184367Y-10319D01*
X184387Y-10321D01*
X184405Y-10329D01*
X184572Y-10347D01*
X190424Y-10347D01*
X193972Y-11817D01*
X196687Y-14532D01*
X198157Y-18080D01*
X198157Y-21920D01*
X196687Y-25468D01*
X193972Y-28183D01*
X190424Y-29653D01*
X173376Y-29653D01*
G37*
%LPD*%
%LPC*%
G36*
X52159Y64598D02*
X52159Y64598D01*
X47748Y66425D01*
X44372Y69801D01*
X42544Y74213D01*
X42544Y78987D01*
X44372Y83399D01*
X47748Y86775D01*
X52159Y88602D01*
X74841Y88602D01*
X79252Y86775D01*
X82628Y83399D01*
X84456Y78987D01*
X84456Y74213D01*
X82628Y69801D01*
X79252Y66425D01*
X74841Y64598D01*
X52159Y64598D01*
G37*
%LPD*%
%LPC*%
G36*
X52159Y114598D02*
X52159Y114598D01*
X47748Y116425D01*
X44372Y119801D01*
X42544Y124213D01*
X42544Y128987D01*
X44372Y133399D01*
X47748Y136775D01*
X52159Y138602D01*
X74841Y138602D01*
X79252Y136775D01*
X82628Y133399D01*
X84456Y128987D01*
X84456Y124213D01*
X82628Y119801D01*
X79252Y116425D01*
X74841Y114598D01*
X52159Y114598D01*
G37*
%LPD*%
%LPC*%
G36*
X52159Y164598D02*
X52159Y164598D01*
X47748Y166425D01*
X44372Y169801D01*
X42544Y174213D01*
X42544Y178987D01*
X44372Y183399D01*
X47748Y186775D01*
X52159Y188602D01*
X74841Y188602D01*
X79252Y186775D01*
X82628Y183399D01*
X84456Y178987D01*
X84456Y174213D01*
X82628Y169801D01*
X79252Y166425D01*
X74841Y164598D01*
X52159Y164598D01*
G37*
%LPD*%
%LPC*%
G36*
X213778Y172211D02*
X213778Y172211D01*
X209857Y173835D01*
X206855Y176837D01*
X205231Y180758D01*
X205231Y200242D01*
X206855Y204163D01*
X207252Y204560D01*
X207294Y204618D01*
X207343Y204670D01*
X207365Y204717D01*
X207395Y204759D01*
X207416Y204828D01*
X207447Y204893D01*
X207452Y204945D01*
X207468Y204995D01*
X207466Y205066D01*
X207474Y205137D01*
X207463Y205188D01*
X207461Y205240D01*
X207437Y205308D01*
X207422Y205378D01*
X207395Y205423D01*
X207377Y205471D01*
X207332Y205527D01*
X207295Y205589D01*
X207256Y205623D01*
X207223Y205663D01*
X207163Y205702D01*
X207108Y205749D01*
X207060Y205768D01*
X207016Y205796D01*
X206947Y205814D01*
X206880Y205841D01*
X206809Y205849D01*
X206778Y205857D01*
X206755Y205855D01*
X206714Y205859D01*
X201523Y205859D01*
X201523Y214377D01*
X209041Y214377D01*
X209041Y207966D01*
X209048Y207921D01*
X209046Y207875D01*
X209068Y207800D01*
X209080Y207723D01*
X209102Y207683D01*
X209115Y207638D01*
X209159Y207574D01*
X209196Y207506D01*
X209229Y207474D01*
X209255Y207436D01*
X209318Y207390D01*
X209374Y207336D01*
X209416Y207317D01*
X209452Y207290D01*
X209526Y207265D01*
X209597Y207233D01*
X209643Y207228D01*
X209686Y207213D01*
X209764Y207214D01*
X209841Y207206D01*
X209886Y207215D01*
X209932Y207216D01*
X210064Y207254D01*
X210082Y207258D01*
X210086Y207260D01*
X210093Y207263D01*
X213778Y208789D01*
X218022Y208789D01*
X221943Y207165D01*
X224945Y204163D01*
X226569Y200242D01*
X226569Y180758D01*
X224945Y176837D01*
X221943Y173835D01*
X218022Y172211D01*
X213778Y172211D01*
G37*
%LPD*%
%LPC*%
G36*
X137095Y75801D02*
X137095Y75801D01*
X132280Y77795D01*
X128595Y81480D01*
X126601Y86295D01*
X126601Y91505D01*
X128595Y96320D01*
X132280Y100005D01*
X137095Y101999D01*
X142305Y101999D01*
X147120Y100005D01*
X150805Y96320D01*
X152799Y91505D01*
X152799Y86295D01*
X150805Y81480D01*
X147120Y77795D01*
X142305Y75801D01*
X137095Y75801D01*
G37*
%LPD*%
%LPC*%
G36*
X41917Y230631D02*
X41917Y230631D01*
X40131Y232417D01*
X40131Y250183D01*
X41917Y251969D01*
X59683Y251969D01*
X61469Y250183D01*
X61469Y232417D01*
X59683Y230631D01*
X41917Y230631D01*
G37*
%LPD*%
%LPC*%
G36*
X328078Y306831D02*
X328078Y306831D01*
X324157Y308455D01*
X321155Y311457D01*
X319531Y315378D01*
X319531Y319622D01*
X321155Y323543D01*
X324157Y326545D01*
X328078Y328169D01*
X332322Y328169D01*
X336243Y326545D01*
X339245Y323543D01*
X340869Y319622D01*
X340869Y315378D01*
X339245Y311457D01*
X336243Y308455D01*
X332322Y306831D01*
X328078Y306831D01*
G37*
%LPD*%
%LPC*%
G36*
X302678Y306831D02*
X302678Y306831D01*
X298757Y308455D01*
X295755Y311457D01*
X294131Y315378D01*
X294131Y319622D01*
X295755Y323543D01*
X298757Y326545D01*
X302678Y328169D01*
X306922Y328169D01*
X310843Y326545D01*
X313845Y323543D01*
X315469Y319622D01*
X315469Y315378D01*
X313845Y311457D01*
X310843Y308455D01*
X306922Y306831D01*
X302678Y306831D01*
G37*
%LPD*%
%LPC*%
G36*
X277278Y306831D02*
X277278Y306831D01*
X273357Y308455D01*
X270355Y311457D01*
X268731Y315378D01*
X268731Y319622D01*
X270355Y323543D01*
X273357Y326545D01*
X277278Y328169D01*
X281522Y328169D01*
X285443Y326545D01*
X288445Y323543D01*
X290069Y319622D01*
X290069Y315378D01*
X288445Y311457D01*
X285443Y308455D01*
X281522Y306831D01*
X277278Y306831D01*
G37*
%LPD*%
%LPC*%
G36*
X251878Y306831D02*
X251878Y306831D01*
X247957Y308455D01*
X244955Y311457D01*
X243331Y315378D01*
X243331Y319622D01*
X244955Y323543D01*
X247957Y326545D01*
X251878Y328169D01*
X256122Y328169D01*
X260043Y326545D01*
X263045Y323543D01*
X264669Y319622D01*
X264669Y315378D01*
X263045Y311457D01*
X260043Y308455D01*
X256122Y306831D01*
X251878Y306831D01*
G37*
%LPD*%
%LPC*%
G36*
X226478Y306831D02*
X226478Y306831D01*
X222557Y308455D01*
X219555Y311457D01*
X217931Y315378D01*
X217931Y319622D01*
X219555Y323543D01*
X222557Y326545D01*
X226478Y328169D01*
X230722Y328169D01*
X234643Y326545D01*
X237645Y323543D01*
X239269Y319622D01*
X239269Y315378D01*
X237645Y311457D01*
X234643Y308455D01*
X230722Y306831D01*
X226478Y306831D01*
G37*
%LPD*%
%LPC*%
G36*
X48678Y306831D02*
X48678Y306831D01*
X44757Y308455D01*
X41755Y311457D01*
X40131Y315378D01*
X40131Y319622D01*
X41755Y323543D01*
X44757Y326545D01*
X48678Y328169D01*
X52922Y328169D01*
X56843Y326545D01*
X59845Y323543D01*
X61469Y319622D01*
X61469Y315378D01*
X59845Y311457D01*
X56843Y308455D01*
X52922Y306831D01*
X48678Y306831D01*
G37*
%LPD*%
%LPC*%
G36*
X353478Y306831D02*
X353478Y306831D01*
X349557Y308455D01*
X346555Y311457D01*
X344931Y315378D01*
X344931Y319622D01*
X346555Y323543D01*
X349557Y326545D01*
X353478Y328169D01*
X357722Y328169D01*
X361643Y326545D01*
X364645Y323543D01*
X366269Y319622D01*
X366269Y315378D01*
X364645Y311457D01*
X361643Y308455D01*
X357722Y306831D01*
X353478Y306831D01*
G37*
%LPD*%
%LPC*%
G36*
X378878Y306831D02*
X378878Y306831D01*
X374957Y308455D01*
X371955Y311457D01*
X370331Y315378D01*
X370331Y319622D01*
X371955Y323543D01*
X374957Y326545D01*
X378878Y328169D01*
X383122Y328169D01*
X387043Y326545D01*
X390045Y323543D01*
X391669Y319622D01*
X391669Y315378D01*
X390045Y311457D01*
X387043Y308455D01*
X383122Y306831D01*
X378878Y306831D01*
G37*
%LPD*%
%LPC*%
G36*
X302678Y230631D02*
X302678Y230631D01*
X298757Y232255D01*
X295755Y235257D01*
X294131Y239178D01*
X294131Y243422D01*
X295755Y247343D01*
X298757Y250345D01*
X302678Y251969D01*
X306922Y251969D01*
X310843Y250345D01*
X313845Y247343D01*
X315469Y243422D01*
X315469Y239178D01*
X313845Y235257D01*
X310843Y232255D01*
X306922Y230631D01*
X302678Y230631D01*
G37*
%LPD*%
%LPC*%
G36*
X378878Y230631D02*
X378878Y230631D01*
X374957Y232255D01*
X371955Y235257D01*
X370331Y239178D01*
X370331Y243422D01*
X371955Y247343D01*
X374957Y250345D01*
X378878Y251969D01*
X383122Y251969D01*
X387043Y250345D01*
X390045Y247343D01*
X391669Y243422D01*
X391669Y239178D01*
X390045Y235257D01*
X387043Y232255D01*
X383122Y230631D01*
X378878Y230631D01*
G37*
%LPD*%
%LPC*%
G36*
X175678Y306831D02*
X175678Y306831D01*
X171757Y308455D01*
X168755Y311457D01*
X167131Y315378D01*
X167131Y319622D01*
X168755Y323543D01*
X171757Y326545D01*
X175678Y328169D01*
X179922Y328169D01*
X183843Y326545D01*
X186845Y323543D01*
X188469Y319622D01*
X188469Y315378D01*
X186845Y311457D01*
X183843Y308455D01*
X179922Y306831D01*
X175678Y306831D01*
G37*
%LPD*%
%LPC*%
G36*
X150278Y230631D02*
X150278Y230631D01*
X146357Y232255D01*
X143355Y235257D01*
X141731Y239178D01*
X141731Y243422D01*
X143355Y247343D01*
X146357Y250345D01*
X150278Y251969D01*
X154522Y251969D01*
X158443Y250345D01*
X161445Y247343D01*
X163069Y243422D01*
X163069Y239178D01*
X161445Y235257D01*
X158443Y232255D01*
X154522Y230631D01*
X150278Y230631D01*
G37*
%LPD*%
%LPC*%
G36*
X328078Y230631D02*
X328078Y230631D01*
X324157Y232255D01*
X321155Y235257D01*
X319531Y239178D01*
X319531Y243422D01*
X321155Y247343D01*
X324157Y250345D01*
X328078Y251969D01*
X332322Y251969D01*
X336243Y250345D01*
X339245Y247343D01*
X340869Y243422D01*
X340869Y239178D01*
X339245Y235257D01*
X336243Y232255D01*
X332322Y230631D01*
X328078Y230631D01*
G37*
%LPD*%
%LPC*%
G36*
X175678Y230631D02*
X175678Y230631D01*
X171757Y232255D01*
X168755Y235257D01*
X167131Y239178D01*
X167131Y243422D01*
X168755Y247343D01*
X171757Y250345D01*
X175678Y251969D01*
X179922Y251969D01*
X183843Y250345D01*
X186845Y247343D01*
X188469Y243422D01*
X188469Y239178D01*
X186845Y235257D01*
X183843Y232255D01*
X179922Y230631D01*
X175678Y230631D01*
G37*
%LPD*%
%LPC*%
G36*
X279793Y139311D02*
X279793Y139311D01*
X276268Y140771D01*
X273571Y143468D01*
X272111Y146993D01*
X272111Y150807D01*
X273571Y154332D01*
X276268Y157029D01*
X279793Y158489D01*
X283607Y158489D01*
X287132Y157029D01*
X289829Y154332D01*
X291289Y150807D01*
X291289Y146993D01*
X289829Y143468D01*
X287132Y140771D01*
X283607Y139311D01*
X279793Y139311D01*
G37*
%LPD*%
%LPC*%
G36*
X279793Y19311D02*
X279793Y19311D01*
X276268Y20771D01*
X273571Y23468D01*
X272111Y26993D01*
X272111Y30807D01*
X273571Y34332D01*
X276268Y37029D01*
X279793Y38489D01*
X283607Y38489D01*
X287132Y37029D01*
X289829Y34332D01*
X291289Y30807D01*
X291289Y26993D01*
X289829Y23468D01*
X287132Y20771D01*
X283607Y19311D01*
X279793Y19311D01*
G37*
%LPD*%
%LPC*%
G36*
X65023Y28123D02*
X65023Y28123D01*
X65023Y38094D01*
X73358Y38094D01*
X75145Y37811D01*
X76866Y37252D01*
X78478Y36431D01*
X79942Y35367D01*
X81221Y34088D01*
X82284Y32624D01*
X83106Y31012D01*
X83665Y29292D01*
X83850Y28123D01*
X65023Y28123D01*
G37*
%LPD*%
%LPC*%
G36*
X43150Y28123D02*
X43150Y28123D01*
X43335Y29292D01*
X43894Y31012D01*
X44716Y32624D01*
X45779Y34088D01*
X47058Y35367D01*
X48522Y36431D01*
X50134Y37252D01*
X51855Y37811D01*
X53642Y38094D01*
X61977Y38094D01*
X61977Y28123D01*
X43150Y28123D01*
G37*
%LPD*%
%LPC*%
G36*
X65023Y15106D02*
X65023Y15106D01*
X65023Y25077D01*
X83850Y25077D01*
X83665Y23908D01*
X83106Y22188D01*
X82284Y20576D01*
X81221Y19112D01*
X79942Y17833D01*
X78478Y16769D01*
X76866Y15948D01*
X75145Y15389D01*
X73358Y15106D01*
X65023Y15106D01*
G37*
%LPD*%
%LPC*%
G36*
X53642Y15106D02*
X53642Y15106D01*
X51855Y15389D01*
X50134Y15948D01*
X48522Y16769D01*
X47058Y17833D01*
X45779Y19112D01*
X44716Y20576D01*
X43894Y22188D01*
X43335Y23908D01*
X43150Y25077D01*
X61977Y25077D01*
X61977Y15106D01*
X53642Y15106D01*
G37*
%LPD*%
%LPC*%
G36*
X141223Y192023D02*
X141223Y192023D01*
X141223Y208166D01*
X142079Y208031D01*
X143600Y207536D01*
X145025Y206810D01*
X146319Y205870D01*
X147450Y204739D01*
X148390Y203445D01*
X149116Y202020D01*
X149611Y200499D01*
X149861Y198920D01*
X149861Y192023D01*
X141223Y192023D01*
G37*
%LPD*%
%LPC*%
G36*
X141223Y188977D02*
X141223Y188977D01*
X149861Y188977D01*
X149861Y182080D01*
X149611Y180501D01*
X149116Y178980D01*
X148390Y177555D01*
X147450Y176261D01*
X146319Y175130D01*
X145025Y174190D01*
X143600Y173464D01*
X142079Y172969D01*
X141223Y172834D01*
X141223Y188977D01*
G37*
%LPD*%
%LPC*%
G36*
X129539Y192023D02*
X129539Y192023D01*
X129539Y198920D01*
X129789Y200499D01*
X130284Y202020D01*
X131010Y203445D01*
X131950Y204739D01*
X133081Y205870D01*
X134375Y206810D01*
X135800Y207536D01*
X137321Y208031D01*
X138177Y208166D01*
X138177Y192023D01*
X129539Y192023D01*
G37*
%LPD*%
%LPC*%
G36*
X137321Y172969D02*
X137321Y172969D01*
X135800Y173464D01*
X134375Y174190D01*
X133081Y175130D01*
X131950Y176261D01*
X131010Y177555D01*
X130284Y178980D01*
X129789Y180501D01*
X129539Y182080D01*
X129539Y188977D01*
X138177Y188977D01*
X138177Y172834D01*
X137321Y172969D01*
G37*
%LPD*%
%LPC*%
G36*
X201523Y217423D02*
X201523Y217423D01*
X201523Y225941D01*
X206834Y225941D01*
X207481Y225768D01*
X208060Y225433D01*
X208533Y224960D01*
X208868Y224381D01*
X209041Y223734D01*
X209041Y217423D01*
X201523Y217423D01*
G37*
%LPD*%
%LPC*%
G36*
X331723Y95759D02*
X331723Y95759D01*
X331723Y103277D01*
X340241Y103277D01*
X340241Y97966D01*
X340068Y97319D01*
X339733Y96740D01*
X339260Y96267D01*
X338681Y95932D01*
X338034Y95759D01*
X331723Y95759D01*
G37*
%LPD*%
%LPC*%
G36*
X357123Y95759D02*
X357123Y95759D01*
X357123Y103277D01*
X365641Y103277D01*
X365641Y97966D01*
X365468Y97319D01*
X365133Y96740D01*
X364660Y96267D01*
X364081Y95932D01*
X363434Y95759D01*
X357123Y95759D01*
G37*
%LPD*%
%LPC*%
G36*
X322366Y95759D02*
X322366Y95759D01*
X321719Y95932D01*
X321140Y96267D01*
X320667Y96740D01*
X320332Y97319D01*
X320159Y97966D01*
X320159Y103277D01*
X328677Y103277D01*
X328677Y95759D01*
X322366Y95759D01*
G37*
%LPD*%
%LPC*%
G36*
X347766Y95759D02*
X347766Y95759D01*
X347119Y95932D01*
X346540Y96267D01*
X346067Y96740D01*
X345732Y97319D01*
X345559Y97966D01*
X345559Y103277D01*
X354077Y103277D01*
X354077Y95759D01*
X347766Y95759D01*
G37*
%LPD*%
%LPC*%
G36*
X204723Y319023D02*
X204723Y319023D01*
X204723Y327546D01*
X205579Y327411D01*
X207100Y326916D01*
X208525Y326190D01*
X209819Y325250D01*
X210950Y324119D01*
X211890Y322825D01*
X212616Y321400D01*
X213111Y319879D01*
X213246Y319023D01*
X204723Y319023D01*
G37*
%LPD*%
%LPC*%
G36*
X230123Y242823D02*
X230123Y242823D01*
X230123Y251346D01*
X230979Y251211D01*
X232500Y250716D01*
X233925Y249990D01*
X235219Y249050D01*
X236350Y247919D01*
X237290Y246625D01*
X238016Y245200D01*
X238511Y243679D01*
X238646Y242823D01*
X230123Y242823D01*
G37*
%LPD*%
%LPC*%
G36*
X193154Y319023D02*
X193154Y319023D01*
X193289Y319879D01*
X193784Y321400D01*
X194510Y322825D01*
X195450Y324119D01*
X196581Y325250D01*
X197875Y326190D01*
X199300Y326916D01*
X200821Y327411D01*
X201677Y327546D01*
X201677Y319023D01*
X193154Y319023D01*
G37*
%LPD*%
%LPC*%
G36*
X230123Y239777D02*
X230123Y239777D01*
X238646Y239777D01*
X238511Y238921D01*
X238016Y237400D01*
X237290Y235975D01*
X236350Y234681D01*
X235219Y233550D01*
X233925Y232610D01*
X232500Y231884D01*
X230979Y231389D01*
X230123Y231254D01*
X230123Y239777D01*
G37*
%LPD*%
%LPC*%
G36*
X218554Y242823D02*
X218554Y242823D01*
X218689Y243679D01*
X219184Y245200D01*
X219910Y246625D01*
X220850Y247919D01*
X221981Y249050D01*
X223275Y249990D01*
X224700Y250716D01*
X226221Y251211D01*
X227077Y251346D01*
X227077Y242823D01*
X218554Y242823D01*
G37*
%LPD*%
%LPC*%
G36*
X204723Y315977D02*
X204723Y315977D01*
X213246Y315977D01*
X213111Y315121D01*
X212616Y313600D01*
X211890Y312175D01*
X210950Y310881D01*
X209819Y309750D01*
X208525Y308810D01*
X207100Y308084D01*
X205579Y307589D01*
X204723Y307454D01*
X204723Y315977D01*
G37*
%LPD*%
%LPC*%
G36*
X226221Y231389D02*
X226221Y231389D01*
X224700Y231884D01*
X223275Y232610D01*
X221981Y233550D01*
X220850Y234681D01*
X219910Y235975D01*
X219184Y237400D01*
X218689Y238921D01*
X218554Y239777D01*
X227077Y239777D01*
X227077Y231254D01*
X226221Y231389D01*
G37*
%LPD*%
%LPC*%
G36*
X200821Y307589D02*
X200821Y307589D01*
X199300Y308084D01*
X197875Y308810D01*
X196581Y309750D01*
X195450Y310881D01*
X194510Y312175D01*
X193784Y313600D01*
X193289Y315121D01*
X193154Y315977D01*
X201677Y315977D01*
X201677Y307454D01*
X200821Y307589D01*
G37*
%LPD*%
%LPC*%
G36*
X348823Y28823D02*
X348823Y28823D01*
X348823Y36445D01*
X351088Y36445D01*
X356445Y31088D01*
X356445Y28823D01*
X348823Y28823D01*
G37*
%LPD*%
%LPC*%
G36*
X338155Y28823D02*
X338155Y28823D01*
X338155Y31088D01*
X343512Y36445D01*
X345777Y36445D01*
X345777Y28823D01*
X338155Y28823D01*
G37*
%LPD*%
%LPC*%
G36*
X348823Y18155D02*
X348823Y18155D01*
X348823Y25777D01*
X356445Y25777D01*
X356445Y23512D01*
X351088Y18155D01*
X348823Y18155D01*
G37*
%LPD*%
%LPC*%
G36*
X343512Y18155D02*
X343512Y18155D01*
X338155Y23512D01*
X338155Y25777D01*
X345777Y25777D01*
X345777Y18155D01*
X343512Y18155D01*
G37*
%LPD*%
%LPC*%
G36*
X203199Y317499D02*
X203199Y317499D01*
X203199Y317501D01*
X203201Y317501D01*
X203201Y317499D01*
X203199Y317499D01*
G37*
%LPD*%
%LPC*%
G36*
X139699Y190499D02*
X139699Y190499D01*
X139699Y190501D01*
X139701Y190501D01*
X139701Y190499D01*
X139699Y190499D01*
G37*
%LPD*%
%LPC*%
G36*
X228599Y241299D02*
X228599Y241299D01*
X228599Y241301D01*
X228601Y241301D01*
X228601Y241299D01*
X228599Y241299D01*
G37*
%LPD*%
%LPC*%
G36*
X347299Y27299D02*
X347299Y27299D01*
X347299Y27301D01*
X347301Y27301D01*
X347301Y27299D01*
X347299Y27299D01*
G37*
%LPD*%
%LPC*%
G36*
X63499Y26599D02*
X63499Y26599D01*
X63499Y26601D01*
X63501Y26601D01*
X63501Y26599D01*
X63499Y26599D01*
G37*
%LPD*%
D10*
X139700Y88900D03*
D11*
X159700Y148900D03*
X159700Y28900D03*
X281700Y148900D03*
X281700Y28900D03*
D12*
X330200Y104800D03*
X330200Y123800D03*
X355600Y104800D03*
X355600Y123800D03*
D13*
X181000Y215900D03*
X200000Y215900D03*
D14*
X50800Y241300D03*
D15*
X76200Y241300D03*
X101600Y241300D03*
X127000Y241300D03*
X152400Y241300D03*
X177800Y241300D03*
X203200Y241300D03*
X228600Y241300D03*
X254000Y241300D03*
X279400Y241300D03*
X304800Y241300D03*
X330200Y241300D03*
X355600Y241300D03*
X381000Y241300D03*
X381000Y317500D03*
X355600Y317500D03*
X330200Y317500D03*
X304800Y317500D03*
X279400Y317500D03*
X254000Y317500D03*
X228600Y317500D03*
X203200Y317500D03*
X177800Y317500D03*
X152400Y317500D03*
X127000Y317500D03*
X101600Y317500D03*
X76200Y317500D03*
X50800Y317500D03*
D16*
X139700Y198120D02*
X139700Y182880D01*
X165100Y182880D02*
X165100Y198120D01*
X190500Y198120D02*
X190500Y182880D01*
X215900Y182880D02*
X215900Y198120D01*
D17*
X316230Y203200D03*
X267970Y203200D03*
D18*
X72454Y176600D02*
X54547Y176600D01*
X54547Y126600D02*
X72454Y126600D01*
X72454Y76600D02*
X54547Y76600D01*
X54547Y26600D02*
X72454Y26600D01*
D16*
X135400Y342380D02*
X135400Y357620D01*
X110000Y357620D02*
X110000Y342380D01*
X84600Y342380D02*
X84600Y357620D01*
D19*
X347300Y27300D03*
X372700Y27300D03*
X372700Y52700D03*
D20*
X264704Y-20000D02*
X251496Y-20000D01*
X188504Y-20000D02*
X175296Y-20000D01*
D12*
X370000Y189500D03*
X370000Y170500D03*
D21*
X355600Y104800D02*
X330200Y104800D01*
D22*
X10000Y280000D03*
X310000Y340000D03*
X340000Y0D03*
X200000Y90000D03*
D21*
X267970Y203200D02*
X267970Y227330D01*
X254000Y241300D01*
X330200Y152400D02*
X330200Y123800D01*
X330200Y152400D02*
X279400Y203200D01*
X267970Y203200D01*
X316230Y203200D02*
X355600Y163830D01*
X355600Y123800D01*
X279400Y240030D02*
X279400Y241300D01*
X279400Y240030D02*
X316230Y203200D01*
X355000Y205000D02*
X370000Y190000D01*
X355000Y205000D02*
X355000Y240000D01*
X370000Y190000D02*
X370000Y189500D01*
X355000Y240000D02*
X355600Y241300D01*
X90000Y255000D02*
X80000Y245000D01*
X90000Y255000D02*
X90000Y345000D01*
X85000Y350000D01*
X80000Y245000D02*
X76200Y241300D01*
X84600Y350000D02*
X85000Y350000D01*
X115000Y255000D02*
X105000Y245000D01*
X115000Y255000D02*
X115000Y345000D01*
X110000Y350000D01*
X105000Y245000D02*
X101600Y241300D01*
X130000Y245000D02*
X140000Y255000D01*
X140000Y350000D01*
X130000Y245000D02*
X127000Y241300D01*
X135400Y350000D02*
X140000Y350000D01*
X160000Y30000D02*
X180000Y30000D01*
X180000Y-20000D01*
X159700Y28900D02*
X160000Y30000D01*
X180000Y-20000D02*
X181900Y-20000D01*
X370000Y170000D02*
X385000Y155000D01*
X385000Y35000D01*
X375000Y25000D01*
X370000Y170000D02*
X370000Y170500D01*
X372700Y27300D02*
X375000Y25000D01*
X181000Y219100D02*
X203200Y241300D01*
X181000Y219100D02*
X181000Y215900D01*
X170000Y160000D02*
X160000Y150000D01*
X170000Y160000D02*
X170000Y190000D01*
X160000Y150000D02*
X159700Y148900D01*
X165100Y190500D02*
X170000Y190000D01*
X160000Y75000D02*
X255000Y-20000D01*
X160000Y75000D02*
X160000Y145000D01*
X255000Y-20000D02*
X258100Y-20000D01*
X160000Y145000D02*
X159700Y148900D01*
X170000Y205000D02*
X180000Y215000D01*
X170000Y205000D02*
X170000Y195000D01*
X180000Y215000D02*
X181000Y215900D01*
X170000Y195000D02*
X165100Y190500D01*
M02*
