M48
;GenerationSoftware,Autodesk,EAGLE,9.6.2*%
;CreationDate,2022-01-17T18:12:27Z*%
FMAT,2
ICI,OFF
METRIC,TZ,000.000
T7C0.600
T6C0.800
T5C0.813
T4C1.016
T3C1.194
T2C1.340
T1C3.400
%
G90
M71
T1
X2000Y-2000
X2000Y36000
X38000Y36000
X38000Y-2000
T2
X13970Y8890
T3
X6350Y2660
X6350Y7660
X6350Y12660
X6350Y17660
T4
X13540Y35000
X21590Y19050
X19050Y19050
X16510Y19050
X13970Y19050
X11000Y35000
X8460Y35000
T5
X12700Y24130
X15240Y24130
X17780Y24130
X20320Y24130
X22860Y24130
X25400Y24130
X27940Y24130
X30480Y24130
X33020Y24130
X35560Y24130
X38100Y24130
X38100Y31750
X35560Y31750
X7620Y24130
X30480Y31750
X27940Y31750
X25400Y31750
X22860Y31750
X20320Y31750
X17780Y31750
X15240Y31750
X12700Y31750
X10160Y31750
X7620Y31750
X5080Y31750
X31623Y20320
X26797Y20320
X33020Y31750
X5080Y24130
X10160Y24130
X34730Y2730
X37270Y2730
X37270Y5270
X25810Y-2000
X18190Y-2000
T6
X28170Y14890
X15970Y2890
X28170Y2890
X15970Y14890
T7
X1000Y28000
X20000Y9000
X34000Y0
X31000Y34000
M30