G04 EAGLE Gerber RS-274X export*
G75*
%MOMM*%
%FSLAX34Y34*%
%LPD*%
%INBoard Outline*%
%IPPOS*%
%AMOC8*
5,1,8,0,0,1.08239X$1,22.5*%
G01*
%ADD10C,0.000000*%
%ADD11C,0.254000*%


D10*
X-23500Y-73500D02*
X416600Y-73500D01*
X416600Y389000D01*
X-23500Y389000D01*
X-23500Y-73500D01*
X3000Y360000D02*
X3005Y360417D01*
X3020Y360834D01*
X3046Y361251D01*
X3082Y361666D01*
X3128Y362081D01*
X3184Y362494D01*
X3250Y362906D01*
X3327Y363317D01*
X3413Y363725D01*
X3509Y364131D01*
X3616Y364534D01*
X3732Y364935D01*
X3858Y365333D01*
X3994Y365727D01*
X4139Y366118D01*
X4294Y366506D01*
X4458Y366889D01*
X4632Y367268D01*
X4815Y367643D01*
X5007Y368014D01*
X5209Y368379D01*
X5419Y368740D01*
X5637Y369095D01*
X5865Y369445D01*
X6101Y369789D01*
X6345Y370127D01*
X6598Y370459D01*
X6859Y370785D01*
X7127Y371104D01*
X7404Y371417D01*
X7688Y371722D01*
X7979Y372021D01*
X8278Y372312D01*
X8583Y372596D01*
X8896Y372873D01*
X9215Y373141D01*
X9541Y373402D01*
X9873Y373655D01*
X10211Y373899D01*
X10555Y374135D01*
X10905Y374363D01*
X11260Y374581D01*
X11621Y374791D01*
X11986Y374993D01*
X12357Y375185D01*
X12732Y375368D01*
X13111Y375542D01*
X13494Y375706D01*
X13882Y375861D01*
X14273Y376006D01*
X14667Y376142D01*
X15065Y376268D01*
X15466Y376384D01*
X15869Y376491D01*
X16275Y376587D01*
X16683Y376673D01*
X17094Y376750D01*
X17506Y376816D01*
X17919Y376872D01*
X18334Y376918D01*
X18749Y376954D01*
X19166Y376980D01*
X19583Y376995D01*
X20000Y377000D01*
X20417Y376995D01*
X20834Y376980D01*
X21251Y376954D01*
X21666Y376918D01*
X22081Y376872D01*
X22494Y376816D01*
X22906Y376750D01*
X23317Y376673D01*
X23725Y376587D01*
X24131Y376491D01*
X24534Y376384D01*
X24935Y376268D01*
X25333Y376142D01*
X25727Y376006D01*
X26118Y375861D01*
X26506Y375706D01*
X26889Y375542D01*
X27268Y375368D01*
X27643Y375185D01*
X28014Y374993D01*
X28379Y374791D01*
X28740Y374581D01*
X29095Y374363D01*
X29445Y374135D01*
X29789Y373899D01*
X30127Y373655D01*
X30459Y373402D01*
X30785Y373141D01*
X31104Y372873D01*
X31417Y372596D01*
X31722Y372312D01*
X32021Y372021D01*
X32312Y371722D01*
X32596Y371417D01*
X32873Y371104D01*
X33141Y370785D01*
X33402Y370459D01*
X33655Y370127D01*
X33899Y369789D01*
X34135Y369445D01*
X34363Y369095D01*
X34581Y368740D01*
X34791Y368379D01*
X34993Y368014D01*
X35185Y367643D01*
X35368Y367268D01*
X35542Y366889D01*
X35706Y366506D01*
X35861Y366118D01*
X36006Y365727D01*
X36142Y365333D01*
X36268Y364935D01*
X36384Y364534D01*
X36491Y364131D01*
X36587Y363725D01*
X36673Y363317D01*
X36750Y362906D01*
X36816Y362494D01*
X36872Y362081D01*
X36918Y361666D01*
X36954Y361251D01*
X36980Y360834D01*
X36995Y360417D01*
X37000Y360000D01*
X36995Y359583D01*
X36980Y359166D01*
X36954Y358749D01*
X36918Y358334D01*
X36872Y357919D01*
X36816Y357506D01*
X36750Y357094D01*
X36673Y356683D01*
X36587Y356275D01*
X36491Y355869D01*
X36384Y355466D01*
X36268Y355065D01*
X36142Y354667D01*
X36006Y354273D01*
X35861Y353882D01*
X35706Y353494D01*
X35542Y353111D01*
X35368Y352732D01*
X35185Y352357D01*
X34993Y351986D01*
X34791Y351621D01*
X34581Y351260D01*
X34363Y350905D01*
X34135Y350555D01*
X33899Y350211D01*
X33655Y349873D01*
X33402Y349541D01*
X33141Y349215D01*
X32873Y348896D01*
X32596Y348583D01*
X32312Y348278D01*
X32021Y347979D01*
X31722Y347688D01*
X31417Y347404D01*
X31104Y347127D01*
X30785Y346859D01*
X30459Y346598D01*
X30127Y346345D01*
X29789Y346101D01*
X29445Y345865D01*
X29095Y345637D01*
X28740Y345419D01*
X28379Y345209D01*
X28014Y345007D01*
X27643Y344815D01*
X27268Y344632D01*
X26889Y344458D01*
X26506Y344294D01*
X26118Y344139D01*
X25727Y343994D01*
X25333Y343858D01*
X24935Y343732D01*
X24534Y343616D01*
X24131Y343509D01*
X23725Y343413D01*
X23317Y343327D01*
X22906Y343250D01*
X22494Y343184D01*
X22081Y343128D01*
X21666Y343082D01*
X21251Y343046D01*
X20834Y343020D01*
X20417Y343005D01*
X20000Y343000D01*
X19583Y343005D01*
X19166Y343020D01*
X18749Y343046D01*
X18334Y343082D01*
X17919Y343128D01*
X17506Y343184D01*
X17094Y343250D01*
X16683Y343327D01*
X16275Y343413D01*
X15869Y343509D01*
X15466Y343616D01*
X15065Y343732D01*
X14667Y343858D01*
X14273Y343994D01*
X13882Y344139D01*
X13494Y344294D01*
X13111Y344458D01*
X12732Y344632D01*
X12357Y344815D01*
X11986Y345007D01*
X11621Y345209D01*
X11260Y345419D01*
X10905Y345637D01*
X10555Y345865D01*
X10211Y346101D01*
X9873Y346345D01*
X9541Y346598D01*
X9215Y346859D01*
X8896Y347127D01*
X8583Y347404D01*
X8278Y347688D01*
X7979Y347979D01*
X7688Y348278D01*
X7404Y348583D01*
X7127Y348896D01*
X6859Y349215D01*
X6598Y349541D01*
X6345Y349873D01*
X6101Y350211D01*
X5865Y350555D01*
X5637Y350905D01*
X5419Y351260D01*
X5209Y351621D01*
X5007Y351986D01*
X4815Y352357D01*
X4632Y352732D01*
X4458Y353111D01*
X4294Y353494D01*
X4139Y353882D01*
X3994Y354273D01*
X3858Y354667D01*
X3732Y355065D01*
X3616Y355466D01*
X3509Y355869D01*
X3413Y356275D01*
X3327Y356683D01*
X3250Y357094D01*
X3184Y357506D01*
X3128Y357919D01*
X3082Y358334D01*
X3046Y358749D01*
X3020Y359166D01*
X3005Y359583D01*
X3000Y360000D01*
X363000Y360000D02*
X363005Y360417D01*
X363020Y360834D01*
X363046Y361251D01*
X363082Y361666D01*
X363128Y362081D01*
X363184Y362494D01*
X363250Y362906D01*
X363327Y363317D01*
X363413Y363725D01*
X363509Y364131D01*
X363616Y364534D01*
X363732Y364935D01*
X363858Y365333D01*
X363994Y365727D01*
X364139Y366118D01*
X364294Y366506D01*
X364458Y366889D01*
X364632Y367268D01*
X364815Y367643D01*
X365007Y368014D01*
X365209Y368379D01*
X365419Y368740D01*
X365637Y369095D01*
X365865Y369445D01*
X366101Y369789D01*
X366345Y370127D01*
X366598Y370459D01*
X366859Y370785D01*
X367127Y371104D01*
X367404Y371417D01*
X367688Y371722D01*
X367979Y372021D01*
X368278Y372312D01*
X368583Y372596D01*
X368896Y372873D01*
X369215Y373141D01*
X369541Y373402D01*
X369873Y373655D01*
X370211Y373899D01*
X370555Y374135D01*
X370905Y374363D01*
X371260Y374581D01*
X371621Y374791D01*
X371986Y374993D01*
X372357Y375185D01*
X372732Y375368D01*
X373111Y375542D01*
X373494Y375706D01*
X373882Y375861D01*
X374273Y376006D01*
X374667Y376142D01*
X375065Y376268D01*
X375466Y376384D01*
X375869Y376491D01*
X376275Y376587D01*
X376683Y376673D01*
X377094Y376750D01*
X377506Y376816D01*
X377919Y376872D01*
X378334Y376918D01*
X378749Y376954D01*
X379166Y376980D01*
X379583Y376995D01*
X380000Y377000D01*
X380417Y376995D01*
X380834Y376980D01*
X381251Y376954D01*
X381666Y376918D01*
X382081Y376872D01*
X382494Y376816D01*
X382906Y376750D01*
X383317Y376673D01*
X383725Y376587D01*
X384131Y376491D01*
X384534Y376384D01*
X384935Y376268D01*
X385333Y376142D01*
X385727Y376006D01*
X386118Y375861D01*
X386506Y375706D01*
X386889Y375542D01*
X387268Y375368D01*
X387643Y375185D01*
X388014Y374993D01*
X388379Y374791D01*
X388740Y374581D01*
X389095Y374363D01*
X389445Y374135D01*
X389789Y373899D01*
X390127Y373655D01*
X390459Y373402D01*
X390785Y373141D01*
X391104Y372873D01*
X391417Y372596D01*
X391722Y372312D01*
X392021Y372021D01*
X392312Y371722D01*
X392596Y371417D01*
X392873Y371104D01*
X393141Y370785D01*
X393402Y370459D01*
X393655Y370127D01*
X393899Y369789D01*
X394135Y369445D01*
X394363Y369095D01*
X394581Y368740D01*
X394791Y368379D01*
X394993Y368014D01*
X395185Y367643D01*
X395368Y367268D01*
X395542Y366889D01*
X395706Y366506D01*
X395861Y366118D01*
X396006Y365727D01*
X396142Y365333D01*
X396268Y364935D01*
X396384Y364534D01*
X396491Y364131D01*
X396587Y363725D01*
X396673Y363317D01*
X396750Y362906D01*
X396816Y362494D01*
X396872Y362081D01*
X396918Y361666D01*
X396954Y361251D01*
X396980Y360834D01*
X396995Y360417D01*
X397000Y360000D01*
X396995Y359583D01*
X396980Y359166D01*
X396954Y358749D01*
X396918Y358334D01*
X396872Y357919D01*
X396816Y357506D01*
X396750Y357094D01*
X396673Y356683D01*
X396587Y356275D01*
X396491Y355869D01*
X396384Y355466D01*
X396268Y355065D01*
X396142Y354667D01*
X396006Y354273D01*
X395861Y353882D01*
X395706Y353494D01*
X395542Y353111D01*
X395368Y352732D01*
X395185Y352357D01*
X394993Y351986D01*
X394791Y351621D01*
X394581Y351260D01*
X394363Y350905D01*
X394135Y350555D01*
X393899Y350211D01*
X393655Y349873D01*
X393402Y349541D01*
X393141Y349215D01*
X392873Y348896D01*
X392596Y348583D01*
X392312Y348278D01*
X392021Y347979D01*
X391722Y347688D01*
X391417Y347404D01*
X391104Y347127D01*
X390785Y346859D01*
X390459Y346598D01*
X390127Y346345D01*
X389789Y346101D01*
X389445Y345865D01*
X389095Y345637D01*
X388740Y345419D01*
X388379Y345209D01*
X388014Y345007D01*
X387643Y344815D01*
X387268Y344632D01*
X386889Y344458D01*
X386506Y344294D01*
X386118Y344139D01*
X385727Y343994D01*
X385333Y343858D01*
X384935Y343732D01*
X384534Y343616D01*
X384131Y343509D01*
X383725Y343413D01*
X383317Y343327D01*
X382906Y343250D01*
X382494Y343184D01*
X382081Y343128D01*
X381666Y343082D01*
X381251Y343046D01*
X380834Y343020D01*
X380417Y343005D01*
X380000Y343000D01*
X379583Y343005D01*
X379166Y343020D01*
X378749Y343046D01*
X378334Y343082D01*
X377919Y343128D01*
X377506Y343184D01*
X377094Y343250D01*
X376683Y343327D01*
X376275Y343413D01*
X375869Y343509D01*
X375466Y343616D01*
X375065Y343732D01*
X374667Y343858D01*
X374273Y343994D01*
X373882Y344139D01*
X373494Y344294D01*
X373111Y344458D01*
X372732Y344632D01*
X372357Y344815D01*
X371986Y345007D01*
X371621Y345209D01*
X371260Y345419D01*
X370905Y345637D01*
X370555Y345865D01*
X370211Y346101D01*
X369873Y346345D01*
X369541Y346598D01*
X369215Y346859D01*
X368896Y347127D01*
X368583Y347404D01*
X368278Y347688D01*
X367979Y347979D01*
X367688Y348278D01*
X367404Y348583D01*
X367127Y348896D01*
X366859Y349215D01*
X366598Y349541D01*
X366345Y349873D01*
X366101Y350211D01*
X365865Y350555D01*
X365637Y350905D01*
X365419Y351260D01*
X365209Y351621D01*
X365007Y351986D01*
X364815Y352357D01*
X364632Y352732D01*
X364458Y353111D01*
X364294Y353494D01*
X364139Y353882D01*
X363994Y354273D01*
X363858Y354667D01*
X363732Y355065D01*
X363616Y355466D01*
X363509Y355869D01*
X363413Y356275D01*
X363327Y356683D01*
X363250Y357094D01*
X363184Y357506D01*
X363128Y357919D01*
X363082Y358334D01*
X363046Y358749D01*
X363020Y359166D01*
X363005Y359583D01*
X363000Y360000D01*
X363000Y-20000D02*
X363005Y-19583D01*
X363020Y-19166D01*
X363046Y-18749D01*
X363082Y-18334D01*
X363128Y-17919D01*
X363184Y-17506D01*
X363250Y-17094D01*
X363327Y-16683D01*
X363413Y-16275D01*
X363509Y-15869D01*
X363616Y-15466D01*
X363732Y-15065D01*
X363858Y-14667D01*
X363994Y-14273D01*
X364139Y-13882D01*
X364294Y-13494D01*
X364458Y-13111D01*
X364632Y-12732D01*
X364815Y-12357D01*
X365007Y-11986D01*
X365209Y-11621D01*
X365419Y-11260D01*
X365637Y-10905D01*
X365865Y-10555D01*
X366101Y-10211D01*
X366345Y-9873D01*
X366598Y-9541D01*
X366859Y-9215D01*
X367127Y-8896D01*
X367404Y-8583D01*
X367688Y-8278D01*
X367979Y-7979D01*
X368278Y-7688D01*
X368583Y-7404D01*
X368896Y-7127D01*
X369215Y-6859D01*
X369541Y-6598D01*
X369873Y-6345D01*
X370211Y-6101D01*
X370555Y-5865D01*
X370905Y-5637D01*
X371260Y-5419D01*
X371621Y-5209D01*
X371986Y-5007D01*
X372357Y-4815D01*
X372732Y-4632D01*
X373111Y-4458D01*
X373494Y-4294D01*
X373882Y-4139D01*
X374273Y-3994D01*
X374667Y-3858D01*
X375065Y-3732D01*
X375466Y-3616D01*
X375869Y-3509D01*
X376275Y-3413D01*
X376683Y-3327D01*
X377094Y-3250D01*
X377506Y-3184D01*
X377919Y-3128D01*
X378334Y-3082D01*
X378749Y-3046D01*
X379166Y-3020D01*
X379583Y-3005D01*
X380000Y-3000D01*
X380417Y-3005D01*
X380834Y-3020D01*
X381251Y-3046D01*
X381666Y-3082D01*
X382081Y-3128D01*
X382494Y-3184D01*
X382906Y-3250D01*
X383317Y-3327D01*
X383725Y-3413D01*
X384131Y-3509D01*
X384534Y-3616D01*
X384935Y-3732D01*
X385333Y-3858D01*
X385727Y-3994D01*
X386118Y-4139D01*
X386506Y-4294D01*
X386889Y-4458D01*
X387268Y-4632D01*
X387643Y-4815D01*
X388014Y-5007D01*
X388379Y-5209D01*
X388740Y-5419D01*
X389095Y-5637D01*
X389445Y-5865D01*
X389789Y-6101D01*
X390127Y-6345D01*
X390459Y-6598D01*
X390785Y-6859D01*
X391104Y-7127D01*
X391417Y-7404D01*
X391722Y-7688D01*
X392021Y-7979D01*
X392312Y-8278D01*
X392596Y-8583D01*
X392873Y-8896D01*
X393141Y-9215D01*
X393402Y-9541D01*
X393655Y-9873D01*
X393899Y-10211D01*
X394135Y-10555D01*
X394363Y-10905D01*
X394581Y-11260D01*
X394791Y-11621D01*
X394993Y-11986D01*
X395185Y-12357D01*
X395368Y-12732D01*
X395542Y-13111D01*
X395706Y-13494D01*
X395861Y-13882D01*
X396006Y-14273D01*
X396142Y-14667D01*
X396268Y-15065D01*
X396384Y-15466D01*
X396491Y-15869D01*
X396587Y-16275D01*
X396673Y-16683D01*
X396750Y-17094D01*
X396816Y-17506D01*
X396872Y-17919D01*
X396918Y-18334D01*
X396954Y-18749D01*
X396980Y-19166D01*
X396995Y-19583D01*
X397000Y-20000D01*
X396995Y-20417D01*
X396980Y-20834D01*
X396954Y-21251D01*
X396918Y-21666D01*
X396872Y-22081D01*
X396816Y-22494D01*
X396750Y-22906D01*
X396673Y-23317D01*
X396587Y-23725D01*
X396491Y-24131D01*
X396384Y-24534D01*
X396268Y-24935D01*
X396142Y-25333D01*
X396006Y-25727D01*
X395861Y-26118D01*
X395706Y-26506D01*
X395542Y-26889D01*
X395368Y-27268D01*
X395185Y-27643D01*
X394993Y-28014D01*
X394791Y-28379D01*
X394581Y-28740D01*
X394363Y-29095D01*
X394135Y-29445D01*
X393899Y-29789D01*
X393655Y-30127D01*
X393402Y-30459D01*
X393141Y-30785D01*
X392873Y-31104D01*
X392596Y-31417D01*
X392312Y-31722D01*
X392021Y-32021D01*
X391722Y-32312D01*
X391417Y-32596D01*
X391104Y-32873D01*
X390785Y-33141D01*
X390459Y-33402D01*
X390127Y-33655D01*
X389789Y-33899D01*
X389445Y-34135D01*
X389095Y-34363D01*
X388740Y-34581D01*
X388379Y-34791D01*
X388014Y-34993D01*
X387643Y-35185D01*
X387268Y-35368D01*
X386889Y-35542D01*
X386506Y-35706D01*
X386118Y-35861D01*
X385727Y-36006D01*
X385333Y-36142D01*
X384935Y-36268D01*
X384534Y-36384D01*
X384131Y-36491D01*
X383725Y-36587D01*
X383317Y-36673D01*
X382906Y-36750D01*
X382494Y-36816D01*
X382081Y-36872D01*
X381666Y-36918D01*
X381251Y-36954D01*
X380834Y-36980D01*
X380417Y-36995D01*
X380000Y-37000D01*
X379583Y-36995D01*
X379166Y-36980D01*
X378749Y-36954D01*
X378334Y-36918D01*
X377919Y-36872D01*
X377506Y-36816D01*
X377094Y-36750D01*
X376683Y-36673D01*
X376275Y-36587D01*
X375869Y-36491D01*
X375466Y-36384D01*
X375065Y-36268D01*
X374667Y-36142D01*
X374273Y-36006D01*
X373882Y-35861D01*
X373494Y-35706D01*
X373111Y-35542D01*
X372732Y-35368D01*
X372357Y-35185D01*
X371986Y-34993D01*
X371621Y-34791D01*
X371260Y-34581D01*
X370905Y-34363D01*
X370555Y-34135D01*
X370211Y-33899D01*
X369873Y-33655D01*
X369541Y-33402D01*
X369215Y-33141D01*
X368896Y-32873D01*
X368583Y-32596D01*
X368278Y-32312D01*
X367979Y-32021D01*
X367688Y-31722D01*
X367404Y-31417D01*
X367127Y-31104D01*
X366859Y-30785D01*
X366598Y-30459D01*
X366345Y-30127D01*
X366101Y-29789D01*
X365865Y-29445D01*
X365637Y-29095D01*
X365419Y-28740D01*
X365209Y-28379D01*
X365007Y-28014D01*
X364815Y-27643D01*
X364632Y-27268D01*
X364458Y-26889D01*
X364294Y-26506D01*
X364139Y-26118D01*
X363994Y-25727D01*
X363858Y-25333D01*
X363732Y-24935D01*
X363616Y-24534D01*
X363509Y-24131D01*
X363413Y-23725D01*
X363327Y-23317D01*
X363250Y-22906D01*
X363184Y-22494D01*
X363128Y-22081D01*
X363082Y-21666D01*
X363046Y-21251D01*
X363020Y-20834D01*
X363005Y-20417D01*
X363000Y-20000D01*
X3000Y-20000D02*
X3005Y-19583D01*
X3020Y-19166D01*
X3046Y-18749D01*
X3082Y-18334D01*
X3128Y-17919D01*
X3184Y-17506D01*
X3250Y-17094D01*
X3327Y-16683D01*
X3413Y-16275D01*
X3509Y-15869D01*
X3616Y-15466D01*
X3732Y-15065D01*
X3858Y-14667D01*
X3994Y-14273D01*
X4139Y-13882D01*
X4294Y-13494D01*
X4458Y-13111D01*
X4632Y-12732D01*
X4815Y-12357D01*
X5007Y-11986D01*
X5209Y-11621D01*
X5419Y-11260D01*
X5637Y-10905D01*
X5865Y-10555D01*
X6101Y-10211D01*
X6345Y-9873D01*
X6598Y-9541D01*
X6859Y-9215D01*
X7127Y-8896D01*
X7404Y-8583D01*
X7688Y-8278D01*
X7979Y-7979D01*
X8278Y-7688D01*
X8583Y-7404D01*
X8896Y-7127D01*
X9215Y-6859D01*
X9541Y-6598D01*
X9873Y-6345D01*
X10211Y-6101D01*
X10555Y-5865D01*
X10905Y-5637D01*
X11260Y-5419D01*
X11621Y-5209D01*
X11986Y-5007D01*
X12357Y-4815D01*
X12732Y-4632D01*
X13111Y-4458D01*
X13494Y-4294D01*
X13882Y-4139D01*
X14273Y-3994D01*
X14667Y-3858D01*
X15065Y-3732D01*
X15466Y-3616D01*
X15869Y-3509D01*
X16275Y-3413D01*
X16683Y-3327D01*
X17094Y-3250D01*
X17506Y-3184D01*
X17919Y-3128D01*
X18334Y-3082D01*
X18749Y-3046D01*
X19166Y-3020D01*
X19583Y-3005D01*
X20000Y-3000D01*
X20417Y-3005D01*
X20834Y-3020D01*
X21251Y-3046D01*
X21666Y-3082D01*
X22081Y-3128D01*
X22494Y-3184D01*
X22906Y-3250D01*
X23317Y-3327D01*
X23725Y-3413D01*
X24131Y-3509D01*
X24534Y-3616D01*
X24935Y-3732D01*
X25333Y-3858D01*
X25727Y-3994D01*
X26118Y-4139D01*
X26506Y-4294D01*
X26889Y-4458D01*
X27268Y-4632D01*
X27643Y-4815D01*
X28014Y-5007D01*
X28379Y-5209D01*
X28740Y-5419D01*
X29095Y-5637D01*
X29445Y-5865D01*
X29789Y-6101D01*
X30127Y-6345D01*
X30459Y-6598D01*
X30785Y-6859D01*
X31104Y-7127D01*
X31417Y-7404D01*
X31722Y-7688D01*
X32021Y-7979D01*
X32312Y-8278D01*
X32596Y-8583D01*
X32873Y-8896D01*
X33141Y-9215D01*
X33402Y-9541D01*
X33655Y-9873D01*
X33899Y-10211D01*
X34135Y-10555D01*
X34363Y-10905D01*
X34581Y-11260D01*
X34791Y-11621D01*
X34993Y-11986D01*
X35185Y-12357D01*
X35368Y-12732D01*
X35542Y-13111D01*
X35706Y-13494D01*
X35861Y-13882D01*
X36006Y-14273D01*
X36142Y-14667D01*
X36268Y-15065D01*
X36384Y-15466D01*
X36491Y-15869D01*
X36587Y-16275D01*
X36673Y-16683D01*
X36750Y-17094D01*
X36816Y-17506D01*
X36872Y-17919D01*
X36918Y-18334D01*
X36954Y-18749D01*
X36980Y-19166D01*
X36995Y-19583D01*
X37000Y-20000D01*
X36995Y-20417D01*
X36980Y-20834D01*
X36954Y-21251D01*
X36918Y-21666D01*
X36872Y-22081D01*
X36816Y-22494D01*
X36750Y-22906D01*
X36673Y-23317D01*
X36587Y-23725D01*
X36491Y-24131D01*
X36384Y-24534D01*
X36268Y-24935D01*
X36142Y-25333D01*
X36006Y-25727D01*
X35861Y-26118D01*
X35706Y-26506D01*
X35542Y-26889D01*
X35368Y-27268D01*
X35185Y-27643D01*
X34993Y-28014D01*
X34791Y-28379D01*
X34581Y-28740D01*
X34363Y-29095D01*
X34135Y-29445D01*
X33899Y-29789D01*
X33655Y-30127D01*
X33402Y-30459D01*
X33141Y-30785D01*
X32873Y-31104D01*
X32596Y-31417D01*
X32312Y-31722D01*
X32021Y-32021D01*
X31722Y-32312D01*
X31417Y-32596D01*
X31104Y-32873D01*
X30785Y-33141D01*
X30459Y-33402D01*
X30127Y-33655D01*
X29789Y-33899D01*
X29445Y-34135D01*
X29095Y-34363D01*
X28740Y-34581D01*
X28379Y-34791D01*
X28014Y-34993D01*
X27643Y-35185D01*
X27268Y-35368D01*
X26889Y-35542D01*
X26506Y-35706D01*
X26118Y-35861D01*
X25727Y-36006D01*
X25333Y-36142D01*
X24935Y-36268D01*
X24534Y-36384D01*
X24131Y-36491D01*
X23725Y-36587D01*
X23317Y-36673D01*
X22906Y-36750D01*
X22494Y-36816D01*
X22081Y-36872D01*
X21666Y-36918D01*
X21251Y-36954D01*
X20834Y-36980D01*
X20417Y-36995D01*
X20000Y-37000D01*
X19583Y-36995D01*
X19166Y-36980D01*
X18749Y-36954D01*
X18334Y-36918D01*
X17919Y-36872D01*
X17506Y-36816D01*
X17094Y-36750D01*
X16683Y-36673D01*
X16275Y-36587D01*
X15869Y-36491D01*
X15466Y-36384D01*
X15065Y-36268D01*
X14667Y-36142D01*
X14273Y-36006D01*
X13882Y-35861D01*
X13494Y-35706D01*
X13111Y-35542D01*
X12732Y-35368D01*
X12357Y-35185D01*
X11986Y-34993D01*
X11621Y-34791D01*
X11260Y-34581D01*
X10905Y-34363D01*
X10555Y-34135D01*
X10211Y-33899D01*
X9873Y-33655D01*
X9541Y-33402D01*
X9215Y-33141D01*
X8896Y-32873D01*
X8583Y-32596D01*
X8278Y-32312D01*
X7979Y-32021D01*
X7688Y-31722D01*
X7404Y-31417D01*
X7127Y-31104D01*
X6859Y-30785D01*
X6598Y-30459D01*
X6345Y-30127D01*
X6101Y-29789D01*
X5865Y-29445D01*
X5637Y-29095D01*
X5419Y-28740D01*
X5209Y-28379D01*
X5007Y-28014D01*
X4815Y-27643D01*
X4632Y-27268D01*
X4458Y-26889D01*
X4294Y-26506D01*
X4139Y-26118D01*
X3994Y-25727D01*
X3858Y-25333D01*
X3732Y-24935D01*
X3616Y-24534D01*
X3509Y-24131D01*
X3413Y-23725D01*
X3327Y-23317D01*
X3250Y-22906D01*
X3184Y-22494D01*
X3128Y-22081D01*
X3082Y-21666D01*
X3046Y-21251D01*
X3020Y-20834D01*
X3005Y-20417D01*
X3000Y-20000D01*
D11*
X-23500Y-73500D02*
X416600Y-73500D01*
X416600Y389000D01*
X-23500Y389000D01*
X-23500Y-73500D01*
X37000Y359443D02*
X36927Y358333D01*
X36782Y357229D01*
X36565Y356138D01*
X36277Y355063D01*
X35919Y354009D01*
X35493Y352980D01*
X35001Y351982D01*
X34444Y351018D01*
X33826Y350093D01*
X33148Y349210D01*
X32414Y348373D01*
X31627Y347586D01*
X30790Y346852D01*
X29907Y346174D01*
X28982Y345556D01*
X28018Y344999D01*
X27020Y344507D01*
X25991Y344081D01*
X24937Y343723D01*
X23862Y343435D01*
X22771Y343218D01*
X21667Y343073D01*
X20557Y343000D01*
X19443Y343000D01*
X18333Y343073D01*
X17229Y343218D01*
X16138Y343435D01*
X15063Y343723D01*
X14009Y344081D01*
X12980Y344507D01*
X11982Y344999D01*
X11018Y345556D01*
X10093Y346174D01*
X9210Y346852D01*
X8373Y347586D01*
X7586Y348373D01*
X6852Y349210D01*
X6174Y350093D01*
X5556Y351018D01*
X4999Y351982D01*
X4507Y352980D01*
X4081Y354009D01*
X3723Y355063D01*
X3435Y356138D01*
X3218Y357229D01*
X3073Y358333D01*
X3000Y359443D01*
X3000Y360557D01*
X3073Y361667D01*
X3218Y362771D01*
X3435Y363862D01*
X3723Y364937D01*
X4081Y365991D01*
X4507Y367020D01*
X4999Y368018D01*
X5556Y368982D01*
X6174Y369907D01*
X6852Y370790D01*
X7586Y371627D01*
X8373Y372414D01*
X9210Y373148D01*
X10093Y373826D01*
X11018Y374444D01*
X11982Y375001D01*
X12980Y375493D01*
X14009Y375919D01*
X15063Y376277D01*
X16138Y376565D01*
X17229Y376782D01*
X18333Y376927D01*
X19443Y377000D01*
X20557Y377000D01*
X21667Y376927D01*
X22771Y376782D01*
X23862Y376565D01*
X24937Y376277D01*
X25991Y375919D01*
X27020Y375493D01*
X28018Y375001D01*
X28982Y374444D01*
X29907Y373826D01*
X30790Y373148D01*
X31627Y372414D01*
X32414Y371627D01*
X33148Y370790D01*
X33826Y369907D01*
X34444Y368982D01*
X35001Y368018D01*
X35493Y367020D01*
X35919Y365991D01*
X36277Y364937D01*
X36565Y363862D01*
X36782Y362771D01*
X36927Y361667D01*
X37000Y360557D01*
X37000Y359443D01*
X397000Y359443D02*
X396927Y358333D01*
X396782Y357229D01*
X396565Y356138D01*
X396277Y355063D01*
X395919Y354009D01*
X395493Y352980D01*
X395001Y351982D01*
X394444Y351018D01*
X393826Y350093D01*
X393148Y349210D01*
X392414Y348373D01*
X391627Y347586D01*
X390790Y346852D01*
X389907Y346174D01*
X388982Y345556D01*
X388018Y344999D01*
X387020Y344507D01*
X385991Y344081D01*
X384937Y343723D01*
X383862Y343435D01*
X382771Y343218D01*
X381667Y343073D01*
X380557Y343000D01*
X379443Y343000D01*
X378333Y343073D01*
X377229Y343218D01*
X376138Y343435D01*
X375063Y343723D01*
X374009Y344081D01*
X372980Y344507D01*
X371982Y344999D01*
X371018Y345556D01*
X370093Y346174D01*
X369210Y346852D01*
X368373Y347586D01*
X367586Y348373D01*
X366852Y349210D01*
X366174Y350093D01*
X365556Y351018D01*
X364999Y351982D01*
X364507Y352980D01*
X364081Y354009D01*
X363723Y355063D01*
X363435Y356138D01*
X363218Y357229D01*
X363073Y358333D01*
X363000Y359443D01*
X363000Y360557D01*
X363073Y361667D01*
X363218Y362771D01*
X363435Y363862D01*
X363723Y364937D01*
X364081Y365991D01*
X364507Y367020D01*
X364999Y368018D01*
X365556Y368982D01*
X366174Y369907D01*
X366852Y370790D01*
X367586Y371627D01*
X368373Y372414D01*
X369210Y373148D01*
X370093Y373826D01*
X371018Y374444D01*
X371982Y375001D01*
X372980Y375493D01*
X374009Y375919D01*
X375063Y376277D01*
X376138Y376565D01*
X377229Y376782D01*
X378333Y376927D01*
X379443Y377000D01*
X380557Y377000D01*
X381667Y376927D01*
X382771Y376782D01*
X383862Y376565D01*
X384937Y376277D01*
X385991Y375919D01*
X387020Y375493D01*
X388018Y375001D01*
X388982Y374444D01*
X389907Y373826D01*
X390790Y373148D01*
X391627Y372414D01*
X392414Y371627D01*
X393148Y370790D01*
X393826Y369907D01*
X394444Y368982D01*
X395001Y368018D01*
X395493Y367020D01*
X395919Y365991D01*
X396277Y364937D01*
X396565Y363862D01*
X396782Y362771D01*
X396927Y361667D01*
X397000Y360557D01*
X397000Y359443D01*
X397000Y-20557D02*
X396927Y-21667D01*
X396782Y-22771D01*
X396565Y-23862D01*
X396277Y-24937D01*
X395919Y-25991D01*
X395493Y-27020D01*
X395001Y-28018D01*
X394444Y-28982D01*
X393826Y-29907D01*
X393148Y-30790D01*
X392414Y-31627D01*
X391627Y-32414D01*
X390790Y-33148D01*
X389907Y-33826D01*
X388982Y-34444D01*
X388018Y-35001D01*
X387020Y-35493D01*
X385991Y-35919D01*
X384937Y-36277D01*
X383862Y-36565D01*
X382771Y-36782D01*
X381667Y-36927D01*
X380557Y-37000D01*
X379443Y-37000D01*
X378333Y-36927D01*
X377229Y-36782D01*
X376138Y-36565D01*
X375063Y-36277D01*
X374009Y-35919D01*
X372980Y-35493D01*
X371982Y-35001D01*
X371018Y-34444D01*
X370093Y-33826D01*
X369210Y-33148D01*
X368373Y-32414D01*
X367586Y-31627D01*
X366852Y-30790D01*
X366174Y-29907D01*
X365556Y-28982D01*
X364999Y-28018D01*
X364507Y-27020D01*
X364081Y-25991D01*
X363723Y-24937D01*
X363435Y-23862D01*
X363218Y-22771D01*
X363073Y-21667D01*
X363000Y-20557D01*
X363000Y-19443D01*
X363073Y-18333D01*
X363218Y-17229D01*
X363435Y-16138D01*
X363723Y-15063D01*
X364081Y-14009D01*
X364507Y-12980D01*
X364999Y-11982D01*
X365556Y-11018D01*
X366174Y-10093D01*
X366852Y-9210D01*
X367586Y-8373D01*
X368373Y-7586D01*
X369210Y-6852D01*
X370093Y-6174D01*
X371018Y-5556D01*
X371982Y-4999D01*
X372980Y-4507D01*
X374009Y-4081D01*
X375063Y-3723D01*
X376138Y-3435D01*
X377229Y-3218D01*
X378333Y-3073D01*
X379443Y-3000D01*
X380557Y-3000D01*
X381667Y-3073D01*
X382771Y-3218D01*
X383862Y-3435D01*
X384937Y-3723D01*
X385991Y-4081D01*
X387020Y-4507D01*
X388018Y-4999D01*
X388982Y-5556D01*
X389907Y-6174D01*
X390790Y-6852D01*
X391627Y-7586D01*
X392414Y-8373D01*
X393148Y-9210D01*
X393826Y-10093D01*
X394444Y-11018D01*
X395001Y-11982D01*
X395493Y-12980D01*
X395919Y-14009D01*
X396277Y-15063D01*
X396565Y-16138D01*
X396782Y-17229D01*
X396927Y-18333D01*
X397000Y-19443D01*
X397000Y-20557D01*
X37000Y-20557D02*
X36927Y-21667D01*
X36782Y-22771D01*
X36565Y-23862D01*
X36277Y-24937D01*
X35919Y-25991D01*
X35493Y-27020D01*
X35001Y-28018D01*
X34444Y-28982D01*
X33826Y-29907D01*
X33148Y-30790D01*
X32414Y-31627D01*
X31627Y-32414D01*
X30790Y-33148D01*
X29907Y-33826D01*
X28982Y-34444D01*
X28018Y-35001D01*
X27020Y-35493D01*
X25991Y-35919D01*
X24937Y-36277D01*
X23862Y-36565D01*
X22771Y-36782D01*
X21667Y-36927D01*
X20557Y-37000D01*
X19443Y-37000D01*
X18333Y-36927D01*
X17229Y-36782D01*
X16138Y-36565D01*
X15063Y-36277D01*
X14009Y-35919D01*
X12980Y-35493D01*
X11982Y-35001D01*
X11018Y-34444D01*
X10093Y-33826D01*
X9210Y-33148D01*
X8373Y-32414D01*
X7586Y-31627D01*
X6852Y-30790D01*
X6174Y-29907D01*
X5556Y-28982D01*
X4999Y-28018D01*
X4507Y-27020D01*
X4081Y-25991D01*
X3723Y-24937D01*
X3435Y-23862D01*
X3218Y-22771D01*
X3073Y-21667D01*
X3000Y-20557D01*
X3000Y-19443D01*
X3073Y-18333D01*
X3218Y-17229D01*
X3435Y-16138D01*
X3723Y-15063D01*
X4081Y-14009D01*
X4507Y-12980D01*
X4999Y-11982D01*
X5556Y-11018D01*
X6174Y-10093D01*
X6852Y-9210D01*
X7586Y-8373D01*
X8373Y-7586D01*
X9210Y-6852D01*
X10093Y-6174D01*
X11018Y-5556D01*
X11982Y-4999D01*
X12980Y-4507D01*
X14009Y-4081D01*
X15063Y-3723D01*
X16138Y-3435D01*
X17229Y-3218D01*
X18333Y-3073D01*
X19443Y-3000D01*
X20557Y-3000D01*
X21667Y-3073D01*
X22771Y-3218D01*
X23862Y-3435D01*
X24937Y-3723D01*
X25991Y-4081D01*
X27020Y-4507D01*
X28018Y-4999D01*
X28982Y-5556D01*
X29907Y-6174D01*
X30790Y-6852D01*
X31627Y-7586D01*
X32414Y-8373D01*
X33148Y-9210D01*
X33826Y-10093D01*
X34444Y-11018D01*
X35001Y-11982D01*
X35493Y-12980D01*
X35919Y-14009D01*
X36277Y-15063D01*
X36565Y-16138D01*
X36782Y-17229D01*
X36927Y-18333D01*
X37000Y-19443D01*
X37000Y-20557D01*
M02*
