G04 EAGLE Gerber RS-274X export*
G75*
%MOMM*%
%FSLAX34Y34*%
%LPD*%
%INSoldermask Bottom*%
%IPPOS*%
%AMOC8*
5,1,8,0,0,1.08239X$1,22.5*%
G01*
%ADD10C,3.603200*%
%ADD11C,2.213200*%
%ADD12C,1.511200*%
%ADD13R,1.727200X1.727200*%
%ADD14C,1.727200*%
%ADD15C,1.727200*%
%ADD16C,1.524000*%
%ADD17C,1.993900*%
%ADD18P,1.649562X8X22.500000*%
%ADD19C,1.524000*%
%ADD20C,1.209600*%


D10*
X20000Y360000D03*
X380000Y360000D03*
X380000Y-20000D03*
X20000Y-20000D03*
D11*
X139700Y88900D03*
D12*
X159700Y148900D03*
X159700Y28900D03*
X281700Y148900D03*
X281700Y28900D03*
D13*
X50800Y241300D03*
D14*
X76200Y241300D03*
X101600Y241300D03*
X127000Y241300D03*
X152400Y241300D03*
X177800Y241300D03*
X203200Y241300D03*
X228600Y241300D03*
X254000Y241300D03*
X279400Y241300D03*
X304800Y241300D03*
X330200Y241300D03*
X355600Y241300D03*
X381000Y241300D03*
X381000Y317500D03*
X355600Y317500D03*
X330200Y317500D03*
X304800Y317500D03*
X279400Y317500D03*
X254000Y317500D03*
X228600Y317500D03*
X203200Y317500D03*
X177800Y317500D03*
X152400Y317500D03*
X127000Y317500D03*
X101600Y317500D03*
X76200Y317500D03*
X50800Y317500D03*
D15*
X139700Y198120D02*
X139700Y182880D01*
X165100Y182880D02*
X165100Y198120D01*
X190500Y198120D02*
X190500Y182880D01*
X215900Y182880D02*
X215900Y198120D01*
D16*
X316230Y203200D03*
X267970Y203200D03*
D17*
X72454Y176600D02*
X54547Y176600D01*
X54547Y126600D02*
X72454Y126600D01*
X72454Y76600D02*
X54547Y76600D01*
X54547Y26600D02*
X72454Y26600D01*
D15*
X135400Y342380D02*
X135400Y357620D01*
X110000Y357620D02*
X110000Y342380D01*
X84600Y342380D02*
X84600Y357620D01*
D18*
X347300Y27300D03*
X372700Y27300D03*
X372700Y52700D03*
D19*
X264704Y-20000D02*
X251496Y-20000D01*
X188504Y-20000D02*
X175296Y-20000D01*
D20*
X10000Y280000D03*
X310000Y340000D03*
X340000Y0D03*
X200000Y90000D03*
M02*
